<?xml version="1.0" standalone="no"?>
<!DOCTYPE svg PUBLIC "-//W3C//DTD SVG 1.1//EN" "http://www.w3.org/Graphics/SVG/1.1/DTD/svg11.dtd" >
<svg>
<metadata>
Created by FontForge 20090914 at Fri Oct 12 08:20:42 2018
 By www-data
Copyright (c) Alexander &#38; Temuri Imnaishvili. Tel. 38-35-55. Tbilisi. 7-Feb-1994. Please do not make illegal copies of this font! Call us for new developments.
</metadata>
<defs>
<font id="Academiury-ITVItalic" horiz-adv-x="1118" >
  <font-face 
    font-family="Academiury-ITV"
    font-weight="400"
    font-style="italic"
    font-stretch="normal"
    units-per-em="2048"
    panose-1="2 2 5 0 0 0 0 0 0 0"
    ascent="1638"
    descent="-410"
    x-height="883"
    cap-height="1470"
    bbox="-52.999 -639.001 2209.99 1511"
    underline-thickness="50"
    underline-position="-75"
    unicode-range="U+0020-U+007E"
  />
<missing-glyph horiz-adv-x="1536" 
d="M256 0v1280h1024v-1280h-1024zM1248 32v1216h-960v-1216h960z" />
    <glyph glyph-name=".notdef" horiz-adv-x="1536" 
d="M256 0v1280h1024v-1280h-1024zM1248 32v1216h-960v-1216h960z" />
    <glyph glyph-name="space" unicode=" " horiz-adv-x="1169" 
 />
    <glyph glyph-name="exclam" unicode="!" horiz-adv-x="420" 
d="M627 1300c9.33301 45.333 14 79.667 14 103c0 70 -31.333 106 -94 108c-55.333 0 -94.333 -18 -117 -54s-39.667 -80.667 -51 -134l-111 -907h84zM276 248.001c-84 0 -135 -41.667 -153 -125c-2.66699 -9.33301 -4 -23 -4 -41c0 -57.333 34.667 -86 104 -86
c82 0 132.667 42.333 152 127c2.66699 9.33301 4 23 4 41c0 56 -34.333 84 -103 84z" />
    <glyph glyph-name="quotedbl" unicode="&#x22;" 
d="M1260 965c10.667 52 15.999 100.334 15.999 145.001c0 106 -24 192.5 -72 259.5s-120.333 100.5 -217 100.5l-8 -43c94 -50 141 -134.333 141 -253c0 -52.667 -9.33301 -122.334 -28 -209.001l-48 -217c-34 28.667 -75.667 51.5 -125 68.5s-99 25.5 -149 25.5
c-71.333 0 -138.166 -10.667 -200.499 -32s-118 -51.166 -167 -89.499s-89.833 -83.5 -122.5 -135.5s-55.667 -108.333 -69 -169c-6.66699 -36.667 -10 -67.334 -10 -92.001c0 -64 15 -120.833 45 -170.5s74.167 -88.334 132.5 -116.001s128.833 -41.5 211.5 -41.5
c108 0 200.667 20.667 278 62s139 96.833 185 166.5s78.667 147.834 98 234.501zM759.999 799.001c45.333 0 85.333 -13.002 120 -39.002s61.5 -60.167 80.5 -102.5s28.5 -86.833 28.5 -133.5c0 -23.333 -2 -45 -6 -65c-14 -66.667 -38.5 -132.167 -73.5 -196.5
s-79 -117.666 -132 -159.999s-112.833 -63.5 -179.5 -63.5c-130 0 -195 75 -195 225c0 32.667 6.33301 83.334 19 152.001c26 118 66.333 211.333 121 280s127 103 217 103z" />
    <glyph glyph-name="numbersign" unicode="#" horiz-adv-x="938" 
d="M887 1092c8.66699 40.667 30.165 87.667 64.498 141s72.5 99 114.5 137s76.333 57 103 57l9 43c-42 0 -90.667 -22.167 -146 -66.5s-105.666 -99.5 -150.999 -165.5s-74.666 -129 -87.999 -189c-6 -24.667 -9 -50 -9 -76c0 -87.333 44.667 -131 134 -131
c84 0 135 41 153 123c2.66699 18.667 4 31.667 4 39c0 58.667 -34.667 88 -104 88h-84zM419.998 1092c8.66699 41.333 30.668 88.833 66.001 142.5s74 99.167 116 136.5s75.333 56 100 56l9 43c-40.667 0 -89 -22.167 -145 -66.5s-106.833 -100 -152.5 -167
s-74.834 -129.5 -87.501 -187.5c-6 -24.667 -9 -50 -9 -76c0 -87.333 44.667 -131 134 -131c84 0 135 41 153 123c2.66699 18.667 4 31.667 4 39c0 58.667 -34.667 88 -104 88h-84z" />
    <glyph glyph-name="dollar" unicode="$" horiz-adv-x="807" 
d="M948 1470l-919 -1726h84l919 1726h-84z" />
    <glyph glyph-name="percent" unicode="%" horiz-adv-x="444" 
d="M276 248c-84 0 -135 -41.667 -153 -125c-2.66699 -9.33301 -4 -23 -4 -41c0 -57.333 34.667 -86 104 -86c82 0 132.667 42.333 152 127c2.66699 9.33301 4 23 4 41c0 56 -34.333 84 -103 84zM430 965c-84 0 -135.333 -41 -154 -123c-2.66699 -10 -4 -23.667 -4 -41
c0 -57.333 35 -86 105 -86c82.667 0 133 42.333 151 127c2.66699 9.33301 4 23 4 41c0 54.667 -34 82 -102 82z" />
    <glyph glyph-name="ampersand" unicode="&#x26;" horiz-adv-x="420" 
d="M276 248c-84 0 -135 -41.667 -153 -125c-2.66699 -9.33301 -4 -23 -4 -41c0 -57.333 34.667 -86 104 -86c82 0 132.667 42.333 152 127c2.66699 9.33301 4 23 4 41c0 56 -34.333 84 -103 84z" />
    <glyph glyph-name="quotesingle" unicode="'" horiz-adv-x="938" 
d="M907 944l-49 -228.999c-54 28.667 -122.333 43 -205 43c-72.667 0 -135.667 -9.66699 -189 -29s-98.333 -47 -135 -83s-65.167 -75.333 -85.5 -118s-37.166 -93.667 -50.499 -153c-10 -45.333 -15 -85 -15 -119c0 -79.333 24.5 -142.5 73.5 -189.5
s129.167 -70.5 240.5 -70.5c76 0 141 9.83301 195 29.5s98.667 46.667 134 81s63.666 74.166 84.999 119.499s37.333 93.666 48 144.999l68 321l55 252c14 59.333 21 117.333 21 174c0 178.667 -89.667 268 -269 268l-10 -43c38.667 0 66.167 -19.667 82.5 -59
s24.5 -90.666 24.5 -153.999c0 -65.333 -6.33301 -127.333 -19 -186zM645 715.001c109.333 -2 163.999 -59.3311 163.999 -171.998c0 -38 -8.33301 -94 -25 -168c-10.667 -49.333 -21.334 -91 -32.001 -125s-25.667 -67.167 -45 -99.5s-46.333 -59 -81 -80
s-76.667 -31.5 -126 -31.5c-109.333 0 -164 56 -164 168c0 30.667 8 86.667 24 168c14.667 60.667 26.334 104.667 35.001 132s22.834 57.666 42.501 90.999s46.667 61.166 81 83.499s76.5 33.5 126.5 33.5z" />
    <glyph glyph-name="parenleft" unicode="(" horiz-adv-x="762" 
d="M424 395c24 106.667 50.9971 203.999 80.9971 291.999s68.833 174.333 116.5 259s108.334 165.167 182.001 241.5s159.5 142.5 257.5 198.5l8 41c-81.333 -22.667 -163 -61.667 -245 -117s-160.667 -127.333 -236 -216s-141.666 -191.5 -198.999 -308.5
s-101.666 -247.167 -132.999 -390.5c-24.667 -112.667 -37 -219 -37 -319c0 -95.333 10.667 -183.5 32 -264.5s51 -152.167 89 -213.5s81.167 -111.5 129.5 -150.5s100.833 -67.833 157.5 -86.5l10 43c-50.667 40 -92 81.5 -124 124.5s-58.5 90.667 -79.5 143
s-36 105.833 -45 160.5s-13.5 111.334 -13.5 170.001c0 116.667 16.333 247.667 49 393z" />
    <glyph glyph-name="parenright" unicode=")" horiz-adv-x="762" 
d="M588 395c-22 -102 -47.666 -196.499 -76.999 -283.499s-68.333 -173.833 -117 -260.5s-109.667 -168.667 -183 -246s-158 -144.333 -254 -201l-10 -43c82.667 22.667 164.667 62 246 118s159.5 128.333 234.5 217s141.833 192.834 200.5 312.501s102.667 248.5 132 386.5
c24.667 120 37 228 37 324c0 94.667 -10.667 182.5 -32 263.5s-50.5 151.167 -87.5 210.5s-80 108.833 -129 148.5s-102.167 68.167 -159.5 85.5l-8 -41c172 -134 258 -329.667 258 -587c0 -36.667 -2.33301 -79.834 -7 -129.501s-10.334 -94.334 -17.001 -134.001
s-15.667 -86.5 -27 -140.5z" />
    <glyph glyph-name="asterisk" unicode="*" horiz-adv-x="467" 
d="M264 842c0 -36.667 12.667 -67 38 -91s52.333 -36 81 -36c21.333 0 44.833 5.83301 70.5 17.5s48.5 27.334 68.5 47.001s32.333 40.5 37 62.5c0 23.333 -6 44.166 -18 62.499s-28 33 -48 44s-39 16.5 -57 16.5c-20 0 -42.333 -5.83301 -67 -17.5
s-47.167 -27.167 -67.5 -46.5s-32.833 -39 -37.5 -59zM104 100c0 -69.333 35.668 -104.003 107.001 -104.003h84c-11.333 -48 -28.833 -93 -52.5 -135s-54.5 -80.333 -92.5 -115s-84 -63.334 -138 -86.001l-10 -43c56.667 16.667 112.167 45.834 166.5 87.501
s100.666 90.334 138.999 146.001s63.5 110.834 75.5 165.501c4 22.667 6 43.334 6 62.001c0 86 -44.333 129 -133 129c-40.667 0 -74 -9.5 -100 -28.5s-43.333 -45.167 -52 -78.5z" />
    <glyph glyph-name="plus" unicode="+" horiz-adv-x="850" 
d="M348 164c-10 -46 -39.5 -78.333 -88.5 -97s-97.833 -28 -146.5 -28l-9 -43h635l9 43c-46 0 -89 9 -129 27s-60 50.667 -60 98l244 1136c8.66699 44.667 38.5 77 89.5 97s101.5 30 151.5 30l9 43h-635l-8 -43c46 0 87.833 -9.5 125.5 -28.5s56.5 -51.833 56.5 -98.5z" />
    <glyph glyph-name="comma" unicode="," horiz-adv-x="1004" 
d="M840 987c13.333 62.667 19.999 113.33 19.999 151.997c0 106 -55.333 159.667 -166 161c-44 0 -79.833 5 -107.5 15s-41.5 33.667 -41.5 71h-127c-2.66699 -16 -4 -27.333 -4 -34c0 -40 15.833 -65.333 47.5 -76s70.5 -16 116.5 -16c58.667 -0.666992 99.5 -10 122.5 -28
s34.5 -46.333 34.5 -85c0 -31.333 -8 -84.666 -24 -159.999l-49 -229c-51.333 0 -110.5 -17.833 -177.5 -53.5s-127.5 -83.167 -181.5 -142.5s-88 -121.666 -102 -186.999c-4 -22.667 -6 -44.667 -6 -66c0 -58.667 15.833 -111.834 47.5 -159.501
s74.334 -85.167 128.001 -112.5s110.5 -41 170.5 -41c52.667 0 106.334 9.66699 161.001 29s105.667 46 153 80s88.5 74.833 123.5 122.5s57.833 96.834 68.5 147.501c4 22 6 44.333 6 67c0 52.667 -11.833 103.334 -35.5 152.001s-55.834 88 -96.501 118
s-84 45.333 -130 46zM368.999 374.996c10.667 50 31.8359 101.499 63.5029 154.499s70.5 97.167 116.5 132.5s94.333 53 145 53c43.333 0 79.5 -12.167 108.5 -36.5s50.333 -55.666 64 -93.999s20.5 -79.5 20.5 -123.5c0 -34 -2.66699 -62.667 -8 -86
c-10.667 -52 -31.834 -104 -63.501 -156s-70.834 -95 -117.501 -129s-96.334 -51 -149.001 -51c-42 0 -77.167 11.667 -105.5 35s-49.333 54 -63 92s-20.5 79 -20.5 123c0 34 3 62.667 9 86z" />
    <glyph glyph-name="hyphen" unicode="-" horiz-adv-x="692" 
d="M264 842l-37 -168h508l37 168h-508z" />
    <glyph glyph-name="period" unicode="." horiz-adv-x="983" 
d="M883 715c-10 -44.667 -28.0039 -89.8359 -54.0039 -135.503s-58.667 -84.334 -98 -116.001s-81.666 -47.5 -126.999 -47.5c-116 0 -174 47.667 -174 143c0 22 1.33301 38.333 4 49c16.667 64 33.334 115.333 50.001 154s45 65.334 85 80.001l9 41
c-41.333 0 -84.166 -12.333 -128.499 -37s-83.166 -57.667 -116.499 -99s-55.666 -87.666 -66.999 -138.999c-2.66699 -9.33301 -4 -23.666 -4 -42.999c0 -58.667 24.833 -105 74.5 -139s108.167 -51 175.5 -51c70.667 0 133 7 187 21s99.667 48.667 137 104l-152 -715
c-15.333 -69.333 -48.333 -135.5 -99 -198.5s-109.667 -94.5 -177 -94.5c-50 0 -87.833 21.5 -113.5 64.5s-39.167 95.167 -40.5 156.5c0 30 3.33301 60.667 10 92c37.333 180.667 84.666 272.334 141.999 275.001l10 43c-50.667 0 -99 -17.5 -145 -52.5
s-84.833 -79.333 -116.5 -133s-52.5 -104.5 -62.5 -152.5c-4 -20.667 -6 -39.667 -6 -57c0 -51.333 14.5 -99 43.5 -143s67.333 -78.333 115 -103s98.5 -37 152.5 -37c53.333 0 105.5 8.66699 156.5 26s97.333 42 139 74s76.167 68.5 103.5 109.5s46 84.5 56 130.5l233 1098
h-167z" />
    <glyph glyph-name="slash" unicode="/" horiz-adv-x="938" 
d="M494 -4c57.333 0 117.168 8.66699 179.501 26s117.333 44.5 165 81.5s78.167 85.167 91.5 144.5c4 16 6 32.333 6 49c0 40.667 -10.667 77 -32 109s-53 56.333 -95 73c42 10 85.167 31.833 129.5 65.5s70.166 69.167 77.499 106.5c0 42.667 -12.5 78.167 -37.5 106.5
s-57.5 48.833 -97.5 61.5c60.667 18.667 109 44.834 145 78.501s58 70.5 66 110.5c2.66699 9.33301 4 23 4 41c0 47.333 -18.667 81.666 -56 102.999s-92.833 40.333 -166.5 57s-127.834 34 -162.501 52s-52 48.333 -52 91c0 2.66699 1.66699 14 5 34h-41
c-4.66699 -14.667 -7 -30.334 -7 -47.001c0 -48.667 16.833 -86.667 50.5 -114s82 -53.666 145 -78.999s110.833 -48.833 143.5 -70.5s49 -51.167 49 -88.5c-9.33301 -42 -37.333 -76.667 -84 -104s-92.667 -41 -138 -41h-67l8 41h-41l-27 -125h41l9 41h67
c32.667 0 60.334 -13.833 83.001 -41.5s34 -63.167 34 -106.5c-7.33301 -34 -30.5 -67.667 -69.5 -101s-75.833 -50 -110.5 -50h-68l10 47h-41l-28 -131h41l10 43h47c58.667 0 88 -44.333 88 -133c0 -25.333 -2.66699 -51.333 -8 -78
c-13.333 -64 -38.833 -114.833 -76.5 -152.5s-98.167 -56.5 -181.5 -56.5c-58.667 0 -102 13.667 -130 41s-42 64 -42 110c0 17.333 2 36.666 6 57.999c4 23.333 12.167 50 24.5 80s27.5 45.667 45.5 47l8 41c-31.333 0 -64.833 -6.66699 -100.5 -20
s-67.167 -33.333 -94.5 -60s-45 -57.334 -53 -92.001c-5.33301 -30.667 -8 -52 -8 -64c0 -43.333 12.667 -78.666 38 -105.999s63 -47.166 113 -59.499s111.667 -18.5 185 -18.5z" />
    <glyph glyph-name="zero" unicode="0" horiz-adv-x="1137" 
d="M909 1427c110.667 -3.33301 165.999 -90.666 165.999 -261.999c0 -94 -19 -229.667 -57 -407c-39.333 -192 -89.5 -359.833 -150.5 -503.5s-146.167 -215.5 -255.5 -215.5c-112 2 -168 93.333 -168 274c0 64.667 5.5 130.167 16.5 196.5s26.833 149.166 47.5 248.499
c21.333 97.333 40.333 177.333 57 240s40.167 127.5 70.5 194.5s68.333 122.833 114 167.5s98.834 67 159.501 67zM937.999 1470c-118 0 -221.666 -38.665 -310.999 -115.998s-161.5 -173.333 -216.5 -288s-94.833 -231.667 -119.5 -351
c-19.333 -90.667 -29 -177.334 -29 -260.001c0 -84 10.667 -160.5 32 -229.5s57.833 -124.5 109.5 -166.5s118.5 -63 200.5 -63c90 0 170.5 23.833 241.5 71.5s131.333 109 181 184s91.167 157.167 124.5 246.5s58.666 176 75.999 260c22 107.333 33 202 33 284
c0 81.333 -10 153.666 -30 216.999s-53.833 114.333 -101.5 153s-111.167 58 -190.5 58z" />
    <glyph glyph-name="one" unicode="1" horiz-adv-x="983" 
d="M440 1176l269 84l-234 -1096c-11.333 -54.667 -47.5 -89.167 -108.5 -103.5s-131.833 -21.5 -212.5 -21.5l-9 -43h719l8 43c-155.333 0 -233 28 -233 84l287 1347l-570 -294h84z" />
    <glyph glyph-name="two" unicode="2" horiz-adv-x="1159" 
d="M1182 1092c4 22 6 43.668 6 65.001c0 58 -15.833 110.833 -47.5 158.5s-74.834 85.334 -129.501 113.001s-112.334 41.5 -173.001 41.5c-70.667 0 -143 -19.833 -217 -59.5s-137.333 -91.834 -190 -156.501s-87 -133 -103 -205h41c16 74.667 62.333 135.167 139 181.5
s154.334 69.5 233.001 69.5c150.667 0 226 -63.333 226 -190c0 -33.333 -4.33301 -67.333 -13 -102c-20.667 -96 -69.834 -192.167 -147.501 -288.5s-164 -187.333 -259 -273l-286.5 -261c-96 -88.333 -148.333 -151.5 -157 -189.5h844c24 0 52.833 41 86.5 123
s56.834 153 69.501 213h-41c-8 -38.667 -27.833 -76.334 -59.5 -113.001s-66.5 -55 -104.5 -55h-551c48.667 58.667 113.334 123 194.001 193l276 241.5c103.333 91 185.5 175.5 246.5 253.5s100.167 158 117.5 240z" />
    <glyph glyph-name="three" unicode="3" horiz-adv-x="1071" 
d="M879 375c-10 -47.333 -32.667 -93.832 -68 -139.499s-77.5 -83 -126.5 -112s-97.5 -43.5 -145.5 -43.5c-32.667 0 -58.5 5 -77.5 15s-40.333 26.167 -64 48.5s-43.5 38.5 -59.5 48.5s-37.333 15 -64 15c-32 0 -59.333 -7.66699 -82 -23s-36.667 -35.666 -42 -60.999
c0 -42.667 27.333 -74.5 82 -95.5s109.667 -31.5 165 -31.5c70 0 141.333 12.167 214 36.5s141.667 59.666 207 105.999s120.666 100.833 165.999 163.5s75 128.667 89 198c5.33301 23.333 8 50.666 8 81.999c0 42.667 -8.16699 82.334 -24.5 119.001
s-41.833 67.5 -76.5 92.5s-76.667 41.167 -126 48.5c66 28 125.5 72.667 178.5 134s87.167 128 102.5 200c2.66699 10.667 4 27 4 49c0 68 -25.5 125.833 -76.5 173.5s-110.833 71.5 -179.5 71.5c-66.667 0 -135.334 -17 -206.001 -51s-131.334 -80.333 -182.001 -139
s-83.334 -121.334 -98.001 -188.001h43c8.66699 40.667 30.334 76.667 65.001 108s75.834 55.833 123.501 73.5s91.5 26.5 131.5 26.5c56 0 101.667 -14.167 137 -42.5s53 -70.833 53 -127.5c0 -18 -2 -37.667 -6 -59c-11.333 -53.333 -38.666 -104.333 -81.999 -153
s-94.666 -87.5 -153.999 -116.5s-116.333 -43.5 -171 -43.5l-9 -43c66.667 0 126.667 -7.16699 180 -21.5s96.833 -40 130.5 -77s50.5 -87.5 50.5 -151.5c0 -23.333 -3.33301 -53.333 -10 -90z" />
    <glyph glyph-name="four" unicode="4" horiz-adv-x="1137" 
d="M201 547l-37 -172h551l-80 -379h168l80 379h211l26 125h-211l207 970h-127zM895 1217l-154 -717h-467z" />
    <glyph glyph-name="five" unicode="5" horiz-adv-x="1071" 
d="M571 1092l130.999 208.001h236h229c54 0 97 70.333 129 211h-41c-6.66699 -27.333 -87 -41 -241 -41h-277l-325 -544c60.667 0 121 -9.83301 181 -29.5s113.333 -47.167 160 -82.5s84 -78.5 112 -129.5s42 -106.5 42 -166.5c0 -28.667 -2.66699 -56 -8 -82
c-12 -54.667 -36.833 -110.167 -74.5 -166.5s-82.667 -102 -135 -137s-107.5 -52.5 -165.5 -52.5c-43.333 0 -76.166 10.667 -98.499 32l-68.5 63.5c-23.333 21 -56.333 31.5 -99 31.5c-57.333 0 -90 -22 -98 -66c0 -57.333 25.833 -95.833 77.5 -115.5
s106.834 -29.5 165.501 -29.5c70 0 140 13 210 39s134.333 63 193 111s109.334 106.167 152.001 174.5s73 143.833 91 226.5c6.66699 29.333 10 62.666 10 99.999c0 64 -12.333 123 -37 177s-59.334 101.167 -104.001 141.5s-96.834 71.5 -156.501 93.5
s-123.167 33 -190.5 33z" />
    <glyph glyph-name="six" unicode="6" 
d="M1331 1470c-122.667 0 -242.667 -22.8311 -360 -68.498s-225.166 -109.334 -323.499 -191.001s-181.833 -177.667 -250.5 -288s-117 -228.833 -145 -355.5c-14 -64.667 -21 -126.667 -21 -186c0 -120 31.667 -214.167 95 -282.5s160.666 -102.5 291.999 -102.5
c70 0 136 13.333 198 40s116.667 63.167 164 109.5s86.5 98.5 117.5 156.5s52.833 117 65.5 177c8.66699 40 13 76.333 13 109c0 62 -12.5 118.833 -37.5 170.5s-62.667 92.5 -113 122.5s-112.833 45 -187.5 45c-48 0 -92.167 -4.83301 -132.5 -14.5
s-87.833 -32.834 -142.5 -69.501c13.333 62.667 45 128.5 95 197.5s112.5 133.333 187.5 193s154 107 237 142s163.167 52.5 240.5 52.5zM606 39.002c-62 0.666992 -106.833 27.168 -134.5 79.501s-41.5 119.166 -41.5 200.499c0 64.667 7.66699 131.667 23 201
c14 62.667 28.667 115 44 157s40.5 80 75.5 114s81.167 51 138.5 51c164.667 0 247 -86.667 247 -260c0 -54 -6.66699 -109.333 -20 -166c-20 -101.333 -55.333 -189.5 -106 -264.5s-126 -112.5 -226 -112.5z" />
    <glyph glyph-name="seven" unicode="7" 
d="M524 1470l-198 -337h84l120 167h594l-745 -1304h172l776 1474h-803z" />
    <glyph glyph-name="eight" unicode="8" horiz-adv-x="932" 
d="M219 352c-5.33301 -21.333 -8.00098 -44.3398 -8.00098 -69.0068c0 -59.333 16.333 -110.5 49 -153.5s78.334 -76 137.001 -99s123 -34.5 193 -34.5c105.333 0 196.666 14.667 273.999 44s140.333 72.833 189 130.5s81.334 125.834 98.001 204.501
c5.33301 21.333 8 45 8 71c0 52.667 -12.333 100.334 -37 143.001s-54 79.334 -88 110.001s-83 69.334 -147 116.001c54.667 24.667 102.5 48 143.5 70s78.667 46.833 113 74.5s63.5 59.167 87.5 94.5s41 76 51 122c4 18 6 35.667 6 53c0 79.333 -36.833 139.333 -110.5 180
s-158.167 61 -253.5 61c-66 0 -127.333 -9.5 -184 -28.5s-107.167 -46 -151.5 -81s-80.833 -74.667 -109.5 -119s-49 -94.166 -61 -149.499c-4 -18.667 -6 -36 -6 -52c0 -56.667 18.667 -108.167 56 -154.5s91 -95.166 161 -146.499
c-120 -59.333 -213.667 -116.666 -281 -171.999s-110.333 -127 -129 -215zM841.999 849.993c-77.333 52.667 -136.669 101.334 -178.002 146.001s-62 95.667 -62 153c0 16.667 2 33 6 49c16.667 74 57.834 130.667 123.501 170s133.834 59 204.501 59
c124 0 186 -56.667 186 -170c0 -28.667 -4 -62.667 -12 -102c-14 -65.333 -43.667 -121.833 -89 -169.5s-105 -92.834 -179 -135.501zM673.996 710.993c79.333 -56.667 135.666 -98.332 168.999 -124.999s63.666 -59.834 90.999 -99.501s41 -82.5 41 -128.5
c0 -14 -2 -29.667 -6 -47c-15.333 -76.667 -53 -141.167 -113 -193.5s-139.333 -78.5 -238 -78.5c-51.333 0 -94.666 12 -129.999 36s-61.666 55.667 -78.999 95s-26 82.333 -26 129c0 28.667 2.66699 54 8 76c30 133.333 124.333 245.333 283 336z" />
    <glyph glyph-name="nine" unicode="9" horiz-adv-x="932" 
d="M145 -4c120.667 0 240.333 22.834 359 68.501s227.334 109.667 326.001 192s182.667 179.666 252 291.999s117 230.5 143 354.5c13.333 62.667 20 125 20 187c0 78 -13.333 145.167 -40 201.5s-68.5 100.166 -125.5 131.499s-128.833 47 -215.5 47
c-96 0 -182.667 -23.167 -260 -69.5s-140.333 -106 -189 -179s-82 -151.167 -100 -234.5c-8 -36.667 -12 -72 -12 -106c0 -96 28.833 -175.667 86.5 -239s141.5 -95 251.5 -95c48 0 92 4.66699 132 14s87.333 32.666 142 69.999
c-18.667 -85.333 -68.667 -174.666 -150 -267.999s-177.833 -170.666 -289.5 -231.999s-218.834 -92 -321.501 -92zM876.999 1427c61.333 -0.666992 105.002 -27.166 131.002 -79.499s39 -119.833 39 -202.5c0 -64 -7 -131 -21 -201
c-10.667 -52 -24.334 -100.667 -41.001 -146s-42.334 -84.5 -77.001 -117.5s-80.667 -49.5 -138 -49.5c-168 0 -252 88 -252 264c0 45.333 6.33301 96.666 19 153.999c21.333 104 57.5 193 108.5 267s128.167 111 231.5 111z" />
    <glyph glyph-name="colon" unicode=":" horiz-adv-x="1137" 
d="M709 1260l-8.99902 -43c38 0 64.667 -6.66699 80 -20s23 -34 23 -62c0 -9.33301 -2.66699 -30.666 -8 -63.999c-22 -96.667 -74 -145 -156 -145c-69.333 0 -104 28 -104 84c0 16.667 2.66699 37 8 61l22 105h-127l-18 -84c-4 -20.667 -6 -41.334 -6 -62.001
c0 -29.333 6.66699 -55 20 -77s36.333 -39.167 69 -51.5s74.667 -18.5 126 -18.5c49.333 0 91.333 6.66699 126 20s62 33.5 82 60.5s35.333 62.833 46 107.5c4 20.667 6 39 6 55c0 51.333 -19.333 86.333 -58 105l361 112l-215 -1011
c-11.333 -50 -35.5 -97.833 -72.5 -143.5s-80.833 -82 -131.5 -109s-101.334 -40.5 -152.001 -40.5c-72 0 -128.667 27.333 -170 82s-62 120 -62 196c0 28.667 2.66699 54.667 8 78l18.5 72c7 28 15.833 55.333 26.5 82s24.834 52 42.501 76s36.5 40.333 56.5 49l10 41
c-50.667 -18.667 -99.334 -47.334 -146.001 -86.001s-86.5 -82.667 -119.5 -132s-54.5 -97.666 -64.5 -144.999c-4 -20 -6 -40.333 -6 -61c0 -60 19.167 -112.5 57.5 -157.5s87.833 -79.167 148.5 -102.5s124.334 -35 191.001 -35c58.667 0 117.167 6.66699 175.5 20
s112.666 34.333 162.999 63s92.5 64 126.5 106s56.667 91 68 147l241 1138z" />
    <glyph glyph-name="semicolon" unicode=";" horiz-adv-x="983" 
d="M377 500l17.999 88h-125l-18 -92c0 -52 9.5 -89.667 28.5 -113s42.833 -37.666 71.5 -42.999s67.667 -8 117 -8c84.667 0 145.167 16.5 181.5 49.5s60.5 79.167 72.5 138.5c5.33301 24 8 46.667 8 68c0 32 -7.83301 56.333 -23.5 73s-41.167 29.667 -76.5 39l268 58
l-203 -953c-10.667 -48.667 -27.5 -96.334 -50.5 -143.001s-53.833 -86.667 -92.5 -120s-84.334 -50 -137.001 -50c-50 0 -87.833 21.5 -113.5 64.5s-39.167 95.167 -40.5 156.5c0 30 3.33301 60.667 10 92c16 71.333 34 133 54 185s49.333 82 88 90l10 43
c-50.667 0 -99 -17.5 -145 -52.5s-84.833 -79.333 -116.5 -133s-52.5 -104.5 -62.5 -152.5c-5.33301 -26 -8 -52 -8 -78c0 -58 14.833 -106.5 44.5 -145.5s68.167 -68.167 115.5 -87.5s98.666 -29 153.999 -29c86.667 0 162.167 16 226.5 48s115.333 74.833 153 128.5
s63.834 114.834 78.501 183.501l221 1037l-577 -127l-10 -41c98 0 147 -28.667 147 -86c0 -17.333 -3.33301 -40 -10 -68c-9.33301 -43.333 -24.166 -78.333 -44.499 -105s-58.166 -40 -113.499 -40c-38.667 0 -66 4.66699 -82 14s-24 27 -24 53c0 15.333 2 34.666 6 57.999
z" />
    <glyph glyph-name="less" unicode="&#x3c;" 
d="M436 1470c-2.66699 -13.333 -4.00195 -23.335 -4.00195 -30.002c0 -35.333 16 -60.333 48 -75s79 -22 141 -22c99.333 0 149 -27.667 149 -83l-88 -418c-46 -6.66699 -95.667 -25 -149 -55s-102.166 -66 -146.499 -108s-83.166 -89.667 -116.499 -143
s-55.666 -107 -66.999 -161c-6.66699 -34.667 -10 -64 -10 -88c0 -91.333 34.167 -162.666 102.5 -213.999s166.5 -77 294.5 -77c157.333 0 280.666 33 369.999 99s147 159.333 173 280c6.66699 34.667 10 65.334 10 92.001c0 60 -12.5 116.667 -37.5 170
s-59.5 97.833 -103.5 133.5s-93.333 59.5 -148 71.5l88 418c0 28.667 -9 52.5 -27 71.5s-40.167 32.833 -66.5 41.5s-50.5 13 -72.5 13c-86 0 -129 28 -129 84h-211zM759.998 798.998c68 0 116.334 -21.333 145.001 -64s43 -98 43 -166c0 -45.333 -6 -96.333 -18 -153
c-12.667 -62.667 -30.334 -121.5 -53.001 -176.5s-57 -102 -103 -141s-104.667 -58.833 -176 -59.5c-128 0 -192 77 -192 231c0 37.333 5.33301 86 16 146c57.333 255.333 170 383 338 383z" />
    <glyph glyph-name="equal" unicode="=" horiz-adv-x="1790" 
d="M1737 1133c-82.667 0 -141.667 -30 -177 -90s-62.333 -134.667 -81 -224c-14 -70 -21 -123.333 -21 -160c0 -106 48 -159 144 -159c58 0 105 17.167 141 51.5s61.833 73 77.5 116s29.5 93.5 41.5 151.5c14.667 66 22 118 22 156c0 105.333 -49 158 -147 158zM1413 1092
c8 38 27.667 66.168 59 84.501s65 29.666 101 33.999s75.667 6.5 119 6.5h127l18 83h-170c-39.333 0 -82 -3.5 -128 -10.5s-87.333 -19.5 -124 -37.5s-58.334 -43.333 -65.001 -76l-172 -801l-521 925h-127l-233 -1093c-12.667 -56 -74.667 -84 -186 -84l-27 -127
c166.667 0 259.334 42.333 278.001 127l197 926l621 -1053zM1729 1092c46 0 69 -35.667 69 -107c0 -42 -8 -97.333 -24 -166c-14.667 -71.333 -34 -134.5 -58 -189.5s-58.667 -82.5 -104 -82.5c-48 0 -72 36.667 -72 110c0 34.667 7.66699 88.667 23 162
c14 59.333 26 104.5 36 135.5s25.833 61.667 47.5 92s49.167 45.5 82.5 45.5zM1384 375.001l-26 -127h383l26 127h-383z" />
    <glyph glyph-name="greater" unicode="&#x3e;" 
d="M600 39c-79.333 0 -138.004 24.5 -176.004 73.5s-57 110.5 -57 184.5c0 28.667 3.33301 61.334 10 98.001c10 46.667 29 100.167 57 160.5s56.667 99.833 86 118.5l10 41c-33.333 -9.33301 -75 -34.833 -125 -76.5s-94.167 -88.667 -132.5 -141
s-62.166 -100.833 -71.499 -145.5c-4 -20 -6 -40.333 -6 -61c0 -60 19 -112.333 57 -157s87.5 -78.834 148.5 -102.501s124.833 -35.5 191.5 -35.5c62.667 0 123.334 6.5 182.001 19.5s112.834 34 162.501 63s90.834 64.5 123.501 106.5s54.667 91 66 147l242 1138h-168
l-80 -378c-19.333 -28.667 -51.333 -55.667 -96 -81s-95.667 -45.833 -153 -61.5s-113.666 -23.5 -168.999 -23.5c-87.333 0 -131 44.333 -131 133c0 19.333 4.33301 51.333 13 96c12.667 66.667 30.167 128.667 52.5 186s51.833 86 88.5 86l8 43
c-52 0 -100.5 -17.167 -145.5 -51.5s-83.333 -78.166 -115 -131.499s-52.5 -104.666 -62.5 -153.999c-6 -34.667 -9 -56.667 -9 -66c0 -122.667 89.667 -184 269 -184c68 0 146 11.833 234 35.5s154 53.5 198 89.5l-144 -676
c-10.667 -50.667 -33.334 -98.834 -68.001 -144.501s-77 -81.834 -127 -108.501s-104.333 -40 -163 -40z" />
    <glyph glyph-name="question" unicode="?" 
d="M879 926l-43.0029 -0.00292969l8 39h-88l-27 -123h88l8 41h43c38.667 0 70.167 -16.333 94.5 -49s36.5 -69 36.5 -109c0 -8.66699 -1.33301 -19.667 -4 -33c-9.33301 -47.333 -32.833 -91.166 -70.5 -131.499s-83.834 -60.5 -138.501 -60.5h-43l11 47h-88l-29 -131h88
l10 43h43c39.333 0 70.333 -18.167 93 -54.5s34 -81.833 34 -136.5c-14.667 -68 -46.667 -123.167 -96 -165.5s-117.666 -63.5 -204.999 -63.5c-81.333 0 -138.5 11.5 -171.5 34.5s-49.5 55.833 -49.5 98.5c0 20.667 3.33301 46 10 76c26.667 0 44.334 21 53.001 63
c0 30.667 -8 55.834 -24 75.501s-36 29.5 -60 29.5c-96 0 -153.333 -41.667 -172 -125c-4 -18.667 -6 -37 -6 -55c0 -86.667 43.667 -148.334 131 -185.001s187.666 -55 300.999 -55c110.667 0 217.167 24.5 319.5 73.5s163.833 122.833 184.5 221.5
c2.66699 9.33301 4 23 4 41c0 40.667 -14.167 73.667 -42.5 99s-66.5 42.666 -114.5 51.999c62.667 16.667 115.334 42 158.001 76s69.667 78.333 81 133c2.66699 10 4 23.667 4 41c0 78 -55.333 133.333 -166 166c143.333 26.667 226 91 248 193c2.66699 16 4 27.333 4 34
c0 46 -18.667 79.5 -56 100.5s-92.166 40.333 -164.499 58s-126.666 36.834 -162.999 57.501s-54.5 52.667 -54.5 96c0 5.33301 1.33301 16 4 32h-41c-4 -22 -6 -42.333 -6 -61c0 -49.333 13 -85.166 39 -107.499s65.167 -42.666 117.5 -60.999s90.833 -35.5 115.5 -51.5
s37 -43 37 -81c0 -6 -1.33301 -18.333 -4 -37c-10 -45.333 -40.167 -80.833 -90.5 -106.5s-100.5 -38.5 -150.5 -38.5z" />
    <glyph glyph-name="at" unicode="@" horiz-adv-x="938" 
d="M854 39c5.33301 19.333 8.00391 44 8.00391 74c0 90 -44.333 135 -133 135c-82.667 0 -133 -41.667 -151 -125c-3.33301 -9.33301 -5 -23 -5 -41c0 -57.333 34.333 -86 103 -86h86c-14.667 -68.667 -46.334 -133.667 -95.001 -195s-111.334 -108.333 -188.001 -141
l-10 -43c60 15.333 117.167 44.833 171.5 88.5s100.166 95.167 137.499 154.5s62.666 119 75.999 179zM387.004 39c5.33301 21.333 8.00391 46 8.00391 74c0 90 -43.667 135 -131 135c-84 0 -135 -41.667 -153 -125c-3.33301 -23.333 -5 -36.333 -5 -39
c0 -58.667 35 -88 105 -88h84c-14.667 -68.667 -46.334 -133.667 -95.001 -195s-111.334 -108.333 -188.001 -141l-10 -43c60 15.333 117.167 44.833 171.5 88.5s100.166 95.167 137.499 154.5s62.666 119 75.999 179z" />
    <glyph glyph-name="A" unicode="A" horiz-adv-x="1475" 
d="M1362 852c76.667 35.333 144.17 81.4961 202.503 138.496s94.5 118.833 108.5 185.5c4 16 6 32.333 6 49c0 46.667 -14.333 88.834 -43 126.501s-66.334 66.834 -113.001 87.501s-95 31 -145 31c-54.667 0 -110.334 -10.333 -167.001 -31s-101.334 -54 -134.001 -100
c-30.667 41.333 -69.667 73.5 -117 96.5s-97.666 34.5 -150.999 34.5c-60.667 0 -123.334 -15 -188.001 -45s-121.334 -70.833 -170.001 -122.5s-79.667 -108.167 -93 -169.5c-4 -18.667 -6 -37.334 -6 -56.001c0 -50.667 14.833 -97.5 44.5 -140.5
s68.834 -76.667 117.501 -101s99.334 -36.5 152.001 -36.5c60.667 0 124.167 14.833 190.5 44.5s123.666 70 171.999 121s78.833 107.167 91.5 168.5c2.66699 9.33301 4 24.333 4 45c0 33.333 -5.33301 65.333 -16 96c22 43.333 57 79.666 105 108.999s94.333 44 139 44
c54 0 94 -17.5 120 -52.5s39 -79.5 39 -133.5c0 -21.333 -2 -43 -6 -65c-8.66699 -44 -29.167 -88.833 -61.5 -134.5s-71.166 -83.5 -116.499 -113.5s-90.333 -45 -135 -45l-18 -84c107.333 0 161 -56 161 -168c0 -33.333 -8 -90.666 -24 -171.999
c-14 -66 -38.333 -131.5 -73 -196.5s-78.334 -118.5 -131.001 -160.5s-112.334 -63 -179.001 -63c-71.333 0 -127.166 27.333 -167.499 82s-60.5 120 -60.5 196c0 30 3 56 9 78c6.66699 31.333 15 63.333 25 96s24.833 65.334 44.5 98.001s44.167 61 73.5 85l10 41
c-55.333 -24.667 -106.333 -56.167 -153 -94.5s-86 -80.833 -118 -127.5s-53 -93.667 -63 -141c-4 -20 -6 -39.667 -6 -59c0 -60.667 19.333 -113.667 58 -159s88.334 -79.666 149.001 -102.999s124.334 -35 191.001 -35c112 0 206.167 20.667 282.5 62
s136.666 96.833 180.999 166.5s76.166 147.834 95.499 234.501c12 61.333 18 113 18 155c0 120.667 -45 200 -135 238zM801.003 1427c53.333 0 92.832 -21.167 118.499 -63.5s38.5 -92.833 38.5 -151.5c0 -31.333 -2.66699 -57.666 -8 -78.999
c-14.667 -68 -47.5 -133.5 -98.5 -196.5s-109.5 -94.5 -175.5 -94.5c-52.667 0 -92.167 21.167 -118.5 63.5s-39.5 92.833 -39.5 151.5c0 17.333 2.66699 42.666 8 75.999c17.333 72 50.833 139 100.5 201s107.834 93 174.501 93z" />
    <glyph glyph-name="B" unicode="B" horiz-adv-x="1227" 
d="M948 1386c86.667 0 148.335 -37.3359 185.002 -112.003s55 -171 55 -289c0 -105.333 -11.667 -209 -35 -311c-14 -65.333 -39.5 -143 -76.5 -233s-77.667 -176.333 -122 -259s-81.833 -144.667 -112.5 -186h43c86.667 88.667 158.167 167.334 214.5 236.001
s98.166 127.334 125.499 176.001s48.5 97.167 63.5 145.5s29.833 108.833 44.5 181.5c16.667 74.667 25 146.334 25 215.001c0 69.333 -8 133 -24 191s-40.833 108.667 -74.5 152s-75.834 76.5 -126.501 99.5s-109.667 34.5 -177 34.5c-112 0 -214.5 -31.167 -307.5 -93.5
s-170.667 -145.666 -233 -249.999s-107.166 -220.5 -134.499 -348.5c-24.667 -112.667 -37 -196 -37 -250c0 -64.667 12.667 -133.334 38 -206.001s70.666 -167 135.999 -283h41c-15.333 44.667 -27.333 103.167 -36 175.5s-13 149.5 -13 231.5c0 102.667 8 193 24 271
c23.333 106 58 213 104 321s104.5 200.167 175.5 276.5s149.167 114.5 234.5 114.5z" />
    <glyph glyph-name="C" unicode="C" horiz-adv-x="1294" 
d="M1337 926l9.00293 39c-30.667 0 -65 -4.66699 -103 -14s-73.333 -22.5 -106 -39.5s-60.834 -38.333 -84.501 -64s-39.167 -55.5 -46.5 -89.5c-3.33301 -22 -5 -33.667 -5 -35c0 -23.333 5.16699 -44 15.5 -62s27 -41 50 -69s40.5 -55 52.5 -81s18 -58.333 18 -97
c0 -23.333 -3.66699 -50.666 -11 -81.999c-10 -48.667 -30 -95.834 -60 -141.501s-68.333 -82.334 -115 -110.001s-101 -41.5 -163 -41.5c-58 0 -110.333 20.833 -157 62.5s-70 91.834 -70 150.501c0 10 1.33301 23 4 39l226 1052c0 26 -6.33301 48.5 -19 67.5
s-28.334 33.667 -47.001 44s-37.667 15.5 -57 15.5c-52 0 -101.667 -13.667 -149 -41s-86 -70.333 -116 -129h43c29.333 54.667 75.333 82 138 82c26 0 39 -13 39 -39l-226 -1052c-4 -18.667 -6 -35.667 -6 -51c0 -81.333 40.167 -142.333 120.5 -183s169.833 -61 268.5 -61
c292 0 462.667 112 512 336c7.33301 32 11 62.667 11 92c0 49.333 -9.5 88.5 -28.5 117.5s-48 57.5 -87 85.5s-65 48.167 -78 60.5s-19.5 32.5 -19.5 60.5c0 5.33301 1.33301 14.666 4 27.999c9.33301 46.667 39.166 83.334 89.499 110.001s101.5 40 153.5 40z" />
    <glyph glyph-name="D" unicode="D" 
d="M725 842c96.667 0 165.834 -25.498 207.501 -76.498s62.5 -117.167 62.5 -198.5c0 -37.333 -4.66699 -81 -14 -131c-12 -57.333 -36.333 -117.333 -73 -180s-81.667 -114.5 -135 -155.5s-111 -61.5 -173 -61.5c-71.333 0 -127.666 27.333 -168.999 82s-62 120 -62 196
c0 28.667 2.66699 54.667 8 78c14 64 31.333 122 52 174s51 87 91 105l10 41c-54 -19.333 -104.833 -48.666 -152.5 -87.999s-86.334 -82.5 -116.001 -129.5s-49.834 -95.5 -60.501 -145.5c-4 -20 -6 -40.333 -6 -61c0 -60 19 -112.333 57 -157s87.5 -78.834 148.5 -102.501
s124.833 -35.5 191.5 -35.5c307.333 0 493 146.667 557 440c10.667 54.667 16 104.667 16 150c0 47.333 -6.66699 90.666 -20 129.999s-34.833 73.833 -64.5 103.5s-68.834 53.5 -117.501 71.5c203.333 72.667 319.333 175 348 307c5.33301 22 8 44.667 8 68
c0 85.333 -35.333 140.666 -106 165.999s-159.667 38 -267 38c-116 0 -227.833 -26.667 -335.5 -80s-172.5 -131.666 -194.5 -234.999c-5.33301 -19.333 -8 -39 -8 -59c0 -30.667 8.16699 -53 24.5 -67s41.5 -21 75.5 -21c30.667 0 53.334 5.16699 68.001 15.5
s24.667 26.166 30 47.499c2.66699 13.333 4 22.333 4 27c0 23.333 -10.667 35 -32 35l14 65c16 70 58.833 125.667 128.5 167s142.167 62 217.5 62c59.333 0 109.333 -14.333 150 -43s61 -72.334 61 -131.001c0 -15.333 -2 -33.666 -6 -54.999
c-8.66699 -41.333 -26.167 -78.333 -52.5 -111s-59.5 -61.5 -99.5 -86.5s-81.5 -43.667 -124.5 -56s-84.167 -18.5 -123.5 -18.5z" />
    <glyph glyph-name="E" unicode="E" horiz-adv-x="1407" 
d="M924 1470c-39.333 0 -73.001 -10.501 -101.001 -31.501s-60.667 -54.667 -98 -101s-65.166 -78 -83.499 -95s-41.166 -25.5 -68.499 -25.5c-42 0 -72.833 10 -92.5 30s-29.5 44.667 -29.5 74c0 16 2 31 6 45c4 21.333 16.5 39.666 37.5 54.999s44.333 27.333 70 36
s46.5 13 62.5 13l10 41c-60 0 -112.5 -11.333 -157.5 -34s-73.167 -59.667 -84.5 -111c-4 -16 -6 -31.667 -6 -47c0 -43.333 15.333 -78 46 -104s74 -39 130 -39c55.333 0 95.833 12.167 121.5 36.5s62.667 66.166 111 125.499s87.5 89 117.5 89
c42.667 -2 64 -25.667 64 -71c0 -14.667 -2.66699 -37.334 -8 -68.001c-2 -13.333 -5.16699 -27.666 -9.5 -42.999s-6.83301 -24.666 -7.5 -27.999l-26 -125c-3.33301 -16 -16 -27.167 -38 -33.5s-40.667 -9.5 -56 -9.5l-9 -41h295l8 41
c-13.333 0 -28.833 3.16699 -46.5 9.5s-26.5 17.5 -26.5 33.5l22 106c9.33301 41.333 24.166 79.333 44.499 114s45.333 62.5 75 83.5s62.167 31.5 97.5 31.5s65.666 -15.833 90.999 -47.5s38 -71.5 38 -119.5l-196 -928c-12 -52 -38 -100.5 -78 -145.5
s-87.5 -80.833 -142.5 -107.5s-107.167 -40 -156.5 -40c-88.667 0 -153.167 24.333 -193.5 73s-60.5 110.334 -60.5 185.001c0 28.667 3.33301 61.334 10 98.001c12 48 22 85 30 111s21.833 55.5 41.5 88.5s45.167 59.5 76.5 79.5l10 41c-78.667 -30 -150 -80 -214 -150
s-104 -141 -120 -213c-5.33301 -23.333 -8 -47.666 -8 -72.999c0 -89.333 39 -158.833 117 -208.5s179 -74.5 303 -74.5c73.333 0 149.5 12.5 228.5 37.5s148.833 63 209.5 114s99 112.5 115 184.5l196 928c2.66699 9.33301 4 22.666 4 39.999
c0 56 -26.167 98.333 -78.5 127s-116.833 43 -193.5 43c-68 0 -121.667 -9 -161 -27s-71.666 -43.667 -96.999 -77c0 31.333 -16.5 56.5 -49.5 75.5s-63.5 28.5 -91.5 28.5z" />
    <glyph glyph-name="F" unicode="F" horiz-adv-x="1163" 
d="M733 1470l-38.998 -187.998c-13.333 -60 -20 -114.667 -20 -164c0 -80 15 -143.5 45 -190.5s74.167 -94.833 132.5 -143.5s101.666 -91.834 129.999 -129.501s42.5 -89.167 42.5 -154.5c0 -30.667 -4 -65.667 -12 -105c-24 -115.333 -74.167 -203.5 -150.5 -264.5
s-163.5 -91.5 -261.5 -91.5c-46 0 -87.5 10.5 -124.5 31.5s-65.833 49.167 -86.5 84.5s-31 75 -31 119c0 20.667 2.33301 40 7 58c56.667 0 90 28 100 84c0 30.667 -8.5 52.334 -25.5 65.001s-44.167 19 -81.5 19c-53.333 0 -90.666 -14 -111.999 -42
s-36.333 -63.333 -45 -106c-4 -20 -6 -40.333 -6 -61c0 -60 19 -112.333 57 -157s87.5 -78.834 148.5 -102.501s124.833 -35.5 191.5 -35.5c86 0 163.833 12.833 233.5 38.5s130 61 181 106s92.333 96.667 124 155s54.167 119.5 67.5 183.5c8 40.667 12 78.334 12 113.001
c0 80 -18.833 145.667 -56.5 197s-93.834 107.666 -168.501 168.999s-130.834 118.666 -168.501 171.999s-56.5 123 -56.5 209c0 43.333 4.66699 87 14 131h-41z" />
    <glyph glyph-name="G" unicode="G" horiz-adv-x="1071" 
d="M707 758l-19.002 -83.9971c86 0 147.833 -21.5 185.5 -64.5s56.5 -98.167 56.5 -165.5c0 -26.667 -3.33301 -57.334 -10 -92.001c-14 -63.333 -40.833 -118.5 -80.5 -165.5s-86.667 -83.333 -141 -109s-109.833 -38.5 -166.5 -38.5
c-58.667 0 -111.834 16.333 -159.501 49s-71.5 75 -71.5 127c0 6 1.33301 17 4 33c20.667 0 41.834 9 63.501 27s34.834 37 39.501 57c0 30 -7.33301 51 -22 63s-37.667 19 -69 21c-31.333 0 -58.5 -10.5 -81.5 -31.5s-39.5 -52.167 -49.5 -93.5
c-4 -18.667 -6 -36.334 -6 -53.001c0 -55.333 19.333 -101.166 58 -137.499s87.667 -62.833 147 -79.5s119.333 -25 180 -25c80.667 0 155.334 9 224.001 27s130.5 53.667 185.5 107s92.5 127.333 112.5 222c7.33301 34.667 11 64.667 11 90c0 61.333 -14.5 114 -43.5 158
s-68.5 79 -118.5 105c162 48 254.667 127.667 278 239c3.33301 11.333 5 27 5 47c0 52.667 -17.667 97 -53 133s-85.5 74.333 -150.5 115s-114.333 77.334 -148 110.001s-50.5 73 -50.5 121h-43c-6.66699 -28 -10 -58.667 -10 -92c0 -59.333 14.167 -105.5 42.5 -138.5
s70.333 -63.667 126 -92s96.167 -53.333 121.5 -75s38 -54.834 38 -99.501c0 -14.667 -2.33301 -30.334 -7 -47.001c-10.667 -50.667 -36.5 -88.334 -77.5 -113.001s-85.667 -40 -134 -46s-103.833 -9 -166.5 -9z" />
    <glyph glyph-name="H" unicode="H" horiz-adv-x="1427" 
d="M477 819c38 40.667 97.6631 74.167 178.996 100.5l299 100c118 40.333 214.5 95.166 289.5 164.499s125.167 164.666 150.5 285.999h-41c-80.667 -132.667 -166.667 -224.667 -258 -276s-213.166 -104.166 -365.499 -158.499s-267.666 -118.333 -345.999 -192
s-135.5 -195.167 -171.5 -364.5c-9.33301 -48 -14 -92.333 -14 -133c0 -58 7.5 -114.167 22.5 -168.5s37.833 -98.166 68.5 -131.499s69.334 -50 116.001 -50l8 43c-20 0 -35 17 -45 51s-15 77.667 -15 131c0 90.667 9 176.667 27 258c14 64.667 29.5 118.667 46.5 162
s45.667 80.5 86 111.5s95.833 46.5 166.5 46.5s106 -52 106 -156c0 -30.667 -4.66699 -71.667 -14 -123l-22 -104h-43l-9 -41h127h127l9 41h-43l22 104c14 67.333 37.667 130.666 71 189.999s78 89 134 89c64.667 0 111.5 -10.833 140.5 -32.5s43.5 -63.5 43.5 -125.5
c0 -43.333 -6.66699 -97.333 -20 -162c-10.667 -47.333 -29.667 -106.333 -57 -177s-56.333 -132.167 -87 -184.5s-55.667 -78.5 -75 -78.5l-9 -43c58 0 114.833 25.833 170.5 77.5s103.334 115 143.001 190s67.167 146.833 82.5 215.5c12 58.667 18 107.334 18 146.001
c0 144.667 -85.333 217 -256 217c-45.333 0 -85 -2.16699 -119 -6.5s-70.667 -16 -110 -35s-76.333 -47.5 -111 -85.5c-6.66699 38 -25 66.5 -55 85.5s-62.333 30.667 -97 35s-74.667 6.5 -120 6.5c-42.667 0 -92.667 -7.66699 -150 -23z" />
    <glyph glyph-name="I" unicode="I" horiz-adv-x="1454" 
d="M522 1176c8.66699 38.667 24.5029 77.499 47.5029 116.499s51.667 71.167 86 96.5s70.5 38 108.5 38c46 0 82.333 -18.167 109 -54.5s40 -78.833 40 -127.5c0 -20.667 -1.33301 -36.334 -4 -47.001c-6.66699 -31.333 -16.834 -56.833 -30.501 -76.5
s-38.834 -29.5 -75.501 -29.5l-10 -43h335l11 43c-45.333 0 -68 19.667 -68 59c0 5.33301 0.666992 11.833 2 19.5s2.66602 16.834 3.99902 27.501c8 35.333 24.167 70.666 48.5 105.999s53.5 64.666 87.5 87.999s68 35 102 35c46.667 0 81.834 -18.167 105.501 -54.5
s35.5 -80.833 35.5 -133.5c0 -22 -2 -43 -6 -63l-90 -418c-16 19.333 -40.333 35.333 -73 48s-67.667 21.834 -105 27.501s-69.666 8.5 -96.999 8.5c-72.667 0 -140.667 -10.667 -204 -32s-119.333 -51.333 -168 -90s-88.834 -84 -120.501 -136s-53.834 -108 -66.501 -168
c-6.66699 -29.333 -10 -63 -10 -101c0 -96 33 -173.167 99 -231.5s162.667 -87.5 290 -87.5c60.667 0 120.334 8.83301 179.001 26.5s113.334 43.334 164.001 77.001s93.334 74 128.001 121s58 98.5 70 154.5l172 801c2.66699 10.667 4 26.334 4 47.001
c0 45.333 -13.167 87 -39.5 125s-61.166 67.833 -104.499 89.5s-87.333 32.5 -132 32.5c-54 0 -109.333 -10.5 -166 -31.5s-108.667 -52.833 -156 -95.5c-14.667 28.667 -35.834 52.667 -63.501 72s-58.334 33.333 -92.001 42s-65.834 13 -96.501 13
c-51.333 0 -100.666 -8.83301 -147.999 -26.5s-89.833 -41.667 -127.5 -72s-69.834 -66.166 -96.501 -107.499s-45.334 -85 -56.001 -131c-5.33301 -22.667 -8 -41.334 -8 -56.001c0 -46 28.667 -69 86 -69c47.333 0 79 9.16699 95 27.5s27.333 44.5 34 78.5
c0 10.667 -2 23.667 -6 39s-11.667 23 -23 23zM913.003 38.999c-130.667 0 -196.001 64.001 -196.001 192.001c0 46 8 107.667 24 185c18.667 79.333 37.334 143.666 56.001 192.999s50.334 93.333 95.001 132s105.667 58 183 58c44.667 0 84.334 -13 119.001 -39
s61.5 -60.167 80.5 -102.5s28.5 -86.833 28.5 -133.5c0 -20 -2.33301 -41.667 -7 -65c-14 -66 -38.333 -131.5 -73 -196.5s-78.334 -118.5 -131.001 -160.5s-112.334 -63 -179.001 -63z" />
    <glyph glyph-name="J" unicode="J" horiz-adv-x="1810" 
d="M1210 1260c-28 84 -69.9941 140.004 -125.994 168.004s-126.667 42 -212 42c-118.667 0 -215.334 -29 -290.001 -87s-129.834 -128.667 -165.501 -212s-65.167 -179.333 -88.5 -288c-19.333 -91.333 -29 -189 -29 -293c0 -130.667 15.333 -250.667 46 -360
s74 -187.333 130 -234h43c-46 79.333 -69 216.666 -69 411.999c0 171.333 15.667 329.666 47 474.999c35.333 157.333 80.166 287.333 134.499 390s141.166 154 260.499 154c70 0 120.167 -25.833 150.5 -77.5s45.5 -117.834 45.5 -198.501
c0 -25.333 -1.33301 -50.833 -4 -76.5s-7.33398 -54.834 -14.001 -87.501c-32 -152.667 -76.333 -229 -133 -229l-8 -43h336l8 43c-35.333 0 -53 30.667 -53 92c0 22.667 2.16699 47.334 6.5 74.001s8.16602 47.667 11.499 63c14 65.333 36.667 132 68 200
s72.5 125 123.5 171s109.5 69 175.5 69c49.333 0 88.666 -11 117.999 -33s50 -51.667 62 -89s18 -80.333 18 -129c0 -74.667 -13.667 -172.334 -41 -293.001c-20 -91.333 -50.5 -194.833 -91.5 -310.5s-88.5 -226.167 -142.5 -331.5s-109 -187 -165 -245h43
c54.667 33.333 110.167 83.833 166.5 151.5s108.833 143.667 157.5 228s90.834 171 126.501 260s61.5 171.5 77.5 247.5c23.333 103.333 35 190 35 260c0 218 -111.333 327 -334 327c-53.333 0 -103 -5.33301 -149 -16s-92.5 -31.5 -139.5 -62.5
s-92.167 -74.833 -135.5 -131.5z" />
    <glyph glyph-name="K" unicode="K" horiz-adv-x="2058" 
d="M1829 758c56 0 110.162 16.3223 162.495 48.9893s96.833 76.334 133.499 131.001c36.667 54.667 61.667 113.334 75 176.001c6.66699 29.333 10 61.333 10 96c0 58.667 -12.667 107.334 -38 146.001s-60.666 67.334 -106 86.001c-45.333 18.667 -96.333 28 -153 28
c-130.667 0 -238 -42.333 -322 -127c-18.667 39.333 -47.334 70.333 -86.001 93s-84.334 34 -137.001 34c-103.333 0 -194.666 -42.333 -273.999 -127c-47.333 84.667 -139.666 127 -276.999 127c-73.333 0 -143.166 -14.5 -209.499 -43.5s-123.666 -73.167 -171.999 -132.5
s-82.166 -133.666 -101.499 -222.999c-8 -42.667 -12 -81.667 -12 -117c0 -75.333 18 -140 54 -194s87.333 -102 154 -144c-78.667 -33.333 -141.667 -64.666 -189 -93.999s-85.666 -62.666 -114.999 -99.999s-49.333 -81 -60 -131h125c10 44 35.833 86.5 77.5 127.5
s90.667 74 147 99s109.166 37.5 158.499 37.5c86.667 -34 218.834 -71.167 396.501 -111.5s303 -70.5 376 -90.5s143 -54.167 210 -102.5s100.5 -112.166 100.5 -191.499c0 -20 -2 -41 -6 -63h43c9.33301 42 14 84.333 14 127c0 146 -56.5 251.833 -169.5 317.5
s-280.5 123.334 -502.5 173.001s-384.167 98.5 -486.5 146.5s-153.5 130.667 -153.5 248c0 21.333 3.33301 49.333 10 84c8.66699 36.667 21.334 71.834 38.001 105.501s38.167 64.834 64.5 93.501s56 51.667 89 69s67.5 26 103.5 26c34.667 0 66.167 -9.5 94.5 -28.5
s50.333 -44.167 66 -75.5s23.5 -65.333 23.5 -102c0 -20.667 -1.33301 -36.334 -4 -47.001c-16 -83.333 -53 -125 -111 -125l-8 -43h293l8 43c-43.333 0 -65 22.333 -65 67c0 16 2.66699 35.333 8 58c8 36.667 24.833 74.834 50.5 114.501s56.334 72.667 92.001 99
s70.167 39.5 103.5 39.5c46 0 81 -18.5 105 -55.5s36 -81.167 36 -132.5c0 -16.667 -2.66699 -38.334 -8 -65.001c-16 -83.333 -53 -125 -111 -125l-8 -43h295l8 43c-43.333 0 -65 22.333 -65 67c0 16 2.66699 35.333 8 58c8.66699 40 28 79.667 58 119
s65.333 71.5 106 96.5s80.667 37.5 120 37.5c50 0 87.5 -11.167 112.5 -33.5s37.5 -62.166 37.5 -119.499c0 -36.667 -6 -83.667 -18 -141c-8 -36 -22.167 -77 -42.5 -123s-43.833 -85.833 -70.5 -119.5s-52.667 -50.5 -78 -50.5z" />
    <glyph glyph-name="L" unicode="L" horiz-adv-x="1454" 
d="M272 291c7.33301 31.333 23.3359 62.665 48.0029 93.998s52.667 58.833 84 82.5s63.166 42.834 95.499 57.501s59.166 22 80.499 22c52 -28.667 129.5 -65.334 232.5 -110.001s184.333 -82.5 244 -113.5s110.167 -69 151.5 -114s62 -97.833 62 -158.5
c0 -18.667 -2 -37 -6 -55h41c12 58.667 18 111.334 18 158.001c0 124 -34.5 214.333 -103.5 271s-171.5 108.834 -307.5 156.501s-236.333 95.834 -301 144.501s-97 127.667 -97 237c0 41.333 4.66699 84.333 14 129c11.333 56 25.5 107.667 42.5 155s43.5 89 79.5 125
s82 54.333 138 55c36 0 67.667 -11.167 95 -33.5s41 -51.833 41 -88.5c-4 -16 -12.333 -32.667 -25 -50c-34.667 -45.333 -59.334 -99.666 -74.001 -162.999c-5.33301 -22 -8 -46 -8 -72c0 -86 29 -158.333 87 -217s131.333 -88 220 -88c50.667 0 100 9.66699 148 29
s94 47 138 83s81.167 77.167 111.5 123.5s50.166 93.5 59.499 141.5c5.33301 21.333 8 45.666 8 72.999c0 56.667 -13.167 108 -39.5 154s-62.833 82.667 -109.5 110s-98.667 41 -156 41c-80.667 0 -164.667 -28 -252 -84c-17.333 30 -49.666 51.5 -96.999 64.5
s-93.333 19.5 -138 19.5c-85.333 0 -162.833 -20.167 -232.5 -60.5s-126 -92.5 -169 -156.5s-72.5 -132 -88.5 -204c-8 -38.667 -12 -74.334 -12 -107.001c0 -66 14.5 -124.5 43.5 -175.5s71.167 -97.5 126.5 -139.5c-53.333 -24 -102.5 -53.333 -147.5 -88
s-82.5 -73.5 -112.5 -116.5s-50 -86.833 -60 -131.5h127zM1276 1427c53.333 0 91.5 -20.667 114.5 -62s34.5 -93.666 34.5 -156.999c0 -43.333 -4 -82 -12 -116c-16.667 -82 -46.5 -158.167 -89.5 -228.5s-99.833 -105.5 -170.5 -105.5c-56 0 -98 23.167 -126 69.5
s-42 102.166 -42 167.499c0 32.667 3.33301 65 10 97c17.333 82 50.5 158.333 99.5 229s109.5 106 181.5 106z" />
    <glyph glyph-name="M" unicode="M" 
d="M1126 332l242 1138h-127l-381 -210h62l252 83l-89 -417c-24.667 26.667 -54.334 49.167 -89.001 67.5s-72.5 32.166 -113.5 41.499s-79.167 14 -114.5 14c-72.667 0 -142 -12 -208 -36s-106 -67.333 -120 -130c-2.66699 -20 -4 -32.333 -4 -37
c0 -16 6.66699 -27.833 20 -35.5s36 -11.5 68 -11.5c47.333 0 78.5 6.33301 93.5 19s25.5 34.334 31.5 65.001c0 28.667 -10.333 43 -31 43c5.33301 24 23.833 43.667 55.5 59s60.5 23 86.5 23c62 0 119.833 -15.333 173.5 -46s98.167 -70.667 133.5 -120l-109 -510
c-10 -48.667 -33.833 -96.167 -71.5 -142.5s-82.167 -83 -133.5 -110s-102.333 -40.5 -153 -40.5c-71.333 0 -127.666 27.333 -168.999 82s-62 120 -62 196c0 28.667 2.66699 54.667 8 78c11.333 55.333 27.666 108.5 48.999 159.5s50 76.5 86 76.5l8 43
c-51.333 0 -99.333 -15.333 -144 -46s-82.167 -70.834 -112.5 -120.501s-51.166 -101.5 -62.499 -155.5c-4 -20 -6 -40.333 -6 -61c0 -60 19 -112.333 57 -157s87.5 -78.834 148.5 -102.501s124.833 -35.5 191.5 -35.5c73.333 0 148 12.5 224 37.5s142.667 62.833 200 113.5
s94 112.334 110 185.001z" />
    <glyph glyph-name="N" unicode="N" horiz-adv-x="1702" 
d="M1278 1092c40.667 22 73.666 41.8301 98.999 59.4971s47.833 38.834 67.5 63.501s33.167 53 40.5 85c2.66699 17.333 4 29 4 35c0 90 -80.667 135 -242 135c-78.667 0 -146.334 -13.5 -203.001 -40.5s-91.334 -70.167 -104.001 -129.5c-2.66699 -9.33301 -4 -22 -4 -38
c0 -41.333 13.333 -74.5 40 -99.5s70 -55.5 130 -91.5c-53.333 -28 -96.5 -52.5 -129.5 -73.5s-62.667 -46.667 -89 -77s-43.5 -64.166 -51.5 -101.499c-3.33301 -23.333 -5 -36.333 -5 -39c0 -50 22.167 -87.333 66.5 -112s101.5 -37 171.5 -37
c81.333 0 150.166 15.5 206.499 46.5s91.166 78.167 104.499 141.5c4 16.667 6 33 6 49c0 72.667 -40.667 133 -122 181c104.667 0 186.334 -26.333 245.001 -79s88 -132.334 88 -239.001c0 -47.333 -6 -102 -18 -164c-14.667 -68 -44 -134.667 -88 -200
s-96.833 -122.5 -158.5 -171.5s-127.5 -87.333 -197.5 -115s-140.333 -41.5 -211 -41.5c-82.667 0 -158.5 19 -227.5 57s-123.167 89.667 -162.5 155s-59 138 -59 218c0 38.667 3.33301 71.334 10 98.001c11.333 54 28.833 107.5 52.5 160.5s55.834 100.833 96.501 143.5
s89.334 74 146.001 94l8 43l-309 125l-18 -84l235 -84c-47.333 0 -94.166 -11.667 -140.499 -35s-88.833 -54.333 -127.5 -93s-71.167 -81.334 -97.5 -128.001s-45.166 -94 -56.499 -142c-8 -36.667 -12 -70.667 -12 -102c0 -100 31.5 -185.167 94.5 -255.5
s144.5 -123.5 244.5 -159.5s204.667 -54 314 -54c118 0 240 21.667 366 65s235.833 108.333 329.5 195s153.5 190.334 179.5 311.001c8 38.667 12 76.334 12 113.001c0 88.667 -24.5 164 -73.5 226s-113.333 108.5 -193 139.5s-165.5 46.5 -257.5 46.5zM1161 1030
c68.667 -46 103 -100.666 103 -163.999c0 -15.333 -2.33301 -31 -7 -47c-10 -51.333 -29 -88.333 -57 -111s-69 -34 -123 -34c-42 0 -72.667 7.33301 -92 22s-29 38.667 -29 72c0 15.333 2.33301 32.333 7 51c6.66699 30.667 19.5 59 38.5 85s41.5 48.667 67.5 68
s56.667 38.666 92 57.999zM1169 1106c-34.667 24 -60.999 47.8311 -78.999 71.498s-27 51.834 -27 84.501c0 6.66699 1.33301 19.334 4 38.001c9.33301 43.333 27.666 75.333 54.999 96s66.333 31 117 31c44 0 76.167 -7.16699 96.5 -21.5s30.5 -36.5 30.5 -66.5
c0 -16 -1.33301 -29 -4 -39c-9.33301 -42 -30.333 -78.167 -63 -108.5s-76 -58.833 -130 -85.5z" />
    <glyph glyph-name="O" unicode="O" horiz-adv-x="1362" 
d="M1362 1198c-25.333 -122.667 -53.334 -185.997 -84.001 -189.997l-8 -43c36 0 72.667 12.667 110 38s70 58 98 98s46 78.667 54 116c4 18 6 35.667 6 53c0 59.333 -21.333 107 -64 143s-103.334 55 -182.001 57c-46.667 0 -89.167 -4.33301 -127.5 -13
s-71.666 -21 -99.999 -37s-54.166 -35.333 -77.499 -58c-13.333 21.333 -32.333 40.166 -57 56.499s-53.334 29 -86.001 38s-67 13.5 -103 13.5c-72 -0.666992 -136.833 -16.5 -194.5 -47.5s-104.167 -71.833 -139.5 -122.5s-59.666 -106.334 -72.999 -167.001
c-4 -20.667 -6 -46.667 -6 -78c2.66699 -90.667 12 -161.667 28 -213l244 -846h43l600 846h-358h-361c-18.667 49.333 -28 109.333 -28 180c0 53.333 4 97.666 12 132.999c11.333 52 23.5 96 36.5 132s34.833 68.333 65.5 97s71.667 43 123 43
c41.333 0 72.5 -17.167 93.5 -51.5s32.167 -76.5 33.5 -126.5c0 -19.333 -2.66699 -43.666 -8 -72.999c-12 -52 -31.667 -80 -59 -84l-11 -43h252l10 43c-17.333 0 -26 13.667 -26 41c0 16.667 1.33301 31 4 43c10 46 27.333 88.167 52 126.5s53.5 68.666 86.5 90.999
s66.833 33.5 101.5 33.5c72 0 108 -50.333 108 -151c0 -24 -2.66699 -50 -8 -78zM560.999 758.003h539l-412 -551z" />
    <glyph glyph-name="P" unicode="P" horiz-adv-x="1475" 
d="M907 754l89.9951 421.998c2.66699 10.667 4 26.334 4 47.001c0 46 -12 87.833 -36 125.5s-56.167 67.334 -96.5 89.001s-83.5 32.5 -129.5 32.5c-91.333 0 -172.666 -28.667 -243.999 -86s-115.666 -126.666 -132.999 -207.999c-4 -20.667 -6 -41.334 -6 -62.001
c0 -66 23.333 -121 70 -165s109.334 -66 188.001 -66c22.667 0 49.167 4 79.5 12s57.833 18.333 82.5 31l-110 -510c-8.66699 -35.333 -13 -71 -13 -107c0 -100.667 32.5 -178 97.5 -232s147.167 -81 246.5 -81c76.667 0 149.667 15.333 219 46s129.833 78.167 181.5 142.5
s86.834 141.5 105.501 231.5c8.66699 44.667 13 82 13 112c0 66 -14.833 123 -44.5 171s-70.167 83.833 -121.5 107.5s-108.666 35.5 -171.999 35.5c-96.667 0 -187 -29.333 -271 -88zM828.995 1176c-13.333 -66 -34.166 -123.666 -62.499 -172.999s-75.5 -75 -141.5 -77
c-74 2 -111 45 -111 129c0 25.333 5.33301 65.666 16 120.999c16 70 37.667 129.333 65 178s72.666 73 135.999 73c76.667 0 115 -43.667 115 -131c0 -31.333 -5.66699 -71.333 -17 -120zM1335 415.999c-20 -100 -55.835 -187.333 -107.502 -262s-125.5 -113 -221.5 -115
c-65.333 0 -112.833 24 -142.5 72s-44.5 107.333 -44.5 178c0 34 3.33301 69.333 10 106c14 62.667 35.833 124.5 65.5 185.5s67.834 112.667 114.501 155s99.334 63.5 158.001 63.5c68 0 116.5 -20.5 145.5 -61.5s43.5 -95.167 43.5 -162.5c0 -43.333 -7 -96.333 -21 -159z
" />
    <glyph glyph-name="Q" unicode="Q" horiz-adv-x="1454" 
d="M272 291c10 42.667 31 83.6699 63 123.003s70.333 71.333 115 96s88 37 130 37c46 -24.667 122.167 -59 228.5 -103s189.333 -81 249 -111s110 -67.5 151 -112.5s61.5 -98.833 61.5 -161.5c0 -20 -2 -41 -6 -63h41c12 60.667 18 116 18 166
c0 124.667 -34.333 213.667 -103 267s-170.834 100.833 -306.501 142.5s-236.5 86.167 -302.5 133.5s-99 128.333 -99 243c0 48 5.33301 96 16 144c23.333 100 51 180.833 83 242.5s84.333 92.5 157 92.5c86 0 129 -51.667 129 -155c0 -32.667 -3.33301 -64.667 -10 -96
c-9.33301 -44.667 -22.5 -83.167 -39.5 -115.5s-44.167 -49.833 -81.5 -52.5l-8 -43h336l8 43c-40 3.33301 -60 29.666 -60 78.999c0 23.333 4.33301 53 13 89c13.333 64 37.833 121.833 73.5 173.5s84.834 77.5 147.501 77.5c54 0 92.333 -19.667 115 -59
s34 -89.666 34 -150.999c0 -42.667 -5.33301 -91.334 -16 -146.001c-40 -181.333 -87 -272 -141 -272l-8 -41c50 0 97.667 17.167 143 51.5s83.666 77.333 114.999 129s52.333 102.834 63 153.501c6.66699 33.333 10 64 10 92c0 85.333 -26.333 154.333 -79 207
s-128.667 79 -228 79c-112.667 -4 -202 -32 -268 -84c-44.667 56 -124.667 84 -240 84c-58.667 0 -114 -11.667 -166 -35s-99.167 -55.833 -141.5 -97.5s-76.666 -86.834 -102.999 -135.501s-45.833 -99.667 -58.5 -153c-8 -40.667 -12 -78.334 -12 -113.001
c0 -67.333 14.667 -126.833 44 -178.5s72 -98.834 128 -141.501c-82.667 -22 -152.5 -61.833 -209.5 -119.5s-94.5 -126.167 -112.5 -205.5h127z" />
    <glyph glyph-name="R" unicode="R" horiz-adv-x="1098" 
d="M377 395c13.333 58.667 33.335 119.838 60.002 183.505s54.334 95.5 83.001 95.5l10 41c-69.333 -19.333 -136.333 -61 -201 -125s-107.334 -143.333 -128.001 -238c-4 -20 -6 -40.333 -6 -61c0 -60 19 -112.333 57 -157s87.5 -78.834 148.5 -102.501
s124.833 -35.5 191.5 -35.5c113.333 0 208.666 19.5 285.999 58.5s137.166 91 179.499 156s72.833 140.167 91.5 225.5c10.667 50 16 100.667 16 152c0 160 -70.333 262.333 -211 307c92 33.333 170.833 74.5 236.5 123.5s105.834 108.833 120.501 179.5c4 18.667 6 37 6 55
c0 74 -33.333 128.667 -100 164s-142.667 53 -228 53l-8 -43c32 0 60.5 -9.33301 85.5 -28s44.667 -42.667 59 -72s21.5 -60 21.5 -92c0 -8.66699 -1.33301 -21 -4 -37c-8.66699 -41.333 -26.167 -78.333 -52.5 -111s-59.5 -61.5 -99.5 -86.5s-81.5 -43.667 -124.5 -56
s-84.167 -18.5 -123.5 -18.5l-18 -84c56 0 104.167 -9.33301 144.5 -28s71.666 -48.334 93.999 -89.001s33.5 -91.334 33.5 -152.001c0 -36.667 -5.33301 -82.334 -16 -137.001c-12 -57.333 -36.333 -117.333 -73 -180s-81.667 -114.5 -135 -155.5s-111 -61.5 -173 -61.5
c-78.667 0 -137.167 24.833 -175.5 74.5s-57.5 112.167 -57.5 187.5c0 29.333 3.33301 60.666 10 93.999z" />
    <glyph glyph-name="S" unicode="S" horiz-adv-x="1790" 
d="M1896 776c23.333 108 34.998 201.003 34.998 279.003c0 248 -113.333 372 -340 372c-67.333 0 -135.666 -9.66699 -204.999 -29s-124.333 -52 -165 -98c-65.333 84.667 -159 127 -281 127c-112.667 0 -215 -35.667 -307 -107s-167.667 -161.333 -227 -270
s-101 -220.334 -125 -335.001c-16.667 -74.667 -25 -151.334 -25 -230.001c0 -90 12.667 -171.833 38 -245.5s66.5 -132.667 123.5 -177s129.5 -66.5 217.5 -66.5c85.333 0 164.833 21.167 238.5 63.5s139 99.166 196 170.499s104.167 148.5 141.5 231.5s65 167.5 83 253.5
c15.333 70.667 23 143 23 217c0 80 -9 150.333 -27 211c-1.33301 14.667 -2 35.667 -2 63c7.33301 36.667 29.333 68.5 66 95.5s77.5 47.833 122.5 62.5s80.5 22 106.5 22c118.667 -6.66699 178 -107 178 -301c0 -92 -12.333 -195 -37 -309
c-20 -90.667 -49.167 -187.667 -87.5 -291s-82.666 -197 -132.999 -281s-99.5 -139 -147.5 -165l-8 -43c86.667 31.333 162 75 226 131s116.5 119 157.5 189s74.333 143.167 100 219.5s47.167 156.5 64.5 240.5zM931.998 1386c52.667 0 95.166 -19.6689 127.499 -59.002
s55.666 -90.666 69.999 -153.999s21.5 -132.666 21.5 -207.999c0 -88 -8.33301 -171.333 -25 -250c-13.333 -64.667 -35.333 -136.5 -66 -215.5s-67.167 -153.167 -109.5 -222.5s-90.166 -126.333 -143.499 -171s-108 -67 -164 -67
c-75.333 0 -130.666 41.833 -165.999 125.5s-53 186.5 -53 308.5c0 83.333 8.33301 164 25 242c14 66 36 138 66 216s66 151.333 108 220s89.5 125 142.5 169s108.5 66 166.5 66z" />
    <glyph glyph-name="T" unicode="T" 
d="M377 395c12 54.667 30.1631 110.668 54.4961 168.001s53.833 94.333 88.5 111l10 41c-85.333 -38 -157.666 -89.667 -216.999 -155s-96.666 -134.666 -111.999 -207.999c-4 -20 -6 -40.333 -6 -61c0 -60 19 -112.333 57 -157s87.5 -78.834 148.5 -102.501
s124.833 -35.5 191.5 -35.5c73.333 0 148 12.5 224 37.5s142.667 62.833 200 113.5s94 112.334 110 185.001l162 760c5.33301 23.333 8 47.666 8 72.999c0 60 -15.833 113.167 -47.5 159.5s-75.5 82.166 -131.5 107.499s-119.667 38 -191 38
c-77.333 0 -152.333 -11.333 -225 -34s-134.667 -57.5 -186 -104.5s-84.333 -105.833 -99 -176.5c-5.33301 -19.333 -8 -39 -8 -59c0 -30.667 8.16699 -53 24.5 -67s41.5 -21 75.5 -21c30.667 0 53.834 6 69.501 18s25.167 27 28.5 45c0 26 -1.83301 42.833 -5.5 50.5
s-11.167 11.5 -22.5 11.5l14 65c14 64 48.5 118.167 103.5 162.5s122.167 66.5 201.5 66.5c45.333 0 85.5 -12.833 120.5 -38.5s61.833 -59.5 80.5 -101.5s28 -86 28 -132c0 -22 -2 -43 -6 -63l-162 -760c-10 -48.667 -33.833 -96.167 -71.5 -142.5s-82.167 -83 -133.5 -110
s-102.333 -40.5 -153 -40.5c-71.333 0 -127.666 27.333 -168.999 82s-62 120 -62 196c0 28.667 2.66699 54.667 8 78z" />
    <glyph glyph-name="U" unicode="U" horiz-adv-x="1137" 
d="M616 1300c18 84.667 61.998 127.001 131.998 127.001c70.667 0 106 -49 106 -147c0 -40.667 -6 -89.667 -18 -147l-35 -168c-91.333 -17.333 -177.666 -49.666 -258.999 -96.999s-149.833 -106.333 -205.5 -177s-92.834 -148 -111.501 -232
c-5.33301 -26 -8 -54.667 -8 -86c0 -69.333 17.5 -132.833 52.5 -190.5s82.667 -103.167 143 -136.5s127.5 -50 201.5 -50c94.667 0 183.834 21.833 267.501 65.5s153 102.167 208 175.5s91.833 154 110.5 242c8 36.667 12 73 12 109c0 86 -20.667 163.833 -62 233.5
s-101.666 117.5 -180.999 143.5l30 149c12.667 56.667 19 106 19 148c0 137.333 -80.667 206.666 -242 207.999c-45.333 0 -92.666 -9 -141.999 -27s-92.5 -44.833 -129.5 -80.5s-60.5 -76.834 -70.5 -123.501c0 -36.667 6.83301 -63.5 20.5 -80.5s33.5 -25.5 59.5 -25.5
c32 0 60 9.83301 84 29.5s39 45.167 45 76.5c0 25.333 -1.83301 41.833 -5.5 49.5s-10.834 11.5 -21.501 11.5zM982.998 436.001c-10 -51.333 -22.0029 -98.332 -36.0029 -140.999s-34 -83.834 -60 -123.501s-60.667 -71.667 -104 -96s-96.666 -36.5 -159.999 -36.5
c-140.667 0 -211 77.667 -211 233c0 41.333 6.66699 96 20 164c12.667 56.667 29.334 112.667 50.001 168s47.334 107.666 80.001 156.999s71.667 89.166 117 119.499s97 45.5 155 45.5c61.333 0 105.333 -26.667 132 -80s40 -121.666 40 -204.999
c0 -57.333 -7.66699 -125.666 -23 -204.999z" />
    <glyph glyph-name="V" unicode="V" 
d="M1116 1092l-76.001 -352.995c-26.667 33.333 -64.667 58.833 -114 76.5s-102 26.5 -158 26.5c-64.667 0 -128.167 -10.667 -190.5 -32s-118.833 -51.333 -169.5 -90s-93.334 -84.334 -128.001 -137.001s-58.334 -108.334 -71.001 -167.001
c-8 -36.667 -12 -72.334 -12 -107.001c0 -62 13.833 -116.5 41.5 -163.5s70.5 -83.667 128.5 -110s131.667 -39.5 221 -39.5c156.667 0 282.167 43.833 376.5 131.5s155.833 198.167 184.5 331.5l135 633c5.33301 23.333 8 47.666 8 72.999
c0 61.333 -16.833 115.166 -50.5 161.499s-80 81.833 -139 106.5s-126.167 37 -201.5 37c-45.333 0 -94.166 -6.66699 -146.499 -20s-102.666 -33.5 -150.999 -60.5s-89.666 -60.5 -123.999 -100.5s-56.833 -84.667 -67.5 -134c-7.33301 -35.333 -11 -59.333 -11 -72
c0 -50 26.667 -75 80 -75c33.333 0 61.333 9.5 84 28.5s37.667 44.833 45 77.5c0 41.333 -8.66699 62 -26 62c10 48 30.167 90.833 60.5 128.5s67.5 67.5 111.5 89.5s89.667 33 137 33c71.333 0 128 -22.167 170 -66.5s63 -103.833 63 -178.5
c0 -26.667 -3.33301 -56.667 -10 -90zM595.999 39.0049c-131.333 0 -197.002 69.667 -197.002 209c0 40.667 7 96.667 21 168c16.667 70.667 36.334 132.667 59.001 186s56.834 99.5 102.501 138.5s104.5 58.5 176.5 58.5c53.333 0 97.333 -11.333 132 -34
s60.167 -53 76.5 -91s24.5 -80.333 24.5 -127c0 -27.333 -3.33301 -56.666 -10 -87.999c-24 -114.667 -65.667 -212.834 -125 -294.501s-146 -123.5 -260 -125.5z" />
    <glyph glyph-name="W" unicode="W" horiz-adv-x="1427" 
d="M1153 799c44.667 0 82.667 -11.9961 114 -35.9961s55 -56 71 -96s24 -82.667 24 -128c0 -30 -2.66699 -56.667 -8 -80c-16.667 -74.667 -48.334 -144.167 -95.001 -208.5s-105.334 -115.666 -176.001 -153.999s-149.667 -57.5 -237 -57.5
c-240.667 0 -361 128.333 -361 385c0 76 11 165.333 33 268c19.333 89.333 45.833 179.166 79.5 269.499s75.5 177.333 125.5 261s104 151.834 162 204.501l8 43c-86 -41.333 -171 -107.166 -255 -197.499s-155.833 -190.333 -215.5 -300
s-100.834 -216.834 -123.501 -321.501c-12 -60.667 -18 -117.334 -18 -170.001c0 -159.333 52.167 -280 156.5 -362s237.833 -123 400.5 -123c91.333 0 186.666 18.167 285.999 54.5s185.333 89.833 258 160.5s119.334 153.334 140.001 248.001
c5.33301 23.333 8 48.666 8 75.999c0 71.333 -22.667 133.166 -68 185.499s-109.333 92.833 -192 121.5c81.333 14.667 155.5 43.5 222.5 86.5s107.5 97.5 121.5 163.5c2.66699 10.667 4 25 4 43c0 44 -15.167 77.667 -45.5 101s-74.666 45.5 -132.999 66.5
s-100.833 40.167 -127.5 57.5s-40 44.666 -40 81.999c0 5.33301 1.33301 14.666 4 27.999h-41c-4 -22 -6 -41.667 -6 -59c0 -39.333 9.5 -68.833 28.5 -88.5s47.167 -38.334 84.5 -56.001s65 -34.667 83 -51s27 -41.833 27 -76.5c0 -13.333 -2 -29 -6 -47
c-11.333 -54 -46.666 -102.333 -105.999 -145s-115.666 -64 -168.999 -64h-61l10 43h-84l-37 -168h84l9 41h61z" />
    <glyph glyph-name="X" unicode="X" horiz-adv-x="1071" 
d="M815 842c-42 0 -90.0039 -8.33398 -144.004 -25.001s-105.333 -38 -154 -64s-89.334 -52.333 -122.001 -79l64 291l53 252c10 42 30 78.833 60 110.5s65 56.167 105 73.5s77 26 111 26c40.667 0 78.5 -10.5 113.5 -31.5s52.5 -52.833 52.5 -95.5
c-9.33301 -44 -33.666 -85.5 -72.999 -124.5s-84.666 -69.833 -135.999 -92.5s-99 -34 -143 -34l-8 -41c40.667 0 87.167 5 139.5 15s102.666 26 150.999 48s90.166 51 125.499 87s57.666 77.333 66.999 124c2.66699 16 4 27 4 33c0 36 -13.333 65.667 -40 89
s-60.167 40.166 -100.5 50.499s-81.5 15.5 -123.5 15.5c-111.333 0 -212.666 -17.333 -303.999 -52s-147.666 -101.667 -168.999 -201l-125 -586l-135 -635h168l117 551c23.333 40 61.833 79.833 115.5 119.5s110.334 71.667 170.001 96s109.834 36.5 150.501 36.5
c79.333 0 119 -54 119 -162c0 -49.333 -7.66699 -108.666 -23 -177.999c-9.33301 -44.667 -25.833 -99 -49.5 -163s-50.167 -120.167 -79.5 -168.5s-58.666 -77.833 -87.999 -88.5l-8 -43c49.333 0 102.5 26.333 159.5 79s107 116.5 150 191.5s72.167 145.833 87.5 212.5
c8 34.667 12 69.667 12 105c0 76.667 -21.667 138.834 -65 186.501s-111.666 71.5 -204.999 71.5z" />
    <glyph glyph-name="Y" unicode="Y" 
d="M858 1386c20 0 38.667 -1.50391 56 -4.50391s37.833 -7.16699 61.5 -12.5s48.667 -10.166 75 -14.499s46.833 -6.5 61.5 -6.5c88.667 0 172.667 40.667 252 122l10 41c-48 -31.333 -90.833 -53.5 -128.5 -66.5s-72.5 -19.5 -104.5 -19.5c-20.667 0 -45 2.83301 -73 8.5
s-52.667 11.334 -74 17.001s-41.833 10.334 -61.5 14.001s-39.167 5.5 -58.5 5.5c-51.333 0 -105.5 -9.33301 -162.5 -28s-110.333 -44.667 -160 -78s-92 -73.166 -127 -119.499s-58.5 -97.166 -70.5 -152.499l-135 -633c-9.33301 -42 -14 -85 -14 -129
c0 -100.667 31 -181.5 93 -242.5s158.667 -91.5 290 -91.5c99.333 0 187.5 18.167 264.5 54.5s140 86.666 189 150.999s81.5 135.833 97.5 214.5c8 36.667 12 71.334 12 104.001c0 97.333 -32.667 175.333 -98 234s-160.333 88 -285 88c-114 0 -219.667 -28 -317 -84l71 334
c10 47.333 32.833 93.666 68.5 138.999s78 82.5 127 111.5s95.833 43.5 140.5 43.5zM758 798.996c126.667 0 190.003 -71 190.003 -213c0 -53.333 -6.66699 -110 -20 -170c-12.667 -62.667 -30.334 -121.667 -53.001 -177s-56.834 -102.5 -102.501 -141.5
s-104.5 -58.5 -176.5 -58.5c-77.333 0 -133.833 27.5 -169.5 82.5s-53.5 123.833 -53.5 206.5c0 37.333 4.66699 81 14 131c11.333 52.667 36.166 105.5 74.499 158.5s83.833 96.5 136.5 130.5s106 51 160 51z" />
    <glyph glyph-name="Z" unicode="Z" horiz-adv-x="1071" 
d="M631 1092c18 0 35.834 -8.99902 53.501 -26.999s29.167 -37 34.5 -57l-12 -64l-15 -61c-4.66699 -24.667 -20.834 -44.834 -48.501 -60.501s-53.167 -23.5 -76.5 -23.5c-53.333 0 -80 29.333 -80 88c0 14 3 33 9 57c9.33301 48.667 23.333 85.5 42 110.5
s49.667 37.5 93 37.5zM684.001 842.001l-13.999 -66.002c-2.66699 -13.333 -4 -22.666 -4 -27.999c0 -30 8.5 -51.5 25.5 -64.5s49 -31.333 96 -55s82.5 -49.5 106.5 -77.5s36 -67.667 36 -119c0 -18.667 -3.33301 -45.334 -10 -80.001c-8 -35.333 -23.833 -72 -47.5 -110
s-52.5 -72.333 -86.5 -103s-71.167 -55 -111.5 -73s-80.833 -27 -121.5 -27c-68 0 -118.5 19.667 -151.5 59s-49.5 88 -49.5 146c0 22.667 2 45 6 67c31.333 126 73 189 125 189l11 47c-41.333 0 -84.333 -12.333 -129 -37s-83.334 -57 -116.001 -97
s-53.667 -80.667 -63 -122c-4 -18.667 -6 -36.334 -6 -53.001c0 -55.333 19.333 -101.166 58 -137.499s87.667 -62.833 147 -79.5s119.333 -25 180 -25c86 0 166 14.333 240 43s135.5 70 184.5 124s81.5 117 97.5 189c6 24.667 9 51.334 9 80.001
c0 49.333 -11 88.5 -33 117.5s-56.333 58 -103 87s-78 50.5 -94 64.5s-24 36.333 -24 67c0 6 1.33301 16.333 4 31l18 84l250 -209l19 84l-254 186l333 189l19 84l-340 -209l33 147c6.66699 34.667 10 62.667 10 84c0 48.667 -13.833 85.334 -41.5 110.001
s-72.5 37 -134.5 37c-101.333 0 -152 28 -152 84h-168c0 -46 19.667 -78.667 59 -98s81.333 -29 126 -29c50 0 86 -7.66699 108 -23s33 -41 33 -77c0 -21.333 -2.66699 -43.666 -8 -66.999l-29 -127c-15.333 34.667 -35.5 57.334 -60.5 68.001s-54.5 16 -88.5 16
c-46.667 0 -90.334 -18.5 -131.001 -55.5s-66 -81.5 -76 -133.5c-4 -16 -6 -33 -6 -51c0 -38.667 10.5 -70.834 31.5 -96.501s54.833 -38.5 101.5 -38.5c32.667 0 67.334 6.66699 104.001 20s64 34.666 82 63.999z" />
    <glyph glyph-name="bracketleft" unicode="[" horiz-adv-x="1163" 
d="M797 674c11.333 26 49.667 53.3281 115 81.9951s119.666 43 162.999 43l10 43c-50.667 0 -102 -8.16699 -154 -24.5s-104.167 -40.166 -156.5 -71.499s-105.166 -69.666 -158.499 -114.999l144 669c0 31.333 -8.5 53.5 -25.5 66.5s-44.833 19.5 -83.5 19.5
c-32.667 0 -70.667 -8.83301 -114 -26.5s-81.833 -39.667 -115.5 -66s-53.5 -51.833 -59.5 -76.5h44c9.33301 18.667 30.166 37.667 62.499 57s60.5 29 84.5 29c19.333 0 29 -14.333 29 -43l-197 -928c-6.66699 -32 -10 -60 -10 -84c0 -49.333 11.333 -93.166 34 -131.499
s57.834 -68 105.501 -89s107.5 -31.5 179.5 -31.5c128 0 229.833 30.833 305.5 92.5s124.167 142.834 145.5 243.501c5.33301 32 8 55.667 8 71c0 48.667 -9.83301 93.834 -29.5 135.501s-48.5 74.667 -86.5 99s-83.333 36.5 -136 36.5h-104zM829.001 630.995
c112 0 168.001 -52.6699 168.001 -158.003c0 -22 -6.66699 -69 -20 -141c-13.333 -57.333 -27.833 -105.666 -43.5 -144.999s-41.834 -73.833 -78.501 -103.5s-87.667 -44.5 -153 -44.5c-113.333 0 -170 51.333 -170 154c0 32.667 7 79 21 139
c11.333 54.667 25.166 102.834 41.499 144.501s43.333 77.834 81 108.501s88.834 46 153.501 46z" />
    <glyph glyph-name="backslash" unicode="\" horiz-adv-x="1749" 
d="M870 1300c-4 10 -5.99707 23.0029 -5.99707 39.0029c5.33301 26 25.666 47.167 60.999 63.5s82.666 24.5 141.999 24.5l8 43h-678l-8 -43c33.333 0 60.166 -4.5 80.499 -13.5s43.5 -32.5 69.5 -70.5l342 -608l-594 -571c-41.333 -41.333 -76.333 -72.5 -105 -93.5
s-58.667 -31.5 -90 -31.5l-8 -43h229h238l8 43c-41.333 0 -79.333 3.66699 -114 11s-52 22.666 -52 45.999c2.66699 11.333 7 20.333 13 27l524 516l221 -391c22 -29.333 33 -65 33 -107c-6.66699 -30.667 -29.334 -55.334 -68.001 -74.001s-84.334 -28 -137.001 -28l-8 -43
h676l8 43c-59.333 0 -105.666 15.667 -138.999 47s-65.666 85.333 -96.999 162l-301 575l568 563c14.667 27.333 87.667 41 219 41l8 43h-273h-272l-8 -43c109.333 0 164 -18.333 164 -55c-2 -8.66699 -7.66699 -18.334 -17 -29.001l-438 -428z" />
    <glyph glyph-name="bracketright" unicode="]" horiz-adv-x="1520" 
d="M676 588l84.002 -327.996l-559 -305l-8 -43c88.667 0 161 -8.83301 217 -26.5s84 -61.5 84 -131.5c0 -16.667 -2.33301 -34.334 -7 -53.001c-10 -48.667 -34.167 -87.834 -72.5 -117.501s-81.5 -50.667 -129.5 -63s-96.833 -20.166 -146.5 -23.499s-104.167 -5 -163.5 -5
l-10 -47c169.333 0 313.666 14.833 432.999 44.5s190.666 100.167 213.999 211.5c4 20 6 38.333 6 55c0 67.333 -27.833 115.5 -83.5 144.5s-125.167 45.833 -208.5 50.5l456 248l111 -371c19.333 -67.333 50.5 -119.333 93.5 -156s93.833 -55 152.5 -55
c50.667 0 93.667 8.5 129 25.5s62.333 39 81 66s32.667 59.167 42 96.5c2.66699 17.333 4 29.666 4 36.999c0 32.667 -7.16699 64.167 -21.5 94.5s-33.833 55 -58.5 74s-53.334 28.5 -86.001 28.5l-8 -43c30.667 0 53.334 -14.5 68.001 -43.5s22 -62.167 22 -99.5
c0 -12 -1.33301 -28 -4 -48c-6.66699 -32 -24.834 -64.167 -54.501 -96.5s-59.5 -48.5 -89.5 -48.5c-22 0 -40.167 11.667 -54.5 35s-28 57.666 -41 102.999s-23.5 83.333 -31.5 114l-112 371l460 249c45.333 30 78.166 55 98.499 75s34.333 38.5 42 55.5
s14.834 41.167 21.501 72.5c2.66699 20 4 33.667 4 41c0 71.333 -53 107 -159 107c-74 0 -134 -14.333 -180 -43s-75 -70.334 -87 -125.001h43c18 84.667 96 127 234 127c36 0 62.333 -8.5 79 -25.5s25 -44.167 25 -81.5c-5.33301 -26.667 -20.666 -51 -45.999 -73
s-63 -46.667 -113 -74l-437 -244l-90 330c-19.333 66.667 -48.833 118.167 -88.5 154.5s-94.167 54.5 -163.5 54.5c-42.667 0 -85.167 -8.66699 -127.5 -26s-78.833 -43 -109.5 -77s-52 -77 -64 -129c-5.33301 -29.333 -8 -52.333 -8 -69
c0 -47.333 13.167 -86.833 39.5 -118.5s68.5 -47.5 126.5 -47.5l10 43c-16.667 0 -29 13.5 -37 40.5s-12 56.5 -12 88.5c0 26 2 47 6 63c11.333 48 29.166 91.833 53.499 131.5s55.166 59.5 92.499 59.5c34.667 0 57.834 -13.5 69.501 -40.5s34.834 -98.167 69.501 -213.5z
" />
    <glyph glyph-name="asciicircum" unicode="^" horiz-adv-x="467" 
d="M387 39c5.33301 21.333 8.00391 46 8.00391 74c0 90 -43.667 135 -131 135c-84 0 -135 -41.667 -153 -125c-3.33301 -23.333 -5 -36.333 -5 -39c0 -58.667 35 -88 105 -88h84c-14.667 -68.667 -46.334 -133.667 -95.001 -195s-111.334 -108.333 -188.001 -141l-10 -43
c60 15.333 117.167 44.833 171.5 88.5s100.166 95.167 137.499 154.5s62.666 119 75.999 179z" />
    <glyph glyph-name="underscore" unicode="_" horiz-adv-x="2105" 
d="M12 61h2110l-13 -61h-2109z" />
    <glyph glyph-name="grave" unicode="`" horiz-adv-x="977" 
d="M487 1200c10.667 46.667 27.334 85.1719 50.001 115.505s49 52.166 79 65.499s61.667 20 95 20c57.333 0 100.666 -20.333 129.999 -61s44 -90 44 -148c0 -17.333 -2.66699 -41.333 -8 -72c-11.333 -54 -32.5 -107.333 -63.5 -160s-76.167 -120 -135.5 -202
s-104.5 -149 -135.5 -201s-52.833 -106 -65.5 -162h39c14 65.333 44.667 123.166 92 173.499s116 110.666 206 180.999s158.833 130.666 206.5 180.999s78.167 106.833 91.5 169.5c4 20 6 39 6 57c0 44 -10 83.333 -30 118s-46.667 64.167 -80 88.5
s-71.5 43.166 -114.5 56.499s-87.5 20 -133.5 20c-70 0 -133.333 -13.167 -190 -39.5s-103.5 -62.333 -140.5 -108s-61.5 -96.167 -73.5 -151.5c-6.66699 -35.333 -10 -57.333 -10 -66c0 -50.667 26.667 -76 80 -76c27.333 0 53 10.333 77 31s38.667 44 44 70
c2.66699 10.667 4 20.667 4 30c0 20 -4.83301 36.667 -14.5 50s-26.167 20 -49.5 20zM336 117.005c-2.66699 -20 -4 -32.332 -4 -36.999c0 -56 33.333 -84 100 -84c82 0 132 40.333 150 121c2.66699 9.33301 4 21.666 4 36.999c0 54.667 -34.333 82 -103 82
c-80 0 -129 -39.667 -147 -119z" />
    <glyph glyph-name="a" unicode="a" horiz-adv-x="1407" 
d="M1124 225c84 22 151.673 60.0059 203.006 114.006s85.666 123.333 102.999 208c5.33301 23.333 8 49.333 8 78c0 67.333 -22.833 120.333 -68.5 159s-117.167 58 -214.5 58c-36 0 -71.333 -3.33301 -106 -10s-68.5 -16.334 -101.5 -29.001s-60.833 -27.667 -83.5 -45
c-24.667 25.333 -56.334 45.666 -95.001 60.999s-79.334 23 -122.001 23c-72 -2 -136 -15.833 -192 -41.5s-101.333 -60.334 -136 -104.001s-58.334 -93.5 -71.001 -149.5c-5.33301 -30.667 -8 -53.334 -8 -68.001c0 -68.667 24.333 -124.334 73 -167.001
s117.667 -64 207 -64c112 0 202.833 27.5 272.5 82.5s113.5 127.167 131.5 216.5c2.66699 9.33301 4 24.333 4 45c-2.66699 36.667 -8.33398 66 -17.001 88c-4 8 -6 15.333 -6 22c6.66699 25.333 38 47.833 94 67.5s104.667 29.5 146 29.5c87.333 0 131 -45.667 131 -137
c0 -30.667 -7 -78 -21 -142c-16.667 -80 -47.334 -145.333 -92.001 -196s-117.667 -76 -219 -76l-8 -41c138 0 207 -55.333 207 -166c0 -24.667 -7.66699 -75.334 -23 -152.001c-16.667 -76.667 -35 -141.5 -55 -194.5s-54.5 -100 -103.5 -141s-114.833 -61.5 -197.5 -61.5
c-84.667 0 -143.667 15.333 -177 46s-50 72.667 -50 126c0 34 6.66699 81 20 141c13.333 68 31.166 130.833 53.499 188.5s51.5 86.5 87.5 86.5l11 43c-52.667 0 -102.167 -17.5 -148.5 -52.5s-85.166 -78.667 -116.499 -131s-52.333 -103.833 -63 -154.5
c-5.33301 -24 -8 -49.333 -8 -76c0 -54.667 15 -102 45 -142s74 -70.333 132 -91s126 -31 204 -31c93.333 0 170.833 10 232.5 30s112.167 48.5 151.5 85.5s69.833 79.167 91.5 126.5s38.5 101 50.5 161c10.667 48 16 94.667 16 140c0 128 -57.333 207 -172 237z
M637.006 799.006c90 -4.66699 135.002 -49.667 135.002 -135c0 -31.333 -5.33301 -70.333 -16 -117c-12.667 -55.333 -25.167 -98.833 -37.5 -130.5s-34 -60.5 -65 -86.5s-72.833 -39 -125.5 -39c-87.333 0 -131 43 -131 129c0 22.667 6.33301 65 19 127
c15.333 74 37.666 134.5 66.999 181.5s80.666 70.5 153.999 70.5z" />
    <glyph glyph-name="b" unicode="b" horiz-adv-x="1026" 
d="M702 799c124.667 0 187.001 -59.334 187.001 -178.001c0 -23.333 -2.66699 -51.5 -8 -84.5s-10.333 -58.833 -15 -77.5c-10 -48 -28.333 -104.667 -55 -170s-55.5 -123.333 -86.5 -174s-56.167 -76 -75.5 -76l-8 -43c50 0 102.667 24.833 158 74.5
s104.666 110.5 147.999 182.5s72.333 140.667 87 206c8.66699 42 13 79.333 13 112c0 84 -26.667 150.167 -80 198.5s-138 72.5 -254 72.5c-139.333 0 -248.333 -34.833 -327 -104.5s-130.334 -162.5 -155.001 -278.5c-6.66699 -36.667 -10 -71 -10 -103
c0 -91.333 19.333 -174.166 58 -248.499s88.334 -111.5 149.001 -111.5l8 43c-18.667 0 -32.167 21.5 -40.5 64.5s-12.5 95.167 -12.5 156.5c0 80.667 5.33301 147 16 199c15.333 68 31.333 124.167 48 168.5s45.667 84 87 119s97.333 52.5 168 52.5z" />
    <glyph glyph-name="c" unicode="c" horiz-adv-x="1206" 
d="M1038 715c6.66699 28 26.6689 56.1729 60.002 84.5059s64.666 42.5 93.999 42.5l8 41c-51.333 0 -102.333 -15.333 -153 -46s-81.667 -71.334 -93 -122.001c-2.66699 -17.333 -4 -27.666 -4 -30.999c0 -18 7.5 -42.833 22.5 -74.5s25.333 -55.667 31 -72
s8.5 -43.166 8.5 -80.499c0 -38.667 -6.33301 -87.334 -19 -146.001c-10.667 -52.667 -23.667 -97.834 -39 -135.501s-41.166 -69.834 -77.499 -96.501s-86.833 -40 -151.5 -40c-113.333 0 -170 51.333 -170 154c0 35.333 6.66699 81.666 20 138.999l207 968
c0 32 -8.33301 54.333 -25 67s-44.334 19 -83.001 19c-50 0 -108.667 -18.833 -176 -56.5s-105 -75.167 -113 -112.5h41c10.667 18.667 32 37.667 64 57s59.667 29 83 29c19.333 0 29 -14.333 29 -43l-196 -928c-7.33301 -32.667 -11 -61.334 -11 -86.001
c0 -77.333 26.667 -138.333 80 -183s134 -67 242 -67c126 0 227.167 31 303.5 93s125.166 143 146.499 243c8.66699 37.333 13 70.666 13 99.999c0 39.333 -6.16699 71.166 -18.5 95.499s-31.833 49.5 -58.5 75.5s-44.167 44.667 -52.5 56s-12.5 30 -12.5 56z" />
    <glyph glyph-name="d" unicode="d" horiz-adv-x="983" 
d="M268 -172c35.333 165.333 81.3291 249.335 137.996 252.002l10 43c-50.667 0 -99 -17.5 -145 -52.5s-84.833 -79.333 -116.5 -133s-52.5 -104.5 -62.5 -152.5c-5.33301 -22 -8 -45.333 -8 -70c0 -52.667 12.667 -99.167 38 -139.5s61.833 -72.166 109.5 -95.499
s102.834 -35 165.501 -35c160 0 272.333 40 337 120s110.667 188 138 324c19.333 82.667 29 143.667 29 183c0 103.333 -52 168.666 -156 195.999c42.667 9.33301 81.834 23.666 117.501 42.999s65.834 45.5 90.501 78.5s43 76.5 55 130.5c5.33301 24 8 50.667 8 80
c0 73.333 -25.167 132 -75.5 176s-124.833 66 -223.5 66c-39.333 0 -81 -6.33301 -125 -19s-86.5 -30.834 -127.5 -54.501s-76.333 -52.667 -106 -87s-49.5 -72.5 -59.5 -114.5c-2.66699 -16 -4 -29 -4 -39c0 -30.667 6.5 -57 19.5 -79s32.5 -33 58.5 -33
c69.333 0 111.666 34.667 126.999 104c2.66699 13.333 4 22.333 4 27c0 27.333 -11 41 -33 41c14 57.333 41.5 106.833 82.5 148.5s92.167 62.5 153.5 62.5c50 0 86.333 -17.833 109 -53.5s34 -80.834 34 -135.501c0 -28 -3.33301 -58 -10 -90
c-13.333 -67.333 -37.833 -122.333 -73.5 -165s-98.5 -64 -188.5 -64l-9 -43c62.667 0 106.334 -10.667 131.001 -32s37 -57 37 -107c0 -47.333 -10.667 -120.666 -32 -219.999c-22 -111.333 -53.667 -205.333 -95 -282s-108.666 -115 -201.999 -115
c-53.333 0 -92 20.833 -116 62.5s-36 93.167 -36 154.5c0 44 4 83.667 12 119z" />
    <glyph glyph-name="e" unicode="e" horiz-adv-x="1339" 
d="M754 799c35.333 0 53.001 -25.333 53.001 -76c0 -17.333 -4 -48 -12 -92c-12.667 -55.333 -27 -97.833 -43 -127.5s-39.333 -44.5 -70 -44.5l-10 -43h293l10 43c-40 0 -60 26.667 -60 80c0 25.333 4.33301 56 13 92c10.667 50 26.667 90.5 48 121.5s59.333 46.5 114 46.5
c66.667 0 100 -30.667 100 -92c0 -14 -3.33301 -39.333 -10 -76l-90 -424l-89 -406c-17.333 -82.667 -52 -154.834 -104 -216.501s-123 -92.5 -213 -92.5c-135.333 0 -203 67.667 -203 203c0 35.333 5 72 15 110c13.333 68 31.333 130.833 54 188.5s53 86.5 91 86.5l10 43
c-40 0 -77.833 -10 -113.5 -30s-68.667 -47.667 -99 -83s-54.833 -71.833 -73.5 -109.5s-32.334 -76.167 -41.001 -115.5c-7.33301 -30.667 -11 -58 -11 -82c0 -53.333 13.833 -99.166 41.5 -137.499s68.5 -67.833 122.5 -88.5s119.667 -31.334 197 -32.001
c86 0 163.833 14.5 233.5 43.5s127.167 70.167 172.5 123.5s75.666 116.333 90.999 189l82 383l97 447c4 18 6 35.667 6 53c0 51.333 -19 90.5 -57 117.5s-97 40.5 -177 40.5c-100 0 -175.667 -24.667 -227 -74c-12.667 22 -31.5 39.833 -56.5 53.5s-49.833 20.5 -74.5 20.5
c-40.667 0 -75.5 -10.833 -104.5 -32.5s-62 -55.334 -99 -101.001s-64.667 -77.167 -83 -94.5s-40.833 -26 -67.5 -26c-40 0 -60 26 -60 78c0 28 4 58.667 12 92c10 42.667 29.667 74.167 59 94.5s60.333 30.5 93 30.5l10 43c-62 0 -115.167 -12.833 -159.5 -38.5
s-74.5 -76.5 -90.5 -152.5c-4 -14 -6 -29 -6 -45c0 -38.667 11.167 -72.167 33.5 -100.5s55.5 -42.5 99.5 -42.5c40.667 0 75 10.833 103 32.5s57.833 53.834 89.5 96.501s58.334 73.834 80.001 93.501s48.5 29.5 80.5 29.5z" />
    <glyph glyph-name="f" unicode="f" horiz-adv-x="983" 
d="M545 926c-10 -44.667 -15.001 -84.3369 -15.001 -119.004c0 -69.333 15.333 -124.666 46 -165.999s76 -80.666 136 -117.999s102.833 -67.333 128.5 -90s38.5 -55.667 38.5 -99c0 -18 -1.66699 -32.333 -5 -43c-10 -47.333 -33.833 -90 -71.5 -128
s-82.5 -68.167 -134.5 -90.5s-100 -33.5 -144 -33.5c-53.333 0 -102.166 17.5 -146.499 52.5s-66.5 76.833 -66.5 125.5c0 7.33301 1.33301 17.666 4 30.999c4 23.333 12.167 49.833 24.5 79.5s27.5 45.5 45.5 47.5l8 41c-50.667 0 -93 -8.5 -127 -25.5
s-57.667 -57.833 -71 -122.5c-3.33301 -10.667 -5 -25.667 -5 -45c0 -48 16.5 -89.167 49.5 -123.5s74.667 -60.166 125 -77.499s100.833 -26 151.5 -26c62.667 0 126.5 13.833 191.5 41.5s120.667 65.667 167 114s75.833 101.5 88.5 159.5c5.33301 26 8 52 8 78
c0 64 -17 115.333 -51 154s-84 78.834 -150 120.501s-113.5 76.334 -142.5 104.001s-43.5 65.5 -43.5 113.5c0 18.667 1.33301 33.667 4 45h-43z" />
    <glyph glyph-name="g" unicode="g" horiz-adv-x="1004" 
d="M416 332c2.66699 16 4.00195 26.999 4.00195 32.999c0 34 -16.333 51 -49 51c-54 -2 -94.5 -14.167 -121.5 -36.5s-44.5 -51.833 -52.5 -88.5c-4.66699 -22 -7 -39.667 -7 -53c0 -70.667 29.167 -128.667 87.5 -174s130.5 -68 216.5 -68
c144.667 0 254.5 31.833 329.5 95.5s124.167 150.5 147.5 260.5c9.33301 40 14 81.667 14 125c0 56 -13.833 102.667 -41.5 140s-75.167 63.666 -142.5 78.999c78 18.667 142.833 45.334 194.5 80.001s84.5 84.667 98.5 150c4 18 6 34.333 6 49
c0 53.333 -18 93.833 -54 121.5s-89.833 55 -161.5 82s-123.667 51.333 -156 73s-48.5 54.5 -48.5 98.5c0 5.33301 1.33301 17.333 4 36h-43c-5.33301 -21.333 -8 -43 -8 -65c0 -53.333 14.667 -94.666 44 -123.999s72.666 -57.5 129.999 -84.5s99.333 -50.167 126 -69.5
s40 -48.333 40 -87c0 -4 -1.33301 -14 -4 -30c-10.667 -45.333 -35 -84 -73 -116s-81.5 -55.833 -130.5 -71.5s-95.833 -23.5 -140.5 -23.5l-11 -41c48 0 86.833 -9.83301 116.5 -29.5s50.834 -45.834 63.501 -78.501s19 -69 19 -109c0 -33.333 -3.33301 -68.333 -10 -105
c-10.667 -47.333 -30.5 -95.5 -59.5 -144.5s-64.333 -89.333 -106 -121s-86.834 -47.5 -135.501 -47.5c-42.667 0 -78.334 16.833 -107.001 50.5s-43 72.834 -43 117.501c0 7.33301 1.33301 21 4 41c28 0 48 28 60 84z" />
    <glyph glyph-name="h" unicode="h" horiz-adv-x="1407" 
d="M1315 1386c-19.333 -91.333 -65.668 -157.835 -139.001 -199.502s-193.5 -94.334 -360.5 -158.001s-298 -134.5 -393 -212.5s-158.167 -190.333 -189.5 -337c-8 -38.667 -12 -81.667 -12 -129c0 -58 7.33301 -114.333 22 -169s37.5 -99.167 68.5 -133.5
s69.167 -51.5 114.5 -51.5l8 43c-39.333 0 -59 60 -59 180c0 92.667 8.66699 179.334 26 260.001c10.667 52 23.834 101.333 39.501 148s39.334 87 71.001 121s73.5 51 125.5 51c44 0 75.5 -17.167 94.5 -51.5s28.5 -77.5 28.5 -129.5c0 -33.333 -3.33301 -66 -10 -98
c-17.333 -69.333 -38.666 -104 -63.999 -104l-8 -41h252l8 41c-18 0 -27 15.667 -27 47c0 22.667 2.33301 41.667 7 57c13.333 64.667 40.333 127.334 81 188.001s89.334 91 146.001 91c80.667 0 121 -55.333 121 -166c0 -45.333 -6.33301 -96.666 -19 -153.999
c-8 -36.667 -20 -78.167 -36 -124.5s-35.833 -95.166 -59.5 -146.499s-46.334 -92.333 -68.001 -123s-40.834 -46 -57.501 -46l-8 -43c54 0 109.167 26.167 165.5 78.5s105.166 116.166 146.499 191.499s69.666 146.333 84.999 213c10 48.667 15 92.334 15 131.001
c0 154.667 -84 232 -252 232c-98 0 -197 -39.667 -297 -119c-20.667 36 -49.667 64.833 -87 86.5s-78.666 32.5 -123.999 32.5h-64c28 27.333 99.167 56.5 213.5 87.5s194.5 54.667 240.5 71s100.5 55.666 163.5 117.999s107.167 151.5 132.5 267.5h-41z" />
    <glyph glyph-name="i" unicode="i" horiz-adv-x="1339" 
d="M1202 715c-54 28.667 -121.002 43.001 -201.002 43.001c-142 0 -248.333 -34.333 -319 -103s-119 -162 -145 -280c-8.66699 -39.333 -13 -78.333 -13 -117c0 -80.667 24.5 -144.5 73.5 -191.5s129.833 -70.5 242.5 -70.5c143.333 0 249.5 34.167 318.5 102.5
s115.5 160.5 139.5 276.5l172 801c3.33301 10.667 5 25.667 5 45c0 51.333 -20 91.666 -60 120.999s-97.333 44 -172 44c-40 0 -85.167 -10.167 -135.5 -30.5s-95.166 -46.166 -134.499 -77.499c-19.333 20.667 -35.166 37 -47.499 49s-25.333 22 -39 30
s-33.5 14.833 -59.5 20.5s-57.333 8.5 -94 8.5c-48 0 -98.833 -10.333 -152.5 -31s-100.667 -50 -141 -88s-66.166 -82.667 -77.499 -134c-2.66699 -20 -4 -33.667 -4 -41c0 -45.333 15.5 -84.333 46.5 -117s72.167 -49 123.5 -49l9 39c-16.667 0 -25 16.333 -25 49
c0 30 3.33301 56 10 78c8 34 20.5 70 37.5 108s39.667 71.333 68 100s60.166 43 95.499 43c44 0 79.5 -18.667 106.5 -56s40.5 -80 40.5 -128c0 -20.667 -1.33301 -35.667 -4 -45c-4.66699 -24 -12 -47.667 -22 -71s-23.667 -35 -41 -35l-8 -43h125h127l8 43
c-18 0 -27 15.667 -27 47c0 19.333 2 39 6 59c7.33301 29.333 20 61.666 38 96.999s41 66.166 69 92.499s58.667 39.5 92 39.5c50.667 -2 76 -35.333 76 -100c0 -23.333 -3 -45.666 -9 -66.999zM847.998 39.001c-109.333 0 -163.996 55.999 -163.996 167.999
c0 34.667 8.33301 90.667 25 168c21.333 100.667 51.166 182.5 89.499 245.5s103.166 94.5 194.499 94.5c106.667 0 160 -56 160 -168c0 -37.333 -8.33301 -94.666 -25 -171.999c-13.333 -62.667 -28.333 -117 -45 -163s-44.334 -86.333 -83.001 -121
s-89.334 -52 -152.001 -52z" />
    <glyph glyph-name="j" unicode="j" horiz-adv-x="1407" 
d="M881 735c-9.33301 22 -25.668 41.002 -49.001 57.002s-52 28.333 -86 37s-73.667 13 -119 13c-122 -2.66699 -212.167 -37.5 -270.5 -104.5s-99.5 -153.167 -123.5 -258.5c-8 -38.667 -12 -80.334 -12 -125.001c0 -60.667 7.66699 -118.334 23 -173.001
s38.833 -99.167 70.5 -133.5s68.834 -51.5 111.501 -51.5l8 43c-36.667 0 -55 67.667 -55 203c0 86 7.33301 165 22 237c13.333 62.667 28 115.5 44 158.5s43.167 80.667 81.5 113s89.5 48.5 153.5 48.5c58.667 -11.333 88 -59.333 88 -144c0 -31.333 -6 -76.333 -18 -135
c-17.333 -69.333 -38.666 -104 -63.999 -104l-8 -41h125h127l8 41c-18 0 -27 15.667 -27 47c0 22.667 2.33301 41.667 7 57c10.667 47.333 22 88 34 122s30.333 66.333 55 97s57 50.667 97 60c108 -5.33301 162 -65.666 162 -180.999c0 -24.667 -6.33301 -71 -19 -139
c-8.66699 -42.667 -26.667 -100.667 -54 -174s-56.666 -136 -87.999 -188s-57.666 -78 -78.999 -78l-8 -43c54 0 109.167 26.167 165.5 78.5s105.166 116.166 146.499 191.499s69.666 146.333 84.999 213c11.333 48.667 17 91.667 17 129
c0 152.667 -84.667 230.667 -254 234c-64 0 -122.833 -9.33301 -176.5 -28s-93.834 -45 -120.501 -79z" />
    <glyph glyph-name="k" unicode="k" horiz-adv-x="1903" 
d="M1364 758c-20.667 28 -52.501 49 -95.501 63s-82.167 21 -117.5 21c-30 0 -72 -8.5 -126 -25.5s-95.333 -36.5 -124 -58.5c-36 36.667 -72.5 59.834 -109.5 69.501s-79.5 14.5 -127.5 14.5c-112 0 -209.667 -30.333 -293 -91s-139.333 -158 -168 -292
c-11.333 -58 -17 -105.333 -17 -142c0 -62 11 -116.333 33 -163s54.667 -89 98 -127c-57.333 -33.333 -105 -67.333 -143 -102s-67.333 -70.167 -88 -106.5s-35.667 -75.5 -45 -117.5h168c10 47.333 28.667 91 56 131s71.333 83 132 129
c68.667 -37.333 158.834 -72 270.501 -104l347.5 -100c120 -34.667 221.667 -76 305 -124s145.666 -110.667 186.999 -188h41c-15.333 156 -76.333 268.167 -183 336.5s-256.167 125.166 -448.5 170.499s-333.5 91.833 -423.5 139.5s-135 132.5 -135 254.5
c0 36 4.33301 73.667 13 113c11.333 55.333 29.333 108.833 54 160.5s56.5 94.5 95.5 128.5s83.167 51 132.5 51c44 0 76.833 -12.667 98.5 -38s32.5 -62 32.5 -110c0 -30 -4 -64.667 -12 -104c-22.667 -114.667 -63 -172 -121 -172l-8 -43h293l8 43
c-40.667 0 -61 26 -61 78c0 26 2.66699 48.333 8 67c16.667 71.333 47.167 135.666 91.5 192.999s97.166 86 158.499 86c48 0 83.167 -17.833 105.5 -53.5s33.5 -80.834 33.5 -135.501c0 -28 -3.33301 -58 -10 -90c-20.667 -96.667 -59 -145 -115 -145l-8 -43h295l8 43
c-39.333 0 -59 26 -59 78c0 26.667 4 58 12 94c14 66 38.167 124.5 72.5 175.5s83.833 76.5 148.5 76.5c80.667 0 121 -57.333 121 -172c0 -41.333 -5.33301 -90.666 -16 -147.999c-9.33301 -41.333 -23.666 -90.166 -42.999 -146.499s-37.333 -84.5 -54 -84.5l-8 -41
c78 30 141 73.5 189 130.5s78.667 117.833 92 182.5c5.33301 30.667 8 53.334 8 68.001c0 48 -11.167 91.167 -33.5 129.5s-54.166 68.666 -95.499 90.999s-91.333 33.5 -150 33.5c-90 -4.66699 -180 -32.667 -270 -84z" />
    <glyph glyph-name="l" unicode="l" horiz-adv-x="1450" 
d="M610 799c25.333 0 54.0029 -5.33594 86.0029 -16.0029s59.5 -25.167 82.5 -43.5s34.5 -38.166 34.5 -59.499c-2 -10.667 -10.333 -23 -25 -37c-36 -54 -60.333 -108.667 -73 -164c-5.33301 -29.333 -8 -51.666 -8 -66.999c0 -80 27.667 -148.167 83 -204.5
s124.333 -84.5 207 -84.5c60.667 0 122.334 16.667 185.001 50s116.167 77 160.5 131s73.5 112.333 87.5 175c5.33301 33.333 8 57.333 8 72c0 40.667 -7 78.667 -21 114s-33.833 66.333 -59.5 93s-56.334 47.334 -92.001 62.001s-73.834 22 -114.501 22
c-78 0 -161.333 -29.333 -250 -88c-28 27.333 -57.667 47.333 -89 60s-61.333 20.5 -90 23.5s-62.334 4.5 -101.001 4.5c-81.333 0 -151.666 -20.833 -210.999 -62.5s-106.333 -94.334 -141 -158.001s-60 -132.167 -76 -205.5c-8.66699 -37.333 -13 -73.666 -13 -108.999
c0 -112.667 46.333 -212.334 139 -299.001c-82 -28 -145 -68.833 -189 -122.5s-73.667 -115.167 -89 -184.5h125c6.66699 32.667 24.334 65.334 53.001 98.001s61.5 60 98.5 82s70.5 33 100.5 33c16 0 29.667 -3.33301 41 -10c30.667 -18.667 88.167 -49.834 172.5 -93.501
s150.666 -81.167 198.999 -112.5s88.5 -68.166 120.5 -110.499s48 -89.833 48 -142.5h41c8.66699 37.333 13 73.666 13 108.999c0 97.333 -28.833 170.833 -86.5 220.5s-144.5 101 -260.5 154s-203.333 107 -262 162s-88 134.833 -88 239.5c0 43.333 5 86.333 15 129
c14.667 66.667 29.167 121.834 43.5 165.501s37.666 83.667 69.999 120s74.166 54.5 125.499 54.5zM1006 163.997c-97.333 0 -146 52.667 -146 158c0 42 7.66699 94.333 23 157c18.667 91.333 45.667 167.5 81 228.5s94.333 91.5 177 91.5c95.333 0 143 -52.667 143 -158
c0 -39.333 -7.33301 -93.333 -22 -162c-19.333 -90 -46.333 -165 -81 -225s-93 -90 -175 -90z" />
    <glyph glyph-name="m" unicode="m" horiz-adv-x="1004" 
d="M672 631c30.667 0 62.0039 -7.66797 94.0039 -23.001s58.667 -35.666 80 -60.999l-162 -762c-15.333 -69.333 -48.333 -135.5 -99 -198.5s-109.667 -94.5 -177 -94.5c-50 0 -87.833 21.5 -113.5 64.5s-39.167 95.167 -40.5 156.5c0 30 3.33301 60.667 10 92
c12.667 58 32.167 118.333 58.5 181s54.166 94 83.499 94l10 43c-50.667 0 -99 -17.5 -145 -52.5s-84.833 -79.333 -116.5 -133s-52.5 -104.5 -62.5 -152.5c-5.33301 -22 -8 -45.333 -8 -70c0 -78 28.667 -142.5 86 -193.5s133 -76.5 227 -76.5
c123.333 0 224.666 31.833 303.999 95.5s129.666 145.167 150.999 244.5l369 1726h-84l-293 -168h47l135 43l-172 -798c-46 57.333 -132 86 -258 86c-28 0 -58.167 -6.5 -90.5 -19.5s-60.833 -31 -85.5 -54s-40.334 -49.833 -47.001 -80.5c0 -69.333 28 -104 84 -104
c44 0 68.333 14.333 73 43c0 27.333 -11.333 41 -34 41c12 56.667 33.167 92.667 63.5 108s67.833 23 112.5 23z" />
    <glyph glyph-name="n" unicode="n" horiz-adv-x="1407" 
d="M799 1049c18 84.667 78 127.001 180 127.001c82 0 123 -28.667 123 -86c0 -18 -1.33301 -31.667 -4 -41c-7.33301 -37.333 -24.333 -69.333 -51 -96s-64.334 -55 -113.001 -85c-28.667 16.667 -52.667 33.167 -72 49.5s-34.666 35.166 -45.999 56.499s-17 46.333 -17 75z
M872 831.001c-58 -34 -104.666 -68.666 -139.999 -103.999s-59.666 -81.666 -72.999 -138.999c-2.66699 -20 -4 -32.333 -4 -37c0 -43.333 17.833 -76.666 53.5 -99.999s85.5 -35 149.5 -35c95.333 0 161.666 14.333 198.999 43l8 41c-47.333 -27.333 -113 -41 -197 -41
c-83.333 0 -125 29.333 -125 88c0 17.333 1.66699 31 5 41c18.667 86.667 78.667 159.667 180 219c92 -44 164.5 -97.667 217.5 -161s79.5 -159.333 79.5 -288c0 -60 -9.66699 -138.333 -29 -235c-36 -170.667 -97 -318.5 -183 -443.5s-210.667 -187.5 -374 -187.5
c-214.667 0 -322 121.667 -322 365c0 68.667 12.333 163.334 37 284.001c14 60 28.833 116.167 44.5 168.5s35.334 108.666 59.001 168.999s47.667 111 72 152s49.166 69.167 74.499 84.5l8 43c-63.333 -25.333 -124.333 -71.333 -183 -138
s-109.334 -143.167 -152.001 -229.5s-73 -169.5 -91 -249.5c-13.333 -60 -20 -122 -20 -186c0 -94 16.333 -179.333 49 -256s83.667 -138 153 -184s156.333 -69.333 261 -70c129.333 0 244.833 32.333 346.5 97s185.5 148.667 251.5 252s111.667 213 137 329
c13.333 60 20 118 20 174c0 78 -12.5 147.5 -37.5 208.5s-57.333 113 -97 156s-81 78.167 -124 105.5s-89.833 52.333 -140.5 75c60.667 37.333 106.5 70.166 137.5 98.499s50.833 64.5 59.5 108.5c4 16 6 31 6 45c0 82 -67 123 -201 123
c-83.333 0 -146.5 -13.833 -189.5 -41.5s-70.5 -69.834 -82.5 -126.501c-2.66699 -17.333 -4 -29 -4 -35c0 -44.667 15.5 -81.834 46.5 -111.501s69.167 -53.5 114.5 -71.5z" />
    <glyph glyph-name="o" unicode="o" horiz-adv-x="1186" 
d="M526 631h494l-399 -887h-25zM535 1133c12 60 28.5 110.002 49.5 150.002s54.833 60 101.5 60c35.333 0 62.666 -14.667 81.999 -44s29 -63 29 -101c0 -10 -1.33301 -24.333 -4 -43c-6.66699 -25.333 -15.167 -49.333 -25.5 -72s-23.833 -34 -40.5 -34l-8 -41h213l8 41
c-18 0 -27 14.333 -27 43c0 20 3.66699 41 11 63c8.66699 44 31.167 86.333 67.5 127s75.833 61 118.5 61c50.667 0 76 -31.333 76 -94c0 -25.333 -5.66699 -64 -17 -116c-26.667 -138 -69 -207 -127 -207l-10 -43c42.667 0 86 11.833 130 35.5s82 54.667 114 93
s52.333 78.833 61 121.5c2.66699 10.667 4 26.334 4 47.001c0 36 -9 70.167 -27 102.5s-42 57.666 -72 75.999s-63.667 27.5 -101 27.5c-95.333 0 -179.333 -29.333 -252 -88c-25.333 27.333 -57 48.833 -95 64.5s-78 23.5 -120 23.5c-83.333 0 -152.833 -30.333 -208.5 -91
s-91.5 -128.334 -107.5 -203.001c-13.333 -66.667 -20 -130.334 -20 -191.001c0 -23.333 1.33301 -50.333 4 -81s6.33398 -62 11.001 -94s7 -48.667 7 -50l113 -1231h41l557 1229h-272h-279c-4 38.667 -6 92 -6 160c0 134 7 233.667 21 299z" />
    <glyph glyph-name="p" unicode="p" horiz-adv-x="1407" 
d="M903 659l85.998 407.999c2.66699 18.667 4 32.334 4 41.001c0 42.667 -13.333 82 -40 118s-61.667 64.5 -105 85.5s-89.666 31.5 -138.999 31.5c-100.667 -2 -180.167 -28.167 -238.5 -78.5s-96.5 -114.833 -114.5 -193.5c-5.33301 -29.333 -8 -51 -8 -65
c0 -61.333 20.167 -111.166 60.5 -149.499s101.5 -57.5 183.5 -57.5c60 0 120.667 15.667 182 47l-108 -514c-7.33301 -26.667 -11 -59.667 -11 -99c0 -81.333 24 -148 72 -200s119.667 -78 215 -78c58.667 0 112.834 10.167 162.501 30.5s93.5 48.333 131.5 84
s69 76.5 93 122.5s41 92.667 51 140c8.66699 39.333 13 76 13 110c0 97.333 -29.167 167.166 -87.5 209.499s-124.833 63.5 -199.5 63.5c-73.333 0 -141 -18.667 -203 -56zM699.998 1300c46 0 79.3311 -15 99.998 -45s31 -67.333 31 -112c0 -17.333 -2.66699 -41.333 -8 -72
c-13.333 -64 -36.166 -117.667 -68.499 -161s-83.166 -66 -152.499 -68c-87.333 0 -131 49 -131 147c0 24.667 3.33301 52 10 82c13.333 59.333 38.333 112.333 75 159s84.667 70 144 70zM1096 673.999c47.333 0 81.333 -18.5 102 -55.5s31 -84.833 31 -143.5
c0 -46 -5.66699 -93.667 -17 -143c-12 -50.667 -28.5 -101 -49.5 -151s-49.167 -93.333 -84.5 -130s-77.333 -55 -126 -55c-90 0 -135 64 -135 192c0 46.667 5.66699 94.667 17 144c10 48 25.5 98 46.5 150s49.833 97 86.5 135s79.667 57 129 57z" />
    <glyph glyph-name="q" unicode="q" horiz-adv-x="1475" 
d="M889 799c-18 26 -49.9941 46.4971 -95.9941 61.4971s-100.667 22.5 -164 22.5c-62.667 0 -118.334 -12.167 -167.001 -36.5s-90.5 -57.5 -125.5 -99.5s-62.833 -86.5 -83.5 -133.5s-37.334 -98.5 -50.001 -154.5c-10 -42.667 -15 -83 -15 -121
c0 -116 44.667 -214.333 134 -295c-71.333 -21.333 -130.833 -59.833 -178.5 -115.5s-79.167 -116.834 -94.5 -183.501h125c6.66699 30.667 21.667 64.167 45 100.5s50 66.5 80 90.5s59.333 36 88 36c16.667 0 33.667 -5.33301 51 -16c44 -27.333 110.833 -63 200.5 -107
s157 -79.167 202 -105.5s84.5 -60.5 118.5 -102.5s51 -91.333 51 -148h41c8 40.667 12 79 12 115c0 98 -29.167 171 -87.5 219s-145.833 96.333 -262.5 145s-204.334 99.334 -263.001 152.001s-88 132.334 -88 239.001c0 34 5.66699 80 17 138c14 63.333 29 117.333 45 162
s42 85.334 78 122.001s83 56 141 58c54.667 0 93.667 -14.5 117 -43.5s35 -66.5 35 -112.5c0 -26 -3.66699 -52 -11 -78c-6 -36 -17.333 -69.833 -34 -101.5s-43.334 -47.5 -80.001 -47.5l-11 -43h293l11 43c-41.333 0 -62 26.667 -62 80c0 8.66699 2.66699 31.667 8 69
c15.333 64.667 43.166 119.834 83.499 165.501s93.166 68.5 158.499 68.5c95.333 0 143 -52.667 143 -158c0 -34 -8 -88.667 -24 -164c-5.33301 -24 -16.333 -59.333 -33 -106s-34.5 -86 -53.5 -118s-37.5 -48 -55.5 -48l-8 -41c39.333 0 82.166 16.5 128.499 49.5
s86.833 73.5 121.5 121.5s57.334 95.333 68.001 142c5.33301 22 8 46.667 8 74c0 40 -7.16699 77.667 -21.5 113s-34.333 66 -60 92s-56.167 46.5 -91.5 61.5s-73.333 22.5 -114 22.5s-87.167 -6.5 -139.5 -19.5s-95.833 -34.5 -130.5 -64.5z" />
    <glyph glyph-name="r" unicode="r" horiz-adv-x="1004" 
d="M784 264c58.667 18 107.837 46.335 147.504 85.002s67.167 95.667 82.5 171c4 20.667 6 42 6 64c0 44 -9.66699 86 -29 126s-46.666 72 -81.999 96s-74.666 36 -117.999 36l-11 -43c56 -14.667 84 -62 84 -142c0 -32.667 -6 -78.334 -18 -137.001
c-6.66699 -34.667 -14 -63.334 -22 -86.001s-20.833 -45.167 -38.5 -67.5s-43.334 -40.333 -77.001 -54s-75.167 -20.834 -124.5 -21.501l-9 -43c108 0 162 -58.667 162 -176c0 -44 -8.66699 -105 -26 -183c-20.667 -102.667 -53.834 -194.5 -99.501 -275.5
s-111.5 -121.5 -197.5 -121.5c-53.333 0 -92 20.833 -116 62.5s-36 93.167 -36 154.5c0 44 4 83.667 12 119c11.333 50.667 30.166 105.334 56.499 164.001s53.5 88 81.5 88l10 43c-44.667 0 -89.834 -16.5 -135.501 -49.5s-85.834 -75.833 -120.501 -128.5
s-57.334 -106 -68.001 -160c-5.33301 -22 -8 -45.333 -8 -70c0 -54 14.667 -101.667 44 -143s68 -72.833 116 -94.5s99 -32.5 153 -32.5c77.333 0.666992 144.833 14 202.5 40s104.5 60.167 140.5 102.5s64.5 89.333 85.5 141s36.833 105.167 47.5 160.5
c13.333 64.667 20 120.667 20 168c0 107.333 -38.333 176.333 -115 207z" />
    <glyph glyph-name="s" unicode="s" horiz-adv-x="1495" 
d="M1223 842c-55.333 0 -103.168 -10.501 -143.501 -31.501s-75.833 -45.667 -106.5 -74s-49 -42.5 -55 -42.5c-5.33301 0 -9 5.66699 -11 17c-56 87.333 -134.333 131 -235 131c-111.333 0 -208.166 -43.667 -290.499 -131s-135.833 -185.666 -160.5 -294.999
c-6.66699 -36.667 -10 -70.334 -10 -101.001c0 -89.333 23.667 -164.833 71 -226.5s117.333 -92.5 210 -92.5c81.333 0 153.833 21.833 217.5 65.5s115.167 99.5 154.5 167.5s66.666 137 81.999 207c11.333 53.333 27.333 107.333 48 162s49.334 101.834 86.001 141.501
s80.667 59.5 132 59.5c49.333 0 84 -18 104 -54s30 -83 30 -141c0 -38.667 -5.66699 -87 -17 -145c-9.33301 -43.333 -26 -94.333 -50 -153s-51 -112.667 -81 -162s-58.667 -84.333 -86 -105l-8 -43c68 30.667 129.5 71.667 184.5 123s100.5 108.166 136.5 170.499
s61.333 125.5 76 189.5c6.66699 34.667 10 65.334 10 92.001c0 52 -10.5 98.5 -31.5 139.5s-53 73.167 -96 96.5s-96.5 35 -160.5 35zM771.998 415.999c-10 -48.667 -27.667 -102.334 -53 -161.001s-57.333 -109.167 -96 -151.5s-79.667 -63.833 -123 -64.5
c-43.333 0 -75 23.167 -95 69.5s-30 102.166 -30 167.499c0 48 4.66699 94.667 14 140c12 52.667 30.333 107.834 55 165.501s56 107.834 94 150.501s79.333 65 124 67c46 0 78.5 -21.333 97.5 -64s28.5 -96.667 28.5 -162c0 -56.667 -5.33301 -109 -16 -157z" />
    <glyph glyph-name="t" unicode="t" horiz-adv-x="1004" 
d="M543 520c2.66699 10.667 3.99805 19.001 3.99805 25.001c0 12.667 -3.16699 23 -9.5 31s-14.166 12 -23.499 12c6.66699 25.333 16.334 50.333 29.001 75s28 46.834 46 66.501s39 36.167 63 49.5s49 20 75 20c43.333 0 76.333 -15.5 99 -46.5s34 -68.167 34 -111.5
c0 -19.333 -2 -37 -6 -53l-170 -803c-15.333 -69.333 -48.333 -135.5 -99 -198.5s-109.667 -94.5 -177 -94.5c-50 0 -87.833 21.5 -113.5 64.5s-39.167 95.167 -40.5 156.5c0 30 3.33301 60.667 10 92c13.333 60.667 32.666 121.667 57.999 183s53.333 92 84 92l10 43
c-42 0 -86.333 -16.333 -133 -49s-87.167 -75 -121.5 -127s-57.5 -106 -69.5 -162c-5.33301 -30.667 -8 -53.334 -8 -68.001c0 -78 29 -142.833 87 -194.5s133.333 -77.5 226 -77.5c78 0 149.167 15 213.5 45s117 70.5 158 121.5s68.833 108.833 83.5 173.5l170 803
c2.66699 10.667 4 25.667 4 45c0 43.333 -14.167 80.833 -42.5 112.5s-64.666 55.667 -108.999 72s-90.166 24.5 -137.499 24.5c-51.333 0 -105.833 -11.5 -163.5 -34.5s-107.834 -55.5 -150.501 -97.5s-69.667 -89.667 -81 -143c-4 -20 -6 -38.333 -6 -55
c0 -28.667 6.83301 -51.834 20.5 -69.501s33.5 -26.5 59.5 -26.5c30 0 57.167 10 81.5 30s39.5 44.667 45.5 74z" />
    <glyph glyph-name="u" unicode="u" horiz-adv-x="1159" 
d="M358 500c42 0 67.332 22.332 75.999 66.999c2.66699 14.667 4 24.334 4 29.001c0 23.333 -10.667 35 -32 35c6 30.667 19.5 62.834 40.5 96.501s46.833 61.167 77.5 82.5s63 32 97 32c36.667 0 68.334 -16 95.001 -48s40 -72 40 -120l-64 -299
c-72.667 -3.33301 -150.167 -27 -232.5 -71s-154.5 -102.667 -216.5 -176s-102.667 -153 -122 -239c-5.33301 -21.333 -8 -46.333 -8 -75c0 -66 17.167 -127.333 51.5 -184s80.833 -101.667 139.5 -135s122 -50 190 -50c78 0 157.333 21.833 238 65.5
s150.167 101.5 208.5 173.5s96.5 148 114.5 228c6.66699 29.333 10 62.666 10 99.999c0 86.667 -21.833 163.667 -65.5 231s-104.5 111.333 -182.5 132l64 299c2.66699 16 4 27 4 33c0 36.667 -13.5 68.5 -40.5 95.5s-60.167 47.167 -99.5 60.5s-78 20 -116 20
c-34.667 0 -71 -5.33301 -109 -16s-73 -25.5 -105 -44.5s-59.667 -43 -83 -72s-39 -62.167 -47 -99.5c-8.66699 -34 -13 -61.333 -13 -82c0 -24.667 6.66699 -42 20 -52s35.333 -15.667 66 -17zM288.999 -111.001c10.667 48.667 28.002 98.332 52.002 148.999
s54 98.5 90 143.5s77.167 81.333 123.5 109s96.5 41.5 150.5 41.5c47.333 0 85.5 -13.5 114.5 -40.5s49.833 -61.667 62.5 -104s19 -89.166 19 -140.499c0 -42 -4.66699 -87 -14 -135c-14.667 -66.667 -39.334 -132 -74.001 -196s-78.334 -117.333 -131.001 -160
s-112 -64 -178 -64c-50.667 0 -93 14 -127 42s-58.833 64.833 -74.5 110.5s-23.5 93.834 -23.5 144.501c0 31.333 3.33301 64.666 10 99.999z" />
    <glyph glyph-name="v" unicode="v" horiz-adv-x="1004" 
d="M535 1092c15.333 78 38.834 139.332 70.501 183.999s89.167 67 172.5 67c50 0 94.667 -15 134 -45s59 -70.667 59 -122c0 -19.333 -1.33301 -33.666 -4 -42.999l-88 -418c-17.333 12.667 -49.333 23 -96 31s-83 12 -109 12c-94.667 0 -173.167 -16.667 -235.5 -50
s-111.5 -78.333 -147.5 -135s-62 -122.667 -78 -198c-9.33301 -48 -14 -87.667 -14 -119c0 -80 24.333 -143.333 73 -190s128.667 -70 240 -70c96 0 176.167 16.833 240.5 50.5s113.333 78.334 147 134.001s58.167 119.167 73.5 190.5l162 762
c2.66699 9.33301 4 23.666 4 42.999c0 68.667 -34.333 120.834 -103 156.501s-144.334 53.5 -227.001 53.5c-51.333 0 -100.666 -6.5 -147.999 -19.5s-91.333 -31.833 -132 -56.5s-75.167 -55.334 -103.5 -92.001s-47.833 -78.667 -58.5 -126c-6 -27.333 -9 -49.333 -9 -66
c0 -66.667 26.667 -100 80 -100c31.333 0 58.166 9.33301 80.499 28s36.5 44 42.5 76c0 25.333 -1.5 42 -4.5 50s-10.167 12 -21.5 12zM666.001 714.999c108.667 0 162.998 -56.6641 162.998 -169.997c0 -34.667 -8 -91.334 -24 -170.001
c-10.667 -49.333 -21.334 -91 -32.001 -125s-25.5 -67 -44.5 -99s-46.167 -58.667 -81.5 -80s-77.666 -32 -126.999 -32c-109.333 0 -164 56 -164 168c0 23.333 2.16699 47 6.5 71s10.5 56.333 18.5 97c14.667 60.667 26.334 104.667 35.001 132
s22.834 57.666 42.501 90.999s46.667 61.166 81 83.499s76.5 33.5 126.5 33.5z" />
    <glyph glyph-name="w" unicode="w" horiz-adv-x="1407" 
d="M1239 500c-13.333 -66.667 -41.835 -125.333 -85.502 -176s-103.167 -76 -178.5 -76h-84l8 43h-41l-27 -127h41l11 43h84c129.333 0 194 -69.667 194 -209c0 -44.667 -6 -94.667 -18 -150c-22 -105.333 -70 -190.5 -144 -255.5s-177.667 -98.5 -311 -100.5
c-118.667 0 -206 44.5 -262 133.5s-84 199.5 -84 331.5c0 70.667 7.66699 139.667 23 207c26.667 122 77.5 246.833 152.5 374.5s156.5 228.834 244.5 303.501l8 41c-95.333 -30.667 -183.166 -84.334 -263.499 -161.001s-146.666 -164.334 -198.999 -263.001
s-89.166 -197 -110.499 -295c-11.333 -46 -17 -98.667 -17 -158c0 -74 11 -144.5 33 -211.5s55 -127.167 99 -180.5s97 -94.833 159 -124.5s131 -44.5 207 -44.5c85.333 0 174 16.833 266 50.5s172.333 82.667 241 147s112 139.833 130 226.5c4 22 6 43.667 6 65
c0 70.667 -22 132 -66 184s-100.667 89 -170 111c77.333 24 147.166 59.167 209.499 105.5s99.833 101.5 112.5 165.5c4 16 6 31 6 45c0 46 -15.333 81 -46 105s-75.167 46.5 -133.5 67.5s-101 40 -128 57s-40.5 43.5 -40.5 79.5c0 4.66699 1.33301 14.334 4 29.001h-43
c-5.33301 -22 -8 -44 -8 -66c0 -49.333 19 -83.333 57 -102l113.5 -56c37.667 -18.667 56.5 -52 56.5 -100c0 -17.333 -2 -37 -6 -59z" />
    <glyph glyph-name="x" unicode="x" horiz-adv-x="956" 
d="M346 1133l-242 -1137h168l144 678c45.333 35.333 84.833 58.166 118.5 68.499s70.5 15.5 110.5 15.5c83.333 0 125 -51.333 125 -154c0 -49.333 -9 -112 -27 -188c-8 -39.333 -24.833 -89.833 -50.5 -151.5s-53.167 -114.667 -82.5 -159s-55.333 -66.5 -78 -66.5l-8 -43
c66 11.333 126.667 41.333 182 90s101.333 106.167 138 172.5s62.667 133.166 78 200.499c10.667 57.333 16 101 16 131c0 139.333 -81.333 209 -244 209c-106.667 0 -196 -28 -268 -84l35 168c58 0 119 11.667 183 35s120.5 57.166 169.5 101.499s80.167 96.5 93.5 156.5
c4 18 6 35 6 51c0 32 -6.83301 59.833 -20.5 83.5s-34.834 42.167 -63.501 55.5s-66 20 -112 20c-48 0 -98.833 -10.333 -152.5 -31s-100.667 -50 -141 -88s-66.166 -82.667 -77.499 -134zM823 1176c-9.33301 -44.667 -33.3311 -86.333 -71.998 -125
s-83.834 -69.167 -135.501 -91.5s-99.834 -33.5 -144.501 -33.5l53 250c8.66699 38 32.167 75.333 70.5 112s75.833 55 112.5 55s65.167 -15.667 85.5 -47s30.5 -71.333 30.5 -120z" />
    <glyph glyph-name="y" unicode="y" horiz-adv-x="1004" 
d="M795 1343c32.667 0 70 -6.00293 112 -18.0029s72.667 -18 92 -18c50.667 0 113 26.333 187 79l8 41c-73.333 -34 -131.333 -51 -174 -51c-24.667 0 -54.667 8.5 -90 25.5s-67.333 25.5 -96 25.5c-42.667 0 -88.334 -7 -137.001 -21s-97 -34.667 -145 -62
s-87.833 -59.166 -119.5 -95.499s-52.167 -74.833 -61.5 -115.5l-162 -758c-10.667 -52 -16 -97.667 -16 -137c0 -76.667 23.667 -136.167 71 -178.5s128.666 -63.5 243.999 -63.5c146 0 253.333 34 322 102s115 160.333 139 277c9.33301 40 14 82.333 14 127
c0 52 -10 96.833 -30 134.5s-53.167 67.334 -99.5 89.001s-107.5 32.5 -183.5 32.5c-21.333 0 -57.166 -4.83301 -107.499 -14.5s-87.5 -19.167 -111.5 -28.5l88 418c6.66699 34.667 23.834 68.334 51.501 101.001s60 59 97 79s72.833 30 107.5 30zM662 714.997
c108.667 0 162.998 -56.6641 162.998 -169.997c0 -34.667 -8 -91.334 -24 -170.001c-10.667 -49.333 -21.334 -91 -32.001 -125s-25.5 -67 -44.5 -99s-46.167 -58.667 -81.5 -80s-77.666 -32 -126.999 -32c-109.333 0 -164 56 -164 168c0 23.333 2.16699 47 6.5 71
s10.5 56.333 18.5 97c14.667 60.667 26.334 104.667 35.001 132s22.834 57.666 42.501 90.999s46.667 61.166 81 83.499s76.5 33.5 126.5 33.5z" />
    <glyph glyph-name="z" unicode="z" horiz-adv-x="1159" 
d="M506 416c-108 0 -161.999 37.333 -161.999 112c0 7.33301 1.33301 20.333 4 39c22.667 98.667 97 148 223 148c39.333 0 81.666 -28 126.999 -84l-28 -131c-22 -20 -50.333 -39 -85 -57s-61 -27 -79 -27zM662.001 459l-36.9961 -168.003c-6 -24.667 -9 -50 -9 -76
c0 -46 9.66699 -80.333 29 -103s49.166 -47 89.499 -73s71.333 -53 93 -81s32.5 -67.333 32.5 -118c0 -26.667 -4 -58.667 -12 -96c-14.667 -74 -60.5 -134.5 -137.5 -181.5s-153.5 -70.5 -229.5 -70.5c-37.333 0 -74.166 8.83301 -110.499 26.5s-65.833 41.667 -88.5 72
s-34 63.833 -34 100.5c0 4.66699 1.33301 15.667 4 33c11.333 48.667 24.5 83.834 39.5 105.501s35.333 44 61 67s46.667 47 63 72s29.5 62.167 39.5 111.5h-43c-10 -45.333 -40.333 -84.5 -91 -117.5l-146 -98c-46.667 -32.333 -77 -79.166 -91 -140.499
c-4 -16.667 -6 -32.667 -6 -48c0 -80.667 40.333 -139.334 121 -176.001s171.334 -55 272.001 -55c117.333 0 232.666 26.667 345.999 80s181.666 134 204.999 242c6.66699 35.333 10 64 10 86c0 53.333 -12 94 -36 122s-59.667 56 -107 84s-82 53.667 -104 77
s-33 58.666 -33 105.999c0 22.667 2.66699 45.667 8 69l41 189c52 0 89.833 -20.5 113.5 -61.5s35.5 -92.167 35.5 -153.5c0 -43.333 -4 -83.666 -12 -120.999h43c18 85.333 27 146 27 182c0 78 -22.667 151.667 -68 221c48.667 48 87.167 94.5 115.5 139.5
s48.833 86.5 61.5 124.5s24.667 82.667 36 134h-43c-6.66699 -34 -19.834 -71.833 -39.501 -113.5s-44.334 -83.667 -74.001 -126s-59.5 -75.833 -89.5 -100.5s-59.333 -37 -88 -37l154 712c2.66699 20 4 32.333 4 37c0 42 -14.833 69.333 -44.5 82s-70.834 19 -123.501 19
h-57c-37.333 0 -66.166 4.5 -86.499 13.5s-30.5 28.833 -30.5 59.5h-127c6 -50 24.333 -84 55 -102s69.667 -27 117 -27c12.667 0.666992 24 1.33398 34 2.00098h38c32 0 55.667 -3.66699 71 -11s23 -22 23 -44c0 -4.66699 -1.33301 -14.334 -4 -29.001l-135 -626
c-12.667 22.667 -36.834 42.334 -72.501 59.001s-68.167 25 -97.5 25c-152.667 0 -243.667 -63.667 -273 -191c-4 -18 -6 -35.667 -6 -53c0 -92.667 65.667 -139 197 -139c29.333 0 64.333 8.33301 105 25s74.667 36.334 102 59.001z" />
    <glyph glyph-name="braceleft" unicode="{" horiz-adv-x="1339" 
d="M709 758c-11.333 -3.33301 -27.002 -13.665 -47.002 -30.998l131 616c0 30 -8.5 51.5 -25.5 64.5s-44.833 19.5 -83.5 19.5c-32 0 -69.833 -8.66699 -113.5 -26s-82.334 -39 -116.001 -65s-53.5 -51.333 -59.5 -76h41c11.333 18.667 33.333 37.167 66 55.5
s60 27.5 82 27.5c20 0 30 -14.333 30 -43l-194 -905c-8 -38.667 -12 -75.334 -12 -110.001c0 -89.333 29.833 -159.833 89.5 -211.5s155.167 -77.5 286.5 -77.5c112 0 203.833 17 275.5 51s126.667 80 165 138s66.5 128 84.5 210c9.33301 40 14 81 14 123
c0 187.333 -123 281 -369 281h-65c32 40.667 76 77 132 109s108.333 51 157 57l8 43c-51.333 0 -104.166 -10.667 -158.499 -32s-108.666 -50.833 -162.999 -88.5s-106.166 -80.834 -155.499 -129.501zM945.998 758.001c66.667 0 116.832 -27.334 150.499 -82.001
s50.5 -119 50.5 -193c0 -32.667 -2.66699 -62 -8 -88c-10 -50 -32.167 -103.167 -66.5 -159.5s-76.166 -103.166 -125.499 -140.499s-100.666 -56 -153.999 -56c-68.667 0 -121 27.667 -157 83s-54 120.333 -54 195c0 20 2.66699 46 8 78
c11.333 52 34.666 106.5 69.999 163.5s78 104.5 128 142.5s102.667 57 158 57z" />
    <glyph glyph-name="bar" unicode="|" horiz-adv-x="1810" 
d="M1010 1470h-592l-8 -43c60 0 103.333 -24.5 130 -73.5s48 -115.167 64 -198.5l260 -1159h43l803 1202c35.333 54.667 78.166 106 128.499 154s94.833 73 133.5 75l8 43h-464l-9 -43c34 0 67.5 -9.66699 100.5 -29s49.5 -45 49.5 -77
c-1.33301 -4 -2.66602 -7.66699 -3.99902 -11l-4 -10l-621 -925l-192 864v57c8 37.333 28.5 68.5 61.5 93.5s67.5 37.5 103.5 37.5z" />
    <glyph glyph-name="braceright" unicode="}" horiz-adv-x="1702" 
d="M854 1133l88.002 -318.006l-596 -268l-10 -47c63.333 0 118.5 -2.83301 165.5 -8.5s88.5 -20.334 124.5 -44.001s54 -60.167 54 -109.5c0 -15.333 -2 -31 -6 -47c-17.333 -84 -70.666 -147 -159.999 -189s-181.333 -63 -276 -63h-125l-9 -43h148
c54 0 111.5 4.16699 172.5 12.5s121.167 23 180.5 44s110.666 51.167 153.999 90.5s71 88.666 83 147.999c4 20 6 38.333 6 55c0 131.333 -117.333 197 -352 197l467 205l108 -373c47.333 -168 134 -252 260 -252c41.333 0 84.5 6.66699 129.5 20s84.667 34 119 62
s56.166 63.333 65.499 106c2.66699 14.667 4 25 4 31c0 32.667 -10.833 61 -32.5 85s-49 42.167 -82 54.5s-66.5 18.5 -100.5 18.5l-9 -41c34.667 0 66 -14 94 -42s42 -63.333 42 -106c-6 -31.333 -21.667 -56.5 -47 -75.5s-58.333 -28.5 -99 -28.5
c-24.667 0 -45.667 8 -63 24s-31.166 36 -41.499 60s-19.833 52 -28.5 84l-133 456l393 177c48.667 19.333 87.5 48.833 116.5 88.5s47.5 79.834 55.5 120.501c2.66699 10.667 4 25.667 4 45c0 42 -15.833 73.167 -47.5 93.5s-82.5 30.5 -152.5 30.5
c-32 0 -67.333 -8.5 -106 -25.5s-73.167 -38.833 -103.5 -65.5s-49.5 -52.667 -57.5 -78h41c20.667 34.667 55.5 64.334 104.5 89.001s93.5 37 133.5 37c69.333 0 104 -28.667 104 -86c0 -17.333 -1.33301 -30.666 -4 -39.999c-6.66699 -32 -24.834 -63.167 -54.501 -93.5
s-66.167 -55.166 -109.5 -74.499l-333 -154l-68 238c-22.667 84 -56.167 147.167 -100.5 189.5s-105.833 63.5 -184.5 63.5c-90 0 -159.333 -21.167 -208 -63.5s-80.334 -98.166 -95.001 -167.499c-5.33301 -19.333 -8 -44.666 -8 -75.999c0 -76 24.667 -114 74 -114
c30.667 0 57.5 8.83301 80.5 26.5s36.5 36.834 40.5 57.501c0 26.667 -6.33301 47.334 -19 62.001s-28.334 22 -47.001 22c12 60 28.833 110 50.5 150s55.5 60 101.5 60c16.667 0 30.167 -6.33301 40.5 -19s18.833 -28 25.5 -46s13.334 -40.667 20.001 -68
s12.667 -53 18 -77z" />
    <glyph glyph-name="asciitilde" unicode="~" horiz-adv-x="1855" 
d="M1606 1309l-1258 -1440h127l1354 1601h-84c-57.333 -64.667 -122.833 -112.667 -196.5 -144s-146.667 -51 -219 -59s-151.5 -12 -237.5 -12c-2.66699 36 -11 66.833 -25 92.5s-33.333 45.334 -58 59.001s-55 20.5 -91 20.5c-53.333 0 -112 -15.667 -176 -47
s-126 -73.5 -186 -126.5s-111.833 -111.667 -155.5 -176s-72.834 -129.166 -87.501 -194.499c-6.66699 -29.333 -10 -63 -10 -101c2.66699 -129.333 69 -194 199 -194c58.667 0 119.334 15.167 182.001 45.5s122 72.166 178 125.499s104 112.833 144 178.5
s66.333 130.834 79 195.501c4.66699 17.333 7 45.333 7 84c69.333 0 128.666 1.5 177.999 4.5s103.5 11.333 162.5 25s116.833 34.5 173.5 62.5zM543.001 673.998c-83.333 0 -125 31.3311 -125 93.998c0 16 2 33 6 51c11.333 52.667 36.333 109 75 169
s84.5 117.5 137.5 172.5s103 99 150 132s84.5 49.833 112.5 50.5c105.333 0 158 -41.333 158 -124c0 -14.667 -2.66699 -36 -8 -64c-12 -54.667 -35.667 -110.667 -71 -168s-77.333 -109.666 -126 -156.999s-99.667 -85.166 -153 -113.499s-105.333 -42.5 -156 -42.5z
M1870 458.996c6.66699 29.333 10 62.6689 10 100.002c0 62.667 -15 111.5 -45 146.5s-75.667 52.5 -137 52.5c-69.333 0 -148 -27.833 -236 -83.5s-166.333 -126.334 -235 -212.001s-111.667 -170.834 -129 -255.501c-7.33301 -32 -11 -66.333 -11 -103
c0 -128 67 -192 201 -192c56.667 0 116.334 15.5 179.001 46.5s122.5 73.667 179.5 128s105.167 114 144.5 179s65.666 129.5 78.999 193.5zM1325 -4.00098c-80.667 0 -121 31.333 -121 94c0 16 2 33 6 51c14.667 68.667 52 144.334 112 227.001s125.5 154.167 196.5 214.5
s124.5 90.833 160.5 91.5c62 0 104.833 -10.667 128.5 -32s35.5 -51 35.5 -89c0 -21.333 -3.33301 -46 -10 -74c-16 -74.667 -51.5 -149.334 -106.5 -224.001s-119.5 -136.5 -193.5 -185.5s-143.333 -73.5 -208 -73.5z" />
    <glyph glyph-name=".null" horiz-adv-x="0" 
 />
    <glyph glyph-name="nonmarkingreturn" horiz-adv-x="0" 
 />
    </font>
</defs>
</svg>
