<?xml version="1.0" standalone="no"?>
<!DOCTYPE svg PUBLIC "-//W3C//DTD SVG 1.1//EN" "http://www.w3.org/Graphics/SVG/1.1/DTD/svg11.dtd" >
<svg>
<metadata>
Created by FontForge 20090914 at Wed Oct 10 15:18:30 2018
 By www-data
Slava Meskhi, 1997  All rights reserved.
</metadata>
<defs>
<font id="GeoBrushScript" horiz-adv-x="0" >
  <font-face 
    font-family="Geo Brush Script"
    font-weight="400"
    font-stretch="normal"
    units-per-em="2048"
    panose-1="4 11 5 0 0 0 0 0 0 0"
    ascent="1638"
    descent="-410"
    x-height="776"
    cap-height="1333"
    bbox="-340 -573.003 2005 1421"
    underline-thickness="50"
    underline-position="-75"
    unicode-range="U+0020-U+00CA"
  />
<missing-glyph horiz-adv-x="1024" 
d="M128 0v1421h768v-1421h-768zM256 128h512v1165h-512v-1165z" />
    <glyph glyph-name=".notdef" horiz-adv-x="1024" 
d="M128 0v1421h768v-1421h-768zM256 128h512v1165h-512v-1165z" />
    <glyph glyph-name="space" unicode=" " horiz-adv-x="575" 
 />
    <glyph glyph-name="exclam" unicode="!" horiz-adv-x="705" 
d="M713 1282c13.333 4 25.668 5.99902 37.001 5.99902c24 0 48.333 -6.66699 73 -20s46.667 -33.333 66 -60l-152 -227l-157 -233l-109 -162l-82 -131c12.667 -2.66699 19 -10.334 19 -23.001c0 -10.667 -8.16699 -25 -24.5 -43s-30.166 -27 -41.499 -27
c-16.667 0 -35.834 13.833 -57.501 41.5s-32.5 50.167 -32.5 67.5c0 8 5.33301 23.667 16 47c14.667 31.333 32.667 66.333 54 105c9.33301 16.667 38.666 66.334 87.999 149.001l118 205c85.333 146.667 147 248.334 185 305.001zM219.002 7.99902
c-26 0 -47.332 10.666 -63.999 31.999c-16 19.333 -24 42.333 -24 69c0 34 9 76.667 27 128c22 62 46.333 93 73 93c35.333 0 62.666 -20 81.999 -60c11.333 -17.333 17 -37.666 17 -60.999c0 -32 -11 -71.667 -33 -119c-24.667 -54.667 -50.667 -82 -78 -82z" />
    <glyph glyph-name="quotedbl" unicode="&#x22;" horiz-adv-x="618" 
d="M221 1010v237h150v-237l-31 -271h-88zM485 1010v237h152v-237l-31 -271h-88z" />
    <glyph glyph-name="numbersign" unicode="#" horiz-adv-x="1245" 
d="M111 768v131h292l78 363h129l-78 -363h365l78 363h131l-78 -363h172v-131h-199l-65 -317h264v-132h-289l-77 -360h-132l78 360h-366l-76 -360h-131l76 360h-172v132h200l66 317h-266zM872 768h-366l-66 -317h367z" />
    <glyph glyph-name="dollar" unicode="$" horiz-adv-x="961" 
d="M641 1104l128.999 14.002c14 37.333 25.667 65.333 35 84c22 57.333 55.333 86 100 86c12.667 0 19 -4.66699 19 -14c0 6.66699 -21.333 -44 -64 -152c66 -1.33301 112.833 -8.33301 140.5 -21s41.5 -40.334 41.5 -83.001c0 -54 -23.667 -91.667 -71 -113
c-55.333 -24.667 -95.666 -37 -120.999 -37c-8 0 -12 3 -12 9c0.666992 3.33301 2 6 4 8l27.5 15c6.33301 3.33301 9.5 9.33301 9.5 18c0 8 -8.33301 14 -25 18c-19.333 2.66699 -42 4 -68 4l-79 -215c147.333 -16.667 221 -77.334 221 -182.001
c0 -55.333 -13.667 -104 -41 -146c-56 -85.333 -169.333 -147.333 -340 -186c-7.33301 -20.667 -18.333 -57.667 -33 -111c-20.667 -76 -39 -114 -55 -114c-23.333 0 -35 30 -35 90c0 34 9 74.333 27 121c-33.333 -2.66699 -75.666 -4 -126.999 -4
c-12.667 -36 -25 -80 -37 -132c-10.667 -46 -19 -69 -25 -69c-8 0 -17 15.667 -27 47c-9.33301 28.667 -14 49 -14 61c0 12.667 8.33301 49 25 109c-57.333 19.333 -93 32.333 -107 39c-32.667 12 -49 36.667 -49 74c0 54 31.333 104.333 94 151
c25.333 -25.333 45.333 -41 60 -47c14 -10.667 36.333 -19.667 67 -27l84 250c-83.333 2.66699 -139.333 22 -168 58c-16 20 -24 48 -24 84c0 45.333 16.333 91.666 49 138.999c50.667 72.667 153 124.334 307 155.001l25 66c8 20 21 46.667 39 80
c13.333 2.66699 24.666 4 33.999 4c22 0 33 -5.33301 33 -16c0 -9.33301 -8.66699 -31.333 -26 -66c-12 -24.667 -19.667 -41 -23 -49zM437.999 770.002l56 152c-52 -13.333 -94.333 -30 -127 -50c-30 -18 -45 -37 -45 -57c0 -26 38.667 -41 116 -45zM704.999 944.002
l-132 -10l-63 -174l123 -19zM673.999 621.002l-64 -202.999c113.333 42.667 170 83 170 121c0 24 -7.33301 41 -22 51c-16.667 9.33301 -44.667 19.666 -84 30.999zM595.999 631.003l-127 10l-84 -252c8 -1.33301 22.333 -2 43 -2c32.667 0 62.667 3.33301 90 10z" />
    <glyph glyph-name="percent" unicode="%" horiz-adv-x="1409" 
d="M731 1137c40 -11.333 59.999 -44.334 59.999 -99.001c0 -59.333 -16.667 -122.333 -50 -189c-32 -62.667 -71.333 -115 -118 -157c-51.333 -46 -106.666 -69 -165.999 -69c-48.667 0 -87 19.333 -115 58c-24.667 34.667 -37 77.334 -37 128.001
c0 60 18.333 120.333 55 181c34 56 77 102.667 129 140c54.667 38.667 110.667 58 168 58c31.333 0 56 -17 74 -51zM474.999 747.999c85.333 0 157.665 56.6689 216.998 170.002c23.333 44.667 35 82.667 35 114c0 36.667 -10.333 55 -31 55
c-6.66699 -0.666992 -19.667 -3.33398 -39 -8.00098c-11.333 -2.66699 -20.666 -4 -27.999 -4c-10 0 -17.667 2 -23 6l-6 4c-2 1.33301 -4 2 -6 2c-16 0 -42.333 -20.333 -79 -61c-29.333 -32 -50.666 -59.333 -63.999 -82c-24.667 -40.667 -37 -82.334 -37 -125.001
c0 -47.333 20.333 -71 61 -71zM1143 467.001c27.333 -8.66699 45 -23.334 53 -44.001c4 -12 6 -36.333 6 -73c0 -60 -19.333 -122 -58 -186c-34.667 -57.333 -77.5 -106.166 -128.5 -146.499s-91.167 -60.5 -120.5 -60.5c-40 0 -74.333 25 -103 75
c-25.333 44 -38 87.333 -38 130c0 52 17.667 106.667 53 164c31.333 50 70.333 93 117 129c49.333 38 98.333 57 147 57c27.333 0 51.333 -15 72 -45zM839.998 156.001c0 -57.333 17 -86.001 51 -86.001c10.667 0 21.667 2.66699 33 8c60.667 28 115 96.333 163 205
c19.333 44 29 76.667 29 98c0 31.333 -10.333 47 -31 47c-17.333 0 -46 -12.333 -86 -37c-106 -65.333 -159 -143.666 -159 -234.999zM214.998 41c0 30 24.6699 74.999 74.0029 134.999c60 72.667 153.333 175.667 280 309c54 56.667 118.333 120.334 193 191.001l96 90
c18 17.333 33 31 45 41l157 129c69.333 57.333 110 91.333 122 102c62.667 57.333 102 86 118 86c11.333 0 17 -11.333 17 -34c0 -30.667 -27 -75 -81 -133c-8.66699 -9.33301 -47.334 -46.333 -116.001 -111l-239 -236c-91.333 -92 -181 -189 -269 -291
c-52.667 -61.333 -98.334 -117 -137.001 -167c-26 -33.333 -61.333 -82 -106 -146c-48 -68 -79.667 -102 -95 -102c-14.667 0 -28.334 17 -41.001 51c-12 31.333 -18 60 -18 86z" />
    <glyph glyph-name="ampersand" unicode="&#x26;" horiz-adv-x="1004" 
d="M365 8c-48.667 0 -94.168 14.001 -136.501 42.001s-77.333 69 -105 123s-41.5 112.333 -41.5 175c0 156 128.333 302.667 385 440c-6.66699 42.667 -10 72.334 -10 89.001c0 133.333 51 247.333 153 342c92.667 86 189 129 289 129c48.667 0 89 -10.667 121 -32
c38 -24.667 57 -60 57 -106c0 -96 -49 -182.667 -147 -260c-30 -24 -83.333 -60 -160 -108l-113 -74c20.667 -84.667 53 -170.667 97 -258c56.667 38 103.667 75 141 111l68 70c38 39.333 59.667 59 65 59c14 0 21 -23.333 21 -70c0 -38.667 -7.66699 -77 -23 -115
c-26.667 -66 -80.667 -140.333 -162 -223l66 -72c19.333 21.333 33.666 35.666 42.999 42.999c4 4 8.66699 6 14 6c6.66699 0 12.334 -2.66699 17.001 -8c2.66699 -5.33301 4 -11.333 4 -18c0 -28.667 -18.667 -74 -56 -136c-40 -65.333 -72.667 -98 -98 -98
c-22 0 -50.667 23.333 -86 70c-13.333 17.333 -27.666 37.666 -42.999 60.999c-158.667 -121.333 -278.667 -182 -360 -182zM634.999 956.001l0.000976562 -41.001c64.667 36 126 80 184 132c79.333 70.667 119 131.334 119 182.001c0 30 -15 45 -45 45
c-28.667 0 -63.667 -15.667 -105 -47c-38.667 -29.333 -73.834 -70 -105.501 -122s-47.5 -101.667 -47.5 -149zM500 657c-96.667 -66.667 -170.333 -141.667 -221 -225c-23.333 -38 -35 -68.667 -35 -92c0 -49.333 22.333 -74 67 -74c84 0 184.333 42.333 301 127z" />
    <glyph glyph-name="quotesingle" unicode="'" horiz-adv-x="449" 
d="M270 1010v237h148v-237l-25 -269h-92z" />
    <glyph glyph-name="parenleft" unicode="(" horiz-adv-x="682" 
d="M436 147c12.667 19.333 21.668 28.999 27.001 28.999c8 0 12 -22.333 12 -67c0 -33.333 -10.333 -60.666 -31 -81.999c-14.667 -15.333 -31 -23 -49 -23c-36.667 0 -70 24.667 -100 74c-56 91.333 -84 216.333 -84 375c0 211.333 73.667 420.666 221 627.999
c35.333 50 80 104.333 134 163c75.333 82.667 127.666 124 156.999 124c18 0 27 -18.333 27 -55c0 -36 -28 -84.667 -84 -146c-88 -96 -159.833 -210.333 -215.5 -343s-83.5 -262 -83.5 -388c0 -62.667 6 -118.667 18 -168c12.667 -51.333 29.667 -91.666 51 -120.999z" />
    <glyph glyph-name="parenright" unicode=")" horiz-adv-x="682" 
d="M397 1194c-6.66699 -13.333 -12.666 -20 -17.999 -20c-2.66699 0.666992 -4 4 -4 10v16c0 38.667 10.167 70.5 30.5 95.5s42.166 37.5 65.499 37.5c21.333 0 42.666 -12.333 63.999 -37s38.5 -59 51.5 -103s19.5 -97.667 19.5 -161c0 -112 -21.667 -236.333 -65 -373
c-18 -56.667 -45.333 -124.667 -82 -204c-138 -298 -241 -447 -309 -447c-15.333 0 -27.666 6.33301 -36.999 19c-11.333 10.667 -17 25 -17 43c0 13.333 4.33301 27 13 41c112 178.667 195.667 347.667 251 507c52 150 78 282 78 396c0 105.333 -13.667 165.333 -41 180z
" />
    <glyph glyph-name="asterisk" unicode="*" horiz-adv-x="662" 
d="M-72 893c0 14.667 30.668 31 92.001 49c27.333 8 57.666 17.667 90.999 29c25.333 8.66699 52.666 20.334 81.999 35.001c-42 16 -88 29.667 -138 41c-25.333 4.66699 -50.333 9 -75 13c-36 9.33301 -54 22.666 -54 39.999c0 11.333 10.333 33.166 31 65.499
s38.334 48.5 53.001 48.5c24.667 0 100.667 -41.333 228 -124c0 46 -8.33301 95.667 -25 149c-15.333 49.333 -23 80 -23 92c0 20.667 17.333 31 52 31c70.667 0 106 -23.333 106 -70c0 -14.667 -4 -42 -12 -82c-10 -50 -16.333 -91 -19 -123
c26.667 14 61.334 49.333 104.001 106s75 85 97 85s45.333 -31.333 70 -94c9.33301 -24.667 14 -41.667 14 -51c0 -18.667 -6 -31 -18 -37c-19.333 -9.33301 -54.666 -20.333 -105.999 -33c-48 -12 -85.667 -25.667 -113 -41c49.333 -9.33301 118 -25.666 206 -48.999
c16.667 -6 25 -17 25 -33c0 -19.333 -10.5 -43.666 -31.5 -72.999s-40.5 -44 -58.5 -44c-5.33301 0 -25.333 12.333 -60 37c-44.667 31.333 -84.667 58 -120 80c1.33301 -18.667 7.33301 -51.334 18 -98.001c9.33301 -42 14 -74.333 14 -97c0 -39.333 -18.333 -59 -55 -59
c-75.333 0 -113 17.667 -113 53l31 92c6.66699 26.667 11.667 63 15 109l-132 -100c-18.667 -14 -34.334 -23 -47.001 -27s-30.334 -6 -53.001 -6c-13.333 0 -29.333 10.5 -48 31.5s-28 39.167 -28 54.5z" />
    <glyph glyph-name="plus" unicode="+" horiz-adv-x="1366" 
d="M170 547v158h469v471h158v-471h471v-158h-471v-465h-158v465h-469z" />
    <glyph glyph-name="comma" unicode="," horiz-adv-x="682" 
d="M184 -25c-34 14 -51 28.333 -51 43c0 40.667 34.333 90.667 103 150c25.333 22 47 33 65 33c24.667 0 37 -15 37 -45c0 -36.667 -19.333 -81.667 -58 -135s-76 -92.333 -112 -117c-12.667 -8.66699 -21.667 -13 -27 -13c-4 0 -6 2.33301 -6 7c0 5.33301 1.66699 10 5 14
l22 27c8 12 15.333 24 22 36z" />
    <glyph glyph-name="hyphen" unicode="-" horiz-adv-x="1044" 
d="M688 588c23.333 5.33301 37 8.66699 41 10c-10 0 7.66699 -3.33301 53 -10c10 -1.33301 25 -4 45 -8c6 -3.33301 9 -6.33301 9 -9c0 -14 -23.333 -35.667 -70 -65c-41.333 -26.667 -72 -43 -92 -49c-62 -18 -168 -27 -318 -27c-76 0 -114 8.33301 -114 25
c0 14.667 17.667 39.667 53 75c45.333 45.333 127.333 68 246 68c20 0 69 -3.33301 147 -10z" />
    <glyph glyph-name="hyphen" unicode="&#x2010;" horiz-adv-x="1044" 
d="M688 588c23.333 5.33301 37 8.66699 41 10c-10 0 7.66699 -3.33301 53 -10c10 -1.33301 25 -4 45 -8c6 -3.33301 9 -6.33301 9 -9c0 -14 -23.333 -35.667 -70 -65c-41.333 -26.667 -72 -43 -92 -49c-62 -18 -168 -27 -318 -27c-76 0 -114 8.33301 -114 25
c0 14.667 17.667 39.667 53 75c45.333 45.333 127.333 68 246 68c20 0 69 -3.33301 147 -10z" />
    <glyph glyph-name="period" unicode="." horiz-adv-x="682" 
d="M158 -4c-11.333 0 -20.999 4.50098 -28.999 13.501s-12 20.833 -12 35.5c0 42 25.333 91.333 76 148c21.333 24 43.666 36 66.999 36c28.667 0 43 -17 43 -51c0 -48.667 -26.667 -98.334 -80 -149.001c-23.333 -22 -45 -33 -65 -33z" />
    <glyph glyph-name="slash" unicode="/" horiz-adv-x="575" 
d="M150 -135h-146l424 1515h145z" />
    <glyph glyph-name="zero" unicode="0" horiz-adv-x="897" 
d="M887 1161c32 -14 55.0029 -36.5 69.0029 -67.5s21 -78.167 21 -141.5c0 -97.333 -18.333 -199 -55 -305c-80.667 -233.333 -211.334 -413.666 -392.001 -540.999c-98 -69.333 -178.333 -104 -241 -104c-107.333 0 -187.333 56.667 -240 170
c-24.667 53.333 -37 116.666 -37 189.999c0 104 30.333 215.667 91 335c53.333 105.333 121.333 200.666 204 285.999c87.333 90.667 176.666 160.334 267.999 209.001c71.333 38 135 57 191 57c75.333 0 115.666 -29.333 120.999 -88zM657.003 965l35 72.9971
c-78.667 -40 -147.667 -87 -207 -141c-41.333 -37.333 -82.333 -81.666 -123 -132.999c-140 -177.333 -210 -333.666 -210 -468.999c0 -83.333 28 -125 84 -125c34.667 0 81 17 139 51c141.333 82.667 260 196 356 340c51.333 77.333 89 149 113 215
c24.667 68.667 37 129.334 37 182.001c0 67.333 -24.667 101 -74 101c-30.667 0 -80.667 -31.333 -150 -94z" />
    <glyph glyph-name="one" unicode="1" horiz-adv-x="555" 
d="M201 956v81.999c54 46 137.333 111 250 195c27.333 18 64 39.667 110 65c36.667 -52.667 55 -103.667 55 -153c0 -24 -6 -53.333 -18 -88c-15.333 -44.667 -30.5 -82.5 -45.5 -113.5l-73.5 -157.5c-156.667 -345.333 -235 -565.666 -235 -660.999
c1.33301 -5.33301 4 -18.166 8 -38.499s6 -37.5 6 -51.5c0 -19.333 -5.33301 -29.666 -16 -30.999h-4c-12 0 -26.333 4 -43 12c-86 41.333 -129 94.666 -129 159.999c0 63.333 23.667 163.666 71 300.999c42 122.667 105.667 260 191 412c49.333 88.667 86 152.667 110 192
c-74.667 -31.333 -153.667 -73 -237 -125z" />
    <glyph glyph-name="two" unicode="2" horiz-adv-x="897" 
d="M311 879c130 -6 195.002 -22.6641 195.002 -49.9971c0 -8 -2.33301 -13.333 -7 -16s-13.334 -4.66699 -26.001 -6l-151 -31c-52 -12 -80.667 -18 -86 -18c-26 0 -39 16.333 -39 49c0 76 23 156.667 69 242c22 40.667 44 68.667 66 84
c61.333 42.667 168.333 78.667 321 108c73.333 14 139 21 197 21c51.333 0 83.333 -15 96 -45c34 -81.333 51 -157.333 51 -228c0 -112 -55.333 -209 -166 -291c-70 -52 -165 -115.333 -285 -190c-151.333 -94.667 -248 -156 -290 -184
c-22.667 -12.667 -54.667 -35.334 -96 -68.001c-16 -12.667 -32.333 -30.334 -49 -53.001c91.333 8 232.666 32.333 423.999 73l126 33c60.667 16.667 99.667 25 117 25c16.667 0 25 -8.33301 25 -25c0 -20 -5.33301 -44.333 -16 -73
c-16.667 -44.667 -40.667 -81.667 -72 -111c-86.667 -82 -256.667 -123 -510 -123c-64.667 0 -108.334 10.333 -131.001 31c-12.667 11.333 -26.5 39 -41.5 83s-22.5 74.333 -22.5 91c0 36 17 79 51 129c75.333 111.333 187.333 209.666 336 294.999l346 200
c104 72.667 156 133.667 156 183c0 18.667 -7.33301 33.667 -22 45c-15.333 9.33301 -36.666 14 -63.999 14c-46.667 0 -98.167 -7.16699 -154.5 -21.5s-118.833 -37.833 -187.5 -70.5c-62 -29.333 -115.333 -63.333 -160 -102z" />
    <glyph glyph-name="three" unicode="3" horiz-adv-x="1044" 
d="M319 915c-35.333 21.333 -53.0039 55.6699 -53.0039 103.003c0 91.333 85.333 157.666 256 198.999c77.333 18.667 168.333 28 273 28c215.333 0 323 -77.667 323 -233c0 -44 -10.333 -83.667 -31 -119c-22 -37.333 -55.333 -70 -100 -98
c-49.333 -30.667 -224 -77.334 -524 -140.001c190.667 -16.667 317 -54.667 379 -114c36.667 -36 55 -84 55 -144c0 -76.667 -36.667 -149.667 -110 -219c-58.667 -56 -130 -101 -214 -135c-103.333 -42 -216.666 -63 -339.999 -63c-88 0 -157 14.167 -207 42.5
s-75 63.166 -75 104.499c0 26 8 52.667 24 80c14 24 33 46.667 57 68s42.667 32 56 32c9.33301 0 14 -3.33301 14 -10c0 -4 -3.33301 -13 -10 -27c-6.66699 -6.66699 -10 -14 -10 -22c0 -38.667 55.333 -58 166 -58c128 0 248.667 27.333 362 82c108 52 162 102.667 162 152
c0 55.333 -49.333 91.333 -148 108c-41.333 7.33301 -110.666 11 -207.999 11c-29.333 0 -86.666 -7 -171.999 -21v0c-10 0 -15 8.33301 -15 25c0 22.667 7.66699 56 23 100c14.667 42 31 68.667 49 80c12.667 8 59 19 139 33c40 6.66699 109.667 20.334 209 41.001
c70.667 14.667 140.334 35 209.001 61c101.333 38 152 83.667 152 137c0 52 -64.333 78 -193 78c-67.333 0 -128 -3.33301 -182 -10s-100.333 -16.334 -139 -29.001c-34.667 -11.333 -52 -22 -52 -32c0 -14 10.333 -25 31 -33c6.66699 -2.66699 18.334 -6.66699 35.001 -12
c12 -6 18 -13.667 18 -23c0 -16.667 -47 -25 -141 -25c-20.667 0 -43.334 0.666992 -68.001 2z" />
    <glyph glyph-name="four" unicode="4" horiz-adv-x="874" 
d="M817 348l-211.001 -45c-18.667 -52 -31.667 -109.333 -39 -172c18 -16.667 27 -33.667 27 -51c0 -15.333 -23.333 -39 -70 -71s-78.667 -48 -96 -48c-31.333 0 -47 24 -47 72c0 82 10.333 161 31 237c-23.333 0 -58 -2.66699 -104 -8s-80.333 -8 -103 -8
c-76.667 0 -126 15.667 -148 47c-31.333 60.667 -47 115.334 -47 164.001c0 40 37.667 113 113 219c71.333 100 177 199 317 297c136.667 95.333 268.667 171.666 396 228.999c54.667 24.667 86.667 37 96 37c32.667 0 49 -18.333 49 -55
c0 -6.66699 -6.66699 -25.667 -20 -57c21.333 -19.333 32 -37.333 32 -54c0 -20 -3.33301 -40.333 -10 -61c-8 -24.667 -15.667 -42.667 -23 -54l-36 -55l-121 -190l-62 -98c-11.333 -19.333 -27.666 -53 -48.999 -101c105.333 18 163.333 27 174 27c30 0 45 -11.667 45 -35
c0 -30 -31.333 -85.333 -94 -166zM497.999 489c55.333 115.333 110.669 211.001 166.002 287.001c2 2.66699 47.667 60 137 172c79.333 98.667 119 150.667 119 156s-2.16699 9.66602 -6.5 12.999s-9.83301 5 -16.5 5c-14 0 -68.667 -30 -164 -90
c-202.667 -128 -351.334 -248 -446.001 -360c-56.667 -67.333 -103.334 -138.333 -140.001 -213c130 8 247 18 351 30z" />
    <glyph glyph-name="five" unicode="5" horiz-adv-x="874" 
d="M498 1210c114.667 -5.33301 202.667 -8.00098 264 -8.00098c90 0 176 2 258 6c-64 -139.333 -110.333 -213.666 -139 -222.999c-16.667 -5.33301 -81.667 -8 -195 -8c-104 0 -178.333 0.666992 -223 2c-75.333 -62.667 -135.333 -142 -180 -238
c124 42.667 217.333 64 280 64c83.333 0 146.833 -23.667 190.5 -71s65.5 -113 65.5 -197c0 -111.333 -35.333 -209.833 -106 -295.5s-163.334 -152.834 -278.001 -201.501c-108.667 -47.333 -221 -71 -337 -71c-62 0 -106 8.33301 -132 25c-33.333 21.333 -50 61 -50 119
c0 56 26 101 78 135c68 44.667 139.667 67 215 67c8 0 12 -2.66699 12 -8c-0.666992 -3.33301 -3.16699 -6.16602 -7.5 -8.49902s-7.16602 -3.5 -8.49902 -3.5c-84.667 -31.333 -127 -56 -127 -74c0 -17.333 28 -26 84 -26c80.667 0 166.667 20.333 258 61
c85.333 38 159.666 86.333 222.999 145c60 56 90 102 90 138c0 57.333 -48.333 86 -145 86c-66 0 -148.667 -13.667 -248 -41c-50.667 -14 -80 -21 -88 -21c-18 0 -32.667 9 -44 27l-24 51c-15.333 31.333 -24.666 61.333 -27.999 90c39.333 143.333 153.333 303 342 479z
" />
    <glyph glyph-name="six" unicode="6" horiz-adv-x="854" 
d="M750 1198l104.003 -6c72.667 -4 109 -12.333 109 -25c0 -6.66699 -31 -27 -93 -61c-118.667 -64.667 -227.667 -137 -327 -217c-77.333 -62 -150.333 -133 -219 -213c-26.667 -31.333 -51.334 -65 -74.001 -101c-8.66699 -14.667 -14.334 -22.667 -17.001 -24
c139.333 150 262.333 225 369 225c66 0 117.333 -19 154 -57s55 -92 55 -162c0 -76.667 -29 -164.667 -87 -264c-51.333 -86 -115.333 -159.667 -192 -221c-80.667 -64.667 -157.667 -97 -231 -97c-50.667 0 -99.334 21 -146.001 63c-39.333 35.333 -71.333 79.333 -96 132
c-26 55.333 -39 113.333 -39 174c0 97.333 38 206 114 326c60.667 95.333 136 184.666 226 267.999c110 102.667 240 189.334 390 260.001zM260.003 137c46 0 105.333 31.668 178 95.001c58 50 105.333 101 142 153c48.667 69.333 73 135 73 197c0 56 -21 84 -63 84
c-48 0 -123 -43 -225 -129c-60 -50.667 -104.5 -97.834 -133.5 -141.501s-43.5 -91.5 -43.5 -143.5c0 -76.667 24 -115 72 -115z" />
    <glyph glyph-name="seven" unicode="7" horiz-adv-x="895" 
d="M481 137l15.001 -18.002c-120 -92.667 -208.333 -139 -265 -139c-54 0 -81 32 -81 96c0 140.667 105.667 334.334 317 581.001c110.667 129.333 243 252.333 397 369c-86 12 -172 18 -258 18c-111.333 0 -210.333 -19 -297 -57c-4 -2 -17.5 -9.66699 -40.5 -23
s-34.833 -20 -35.5 -20c-6.66699 0 -13.334 3.33301 -20.001 10c-9.33301 7.33301 -14 15.666 -14 24.999c0 10 15.667 38 47 84l61 90c19.333 33.333 39.333 56.666 60 69.999c13.333 8.66699 61.5 17.334 144.5 26.001s180.167 13 291.5 13h67
c15.333 -0.666992 40.666 -2.66699 75.999 -6c32.667 -3.33301 58 -5 76 -5c27.333 -58.667 41 -114.667 41 -168c0 -18 -2.66699 -32.333 -8 -43c-4 -7.33301 -15 -18.666 -33 -33.999c-9.33301 -8 -42 -38.333 -98 -91
c-97.333 -91.333 -180.666 -182.666 -249.999 -273.999c-103.333 -136 -176.333 -254.667 -219 -356c-23.333 -56 -35 -100.333 -35 -133c0 -18 6 -27 18 -27c12.667 0 27 4 43 12z" />
    <glyph glyph-name="eight" unicode="8" horiz-adv-x="918" 
d="M623 664c25.333 -46 48.999 -94.666 70.999 -145.999c18 -42.667 27 -80 27 -112c0 -88.667 -20.833 -164.334 -62.5 -227.001s-92 -108.167 -151 -136.5s-120.833 -42.5 -185.5 -42.5c-52 0 -99.667 12.667 -143 38c-51.333 30 -77 69.333 -77 118
c0 64 51.333 157.333 154 280c46.667 56 109.334 124.333 188.001 205c-98 114.667 -147 219 -147 313c0 66 14.333 123.333 43 172c56 95.333 166 158.333 330 189c80.667 14.667 176 22 286 22c65.333 0 101.333 -0.333008 108 -1c52.667 -6 79 -22.667 79 -50
c0 -6.66699 -3.33301 -19 -10 -37l-31 -61c-16.667 -25.333 -32.334 -47.333 -47.001 -66c-11.333 -14.667 -30 -22 -56 -22h-22c12 -20.667 18 -37 18 -49c0 -19.333 -8.66699 -38 -26 -56c-55.333 -48 -136.666 -123 -243.999 -225zM562.999 750.001l264 231.001
c44 37.333 72 63.333 84 78c16.667 15.333 25 25.666 25 30.999c0 18.667 -44.333 28 -133 28c-225.333 0 -338 -59.333 -338 -178c0 -22.667 9.16699 -51.5 27.5 -86.5s41.833 -69.5 70.5 -103.5zM509.999 551.002c-188.667 -200 -283 -324.333 -283 -373
c0 -43.333 37.667 -65 113 -65c23.333 0 49.333 6 78 18c58.667 24 101.667 66.333 129 127c13.333 29.333 20 64 20 104c0 72.667 -19 135.667 -57 189z" />
    <glyph glyph-name="nine" unicode="9" horiz-adv-x="938" 
d="M795 731c-134.667 -110.667 -240.668 -185.667 -318.001 -225c-40 -20.667 -76 -31 -108 -31c-30 0 -64.333 22 -103 66c-29.333 34 -53 69.333 -71 106c-24.667 49.333 -37 96.333 -37 141c0 89.333 50.333 184.333 151 285c78 77.333 168.333 143 271 197
c110.667 58.667 198 88 262 88c65.333 0 120 -35.667 164 -107c16 -26 24 -46.333 24 -61c0 -40.667 -45.667 -94 -137 -160c-34 -24.667 -56 -37 -66 -37c-4 0 -6 2.66699 -6 8c0 8 19.333 31.333 58 70c21.333 21.333 32 39 32 53c0 8.66699 -4 13 -12 13
c-48 0 -140.667 -41.667 -278 -125c-130 -79.333 -215.333 -164.666 -256 -255.999c-19.333 -42.667 -29 -75 -29 -97c0 -31.333 18.333 -47 55 -47c51.333 0 132 33.667 242 101c48.667 30 90.334 62 125.001 96c116 114.667 191.667 172 227 172c38 0 57 -15 57 -45
c0 -3.33301 -20.333 -38.333 -61 -105l-252 -407c-72.667 -115.333 -115.667 -182.333 -129 -201c-53.333 -76.667 -104.666 -137.334 -153.999 -182.001c-42 -38 -79.333 -57 -112 -57c-19.333 0 -29 13 -29 39c0 33.333 14.333 72 43 116c31.333 48 62.666 72 93.999 72h4
z" />
    <glyph glyph-name="colon" unicode=":" horiz-adv-x="682" 
d="M176 -4c-32.667 0 -49 17 -49 51c0 50 35.333 98.667 106 146c28.667 18.667 54 28 76 28h4c18 0 27 -11.667 27 -35c0 -47.333 -31.333 -99 -94 -155c-26 -23.333 -49.333 -35 -70 -35zM375 426c-16.667 0 -28.333 5.33594 -35 16.0029
c-9.33301 11.333 -14 25.666 -14 42.999c0 49.333 34 100.666 102 153.999c28 22 52 33 72 33c30 0 45 -16.333 45 -49c0 -21.333 -11.667 -50 -35 -86c-20 -30.667 -40.333 -55.334 -61 -74.001c-27.333 -24.667 -52 -37 -74 -37z" />
    <glyph glyph-name="semicolon" unicode=";" horiz-adv-x="682" 
d="M381 408c-15.333 0 -28.666 5.66699 -39.999 17s-17 25.333 -17 42c0 50 35.333 102.667 106 158c29.333 22.667 52.666 34 69.999 34c30 0 45 -17.667 45 -53c0 -52.667 -30.667 -106.667 -92 -162c-26 -24 -50 -36 -72 -36zM182 -18
c-40.667 2.66699 -61.002 19.667 -61.002 51c0 16 10.333 39 31 69c50 72.667 97.667 109 143 109c26 0 39 -15.667 39 -47c0 -32 -19 -77.667 -57 -137c-35.333 -54 -67.666 -92.333 -96.999 -115c-13.333 -10 -25.666 -17 -36.999 -21h-6
c-6.66699 -1.33301 -10 1.66699 -10 9c0 4 6.5 13.167 19.5 27.5s24.833 32.5 35.5 54.5z" />
    <glyph glyph-name="less" unicode="&#x3c;" horiz-adv-x="1366" 
d="M1266 268v-172l-1094 461v141l1094 459v-170l-881 -358z" />
    <glyph glyph-name="equal" unicode="=" horiz-adv-x="1366" 
d="M172 786v158h1094v-158h-1094zM172 315v158h1094v-158h-1094z" />
    <glyph glyph-name="greater" unicode="&#x3e;" horiz-adv-x="1366" 
d="M172 987v170l1094 -459v-141l-1094 -461v172l881 359z" />
    <glyph glyph-name="question" unicode="?" horiz-adv-x="662" 
d="M301 1090c0 -6 4.50195 -11.3311 13.502 -15.998s16.833 -9 23.5 -13c28.667 -11.333 43 -25 43 -41c0 -8.66699 -1.33301 -13.334 -4 -14.001c-4 0 -11.167 2.33301 -21.5 7s-17.5 7 -21.5 7c-37.333 2.66699 -83 8.66699 -137 18c-10 4.66699 -15 18.334 -15 41.001
c0 19.333 9 49.5 27 90.5s35.667 69.5 53 85.5c28.667 26.667 88 52.667 178 78c58 16.667 110 25 156 25c61.333 0 109.166 -17.167 143.499 -51.5s51.5 -84.833 51.5 -151.5c0 -69.333 -26 -155.333 -78 -258c-24.667 -48 -54.667 -97 -90 -147
c-42 -58.667 -82.333 -108 -121 -148c-80.667 -83.333 -121 -144 -121 -182c0 -2.66699 0.666992 -6.83398 2 -12.501s2 -9.83398 2 -12.501c0 -5.33301 0.666992 -9.33301 2 -12v-14c0 -28.667 -10.333 -43 -31 -43c-22.667 0 -43 18.667 -61 56c-15.333 32 -23 61 -23 87
c0 97.333 115.333 245.333 346 444c39.333 34 62.666 55.333 69.999 64c23.333 26.667 35 54.667 35 84c0 68 -46.333 102 -139 102c-85.333 0 -164 -13.667 -236 -41c-31.333 -12 -47 -22.667 -47 -32zM207.002 6.00195c-19.333 0 -39.166 12.5 -59.499 37.5
s-30.5 48.833 -30.5 71.5c0 53.333 21 109.333 63 168c17.333 24 31.666 36 42.999 36c10 0 22.333 -6.66699 37 -20c18 -16.667 30.333 -32.334 37 -47.001c8 -17.333 12 -35.666 12 -54.999c0 -47.333 -19 -99.333 -57 -156c-16 -23.333 -31 -35 -45 -35z" />
    <glyph glyph-name="at" unicode="@" horiz-adv-x="2068" 
d="M1012 971c128 0 228.33 -61.001 300.997 -183.001l33 156h180l-144 -672c-3.33301 -19.333 -9.33301 -49.333 -18 -90c-8 -35.333 -12 -57.666 -12 -66.999c0 -18 7.5 -33.167 22.5 -45.5s31.833 -18.5 50.5 -18.5c55.333 0 116.333 32.667 183 98
c53.333 52 97 108.667 131 170c46 84 69 179 69 285c0 136.667 -40.333 258 -121 364c-78 102.667 -182.333 176.667 -313 222c-86 30 -180 45 -282 45c-118.667 0 -230 -22 -334 -66c-209.333 -88.667 -355.666 -241.334 -438.999 -458.001
c-40.667 -105.333 -61 -218 -61 -338c0 -241.333 75.667 -429 227 -563c154.667 -136.667 367.667 -205 639 -205c142 0 271.667 22.333 389 67c137.333 52.667 241.333 130.667 312 234h180c-44.667 -90 -114.334 -170.667 -209.001 -242
c-46.667 -35.333 -100.334 -68.166 -161.001 -98.499s-119.667 -53.5 -177 -69.5c-93.333 -26 -205.333 -39 -336 -39c-209.333 0 -390.666 37 -543.999 111c-311.333 150.667 -467 413.334 -467 788.001c0 276.667 86.667 515.667 260 717
c58.667 68.667 125.334 126 200.001 172c77.333 48 158 82.333 242 103c86.667 21.333 182.334 32 287.001 32c255.333 0 463.333 -75.667 624 -227c154.667 -145.333 232 -324.333 232 -537c0 -200 -63.667 -373.333 -191 -520c-123.333 -142 -258.333 -213 -405 -213
c-66.667 0 -114.667 11.333 -144 34c-32 25.333 -50.333 70 -55 134c-58 -68.667 -124.667 -117 -200 -145c-38 -14 -72.333 -21 -103 -21c-69.333 0 -132.666 20.667 -189.999 62c-54.667 39.333 -97 91.666 -127 156.999c-32.667 71.333 -49 149.333 -49 234
c0 71.333 14.333 146.333 43 225c58.667 160.667 152.667 279 282 355c60 35.333 125 53 195 53zM675.997 321.999c0 -118 35.334 -202 106.001 -252c35.333 -24.667 73.666 -37 114.999 -37c86 0 166.667 49 242 147c77.333 100.667 116 218 116 352c0 82 -18 149 -54 201
c-41.333 60 -101 90 -179 90c-130 0 -229.667 -90 -299 -270c-31.333 -81.333 -47 -158.333 -47 -231z" />
    <glyph glyph-name="A" unicode="A" 
 />
    <glyph glyph-name="C" unicode="C" horiz-adv-x="748" 
d="M172 469c58 50.667 144 148.999 258 294.999c63.333 80.667 105.333 135.334 126 164.001c46 64 82.667 122.667 110 176c18.667 36.667 28 61.334 28 74.001c0 9.33301 -2.66699 14 -8 14c-13.333 0 -43.333 -24 -90 -72c-50 -52 -103.333 -118 -160 -198
c-85.333 -120.667 -135.333 -193 -150 -217c-54 -84.667 -92 -163.334 -114 -236.001zM0 218.999c0 123.333 33.998 251 101.998 383c124 242 288.667 449 494 621c84.667 70.667 142 106 172 106c28.667 0 43 -19.667 43 -59c0 -174.667 -224 -479.334 -672 -914.001v-120
c82 92 159.333 173 232 243s128 118.667 166 146c43.333 31.333 76.666 47 99.999 47c18 0 36.167 -11.167 54.5 -33.5s27.5 -42.5 27.5 -60.5c0 -8.66699 -3.33301 -17 -10 -25l-97 -118c-36.667 -47.333 -64.667 -89.333 -84 -126c-14.667 -28 -22 -53.333 -22 -76
c0 -31.333 15 -47 45 -47c31.333 0 102.333 43 213 129v-63c-59.333 -60.667 -100.666 -102 -123.999 -124c-52.667 -49.333 -98 -85.333 -136 -108c-31.333 -18.667 -58.666 -28 -81.999 -28c-52 0 -78 30.667 -78 92c0 86 62.667 219.667 188 401
c-32.667 -17.333 -61.167 -36.166 -85.5 -56.499s-65.166 -63.5 -122.499 -129.5c-55.333 -63.333 -97 -113 -125 -149l-80 -101c-15.333 -14.667 -29 -22 -41 -22c-52 0 -78 64 -78 192z" />
    <glyph glyph-name="D" unicode="D" horiz-adv-x="1323" 
d="M1051 289c-33.333 62.667 -95.668 110.332 -187.001 142.999c-42 15.333 -85.667 26.333 -131 33c-134.667 20.667 -260.334 64.334 -377.001 131.001c-32.667 18.667 -49 46.667 -49 84c0 56.667 10.333 115.167 31 175.5s45.334 106.833 74.001 139.5
c62.667 70.667 172 125 328 163c122.667 29.333 246.667 44 372 44c200.667 0 301 -30 301 -90c0 -90 -21 -146.667 -63 -170c-43.333 -17.333 -107.666 -45.333 -192.999 -84c-87.333 -44.667 -127.666 -67 -120.999 -67c-6.66699 0 -10 2.66699 -10 8
c0 32 41 69.333 123 112c36.667 19.333 55 31.666 55 36.999c0 8.66699 -20.333 13 -61 13c-260.667 0 -456.667 -39.667 -588 -119c-61.333 -37.333 -92 -74.333 -92 -111c0 -26 28.667 -48.667 86 -68l117 -30c214 -58.667 362 -127.667 444 -207
c46.667 -45.333 70 -95.333 70 -150c0 -80 -36.333 -153.667 -109 -221c-56.667 -52.667 -146 -94.334 -268 -125.001c-124 -31.333 -255.667 -47 -395 -47c-258.667 0 -388 44.333 -388 133c0 22 11.667 53.667 35 95c37.333 66 93.333 100.667 168 104h10
c20.667 0 31 -3.33301 31 -10c0 -3.33301 -3.33301 -6.66602 -10 -9.99902c-2.66699 -1.33301 -5.33398 -3 -8.00098 -5c-14 -5.33301 -25 -9.66602 -33 -12.999s-14 -5.66602 -18 -6.99902c-6 -4 -9 -8.66699 -9 -14c0 -14 69 -21 207 -21c128.667 0 227 4 295 12
c149.333 17.333 270.333 64.666 363 141.999z" />
    <glyph glyph-name="E" unicode="E" 
 />
    <glyph glyph-name="G" unicode="G" 
 />
    <glyph glyph-name="I" unicode="I" horiz-adv-x="897" 
d="M365 -29l-61.9971 45.001c-9.33301 8.66699 -14 17 -14 25c0 9.33301 15.667 39.333 47 90l184 309c58.667 103.333 118 223 178 359c64.667 146.667 97 240.667 97 282c0 48 -18.667 72 -56 72c-27.333 0 -66.666 -14.333 -117.999 -43
c-57.333 -32 -111.333 -69 -162 -111s-96.334 -90.333 -137.001 -145c-37.333 -50.667 -56 -94.334 -56 -131.001c0 -12 7.66699 -18 23 -18c16.667 0 42.667 9.33301 78 28c7.33301 4 12.666 6 15.999 6c5.33301 0 8 -3.33301 8 -10c0 -13.333 -26.167 -41.5 -78.5 -84.5
s-88.833 -64.5 -109.5 -64.5c-18.667 0 -47 18 -85 54s-57 68.333 -57 97c0 37.333 38.333 112.333 115 225c74 108.667 165 196.334 273 263.001c123.333 76 223.666 114 300.999 114c102 0 153 -69 153 -207c0 -200.667 -138.667 -518 -416 -952
c1.33301 -6.66699 3.66602 -13.334 6.99902 -20.001c2.66699 -8.66699 4 -16.334 4 -23.001c0 -2 -0.666992 -4 -2 -6l-8.5 -12.5c-3 -4.33301 -4.5 -7.16602 -4.5 -8.49902l-73 -120c-8.66699 -14 -17 -21 -25 -21s-14.667 2.66699 -20 8z" />
    <glyph glyph-name="J" unicode="J" horiz-adv-x="1014" 
d="M496 688c-34 -10.667 -72.333 -41.999 -115 -93.999c-6.66699 -8 -10 -17.667 -10 -29c0 -28.667 32.667 -58.667 98 -90c51.333 -24.667 91.666 -54.667 120.999 -90c26 -31.333 39 -66 39 -104c0 -28.667 -5 -56 -15 -82c-8.66699 -22 -24.334 -46.667 -47.001 -74
c-30 -35.333 -79.667 -64.666 -149 -87.999c-64.667 -22 -138.334 -33 -221.001 -33c-144.667 0 -217 31.333 -217 94c0 18.667 7.16699 42 21.5 70s29.333 46.333 45 55s30.834 13.667 45.501 15c15.333 0 23 -3 23 -9c-1.33301 -6.66699 -9.66602 -12.667 -24.999 -18
l-12 -6c-2.66699 -2.66699 -4 -6 -4 -10c0 -10 38 -15 114 -15c73.333 0 128 2.66699 164 8c40 6 78 17.5 114 34.5s63.667 38.5 83 64.5c2.66699 5.33301 4 9.33301 4 12c0 16.667 -12.333 32.334 -37 47.001c-35.333 21.333 -68.333 37.666 -99 48.999
c-11.333 4 -24 9.66699 -38 17c-95.333 51.333 -142.333 112.666 -141 183.999c0.666992 21.333 14.334 49 41.001 83c24.667 32 54 56.333 88 73c88 43.333 174 71.666 258 84.999c40 6 78.667 9 116 9c98.667 0 204.667 -20.667 318 -62
c18 -6.66699 33.667 -16.667 47 -30c14.667 -18.667 22 -34.334 22 -47.001c0 -18 -10 -44.667 -30 -80l-90 -164l-295 -574c-52.667 -100 -95 -174.333 -127 -223c6.66699 -33.333 10 -47.666 10 -42.999c0 -2 -0.666992 -4 -2 -6l-8 -12c-2.66699 -4 -4 -6.66699 -4 -8
l-74 -121c-8.66699 -14 -17 -21 -25 -21s-14.667 2.66699 -20 8l-62 45c-9.33301 8.66699 -14 17 -14 25c0 7.33301 15.667 37.333 47 90c38 64 87.333 152 148 264l86 162l239 516c4 8 6 16.333 6 25c0 12 -3.33301 24.333 -10 37c-42.667 64 -113 96 -211 96
c-56.667 0 -122 -11.667 -196 -35z" />
    <glyph glyph-name="K" unicode="K" 
 />
    <glyph glyph-name="O" unicode="O" 
 />
    <glyph glyph-name="P" unicode="P" 
 />
    <glyph glyph-name="R" unicode="R" horiz-adv-x="1331" 
d="M240 -154c1.33301 -47.333 11.998 -95.002 31.998 -143.002c6 -10.667 13 -16 21 -16c3.33301 0 6 0.666992 8 2c10.667 4 22.334 13.333 35.001 28l20 -10c-32 -60.667 -64 -113.334 -96 -158.001c-43.333 -60 -83.666 -90 -120.999 -90c-34 0 -60 20 -78 60
c-9.33301 20 -15.333 49 -18 87c-3.33301 40.667 -4.66602 94.334 -3.99902 161.001c0.666992 76 15 168.667 43 278c44.667 173.333 113.167 323.333 205.5 450s195.833 210 310.5 250c58.667 20.667 102.334 31 131.001 31c50 0 87.667 -17.667 113 -53
c5.33301 -7.33301 13.166 -34.833 23.499 -82.5s16.166 -71.5 17.499 -71.5c53.333 88.667 104.333 147.334 153 176.001c34.667 20.667 78.334 31 131.001 31c53.333 0 95.333 -23.333 126 -70c26 -40 39.333 -88.333 40 -145
c1.33301 -143.333 -27.334 -267.666 -86.001 -372.999l31 -30c-104.667 -131.333 -182.667 -197 -234 -197c-16 0 -24 14.333 -24 43c0 58.667 32 138 96 238c30.667 48 58 117 82 207c9.33301 34.667 14 59.667 14 75c0 48 -22.333 72 -67 72
c-94.667 0 -185.667 -70.333 -273 -211c0 -2 2.33301 -8.66699 7 -20c2.66699 -12 4 -19.667 4 -23c-2 -4.66699 -7 -13.667 -15 -27l-73 -120c-8.66699 -14 -17 -21 -25 -21c-6 0 -12.667 2.66699 -20 8l-62 45c-9.33301 8.66699 -14 17 -14 25
c0 7.33301 15.667 37.333 47 90c36 60.667 53.667 121.334 53 182.001c-0.666992 48 -23 72 -67 72c-106.667 0 -200.334 -55.333 -281.001 -166c-70 -96 -120 -199 -150 -309c-8 -29.333 -16.167 -75.833 -24.5 -139.5s-12.166 -108.834 -11.499 -135.501z" />
    <glyph glyph-name="S" unicode="S" horiz-adv-x="860" 
d="M571 465c11.333 19.333 20.332 44.666 26.999 75.999c-44 -15.333 -106 -43.666 -186 -84.999c-89.333 -46 -145.333 -80.667 -168 -104c-15.333 -13.333 -28.333 -37.666 -39 -72.999c-5.33301 -17.333 -8 -37.333 -8 -60c0 -58.667 20.333 -90.667 61 -96
c38 0 95.667 47.667 173 143c54.667 67.333 101.334 133.666 140.001 198.999zM759.999 813c83.333 157.333 124.999 251.662 124.999 282.995c0 10.667 -4.66699 19.834 -14 27.501s-18.333 11.5 -27 11.5c-32 -16 -62.667 -49.667 -92 -101l-43 -71
c2 -8 4.66699 -17.333 8 -28c1.33301 -6 2 -11 2 -15c-32 -52 -54 -78 -66 -78c-6 0 -12.667 2.66699 -20 8l-62 45c-9.33301 6.66699 -14 15 -14 25c36.667 56 54.334 116.667 53.001 182c-1.33301 56 -23.666 84 -66.999 84c-65.333 0 -121.333 -35.667 -168 -107
c-21.333 -33.333 -32.333 -51 -33 -53c0 -6.66699 9 -10 27 -10c10 0 23.667 1 41 3c20 2 33.667 3 41 3c12 0.666992 18 -1.33301 18 -6c-0.666992 -2 -2.83398 -4.5 -6.50098 -7.5s-6.16699 -4.5 -7.5 -4.5c-75.333 -29.333 -131.333 -50 -168 -62
c-3.33301 -1.33301 -12.333 -5.66602 -27 -12.999c-10.667 -6 -19.667 -9 -27 -9c-12 0 -18 7.33301 -18 22c0 100.667 43.667 196.334 131 287.001c36.667 38 77 69.333 121 94c32 18 64.667 27 98 27c50 0 87.667 -16.667 113 -50
c5.33301 -7.33301 13.333 -34.666 24 -81.999s16.334 -71 17.001 -71c60.667 103.333 126 160 196 170c88 0 132 -32.667 132 -98l-33 -123c-12 -44.667 -41.333 -117.667 -88 -219c-26 -56.667 -67 -133.334 -123 -230.001c-54 -102.667 -140 -254 -258 -454
c-32 -50 -66.333 -98 -103 -144c-30.667 -39.333 -79.667 -59 -147 -59c-86.667 0 -157 43 -211 129c-18 28.667 -27 78.334 -27 149.001c0 68.667 36.333 139.334 109 212.001c55.333 56 121.666 105 198.999 147c70.667 38 130.667 59.667 180 65
c44 0 76.333 -16.667 97 -50c7.33301 -12 11 -20 11 -24z" />
    <glyph glyph-name="T" unicode="T" horiz-adv-x="1085" 
d="M506 580c-58 -35.333 -100 -62 -126 -80c-50 -33.333 -88.667 -64 -116 -92c-53.333 -54 -80 -122.333 -80 -205c10 -44 40.667 -66 92 -66c28.667 0 76.667 24.667 144 74c-11.333 31.333 -17 61.333 -17 90c0 62 25 139 75 231c8.66699 16 18 32 28 48zM629 584
c35.333 59.333 89.334 110.333 162.001 153c44.667 26 88.334 39 131.001 39c52.667 0 94.334 -23.333 125.001 -70c26 -40.667 39.333 -89 40 -145c1.33301 -143.333 -27.334 -267.666 -86.001 -372.999l31 -30c-104.667 -131.333 -182.334 -197 -233.001 -197
c-16.667 0 -25 14.333 -25 43c0 59.333 32 138.666 96 237.999c19.333 29.333 40 75.333 62 138c23.333 65.333 35 113.333 35 144c0 48 -22.667 72 -68 72c-28.667 0 -68.334 -14.333 -119.001 -43c-66 -37.333 -119 -88.666 -159 -153.999l-81 -168
c-13.333 -26 -29.333 -51.667 -48 -77c-76 -102.667 -152.667 -154 -230 -154c-84.667 0 -145.667 53.667 -183 161c-13.333 37.333 -20 77.333 -20 120c0 90 51.333 186 154 288c48 47.333 95.667 83.666 143 108.999c52 27.333 100 41 144 41
c66.667 0 100 -18.333 100 -55c0 -14 -7.33301 -29.333 -22 -46c17.333 -4 34.333 -15.333 51 -34z" />
    <glyph glyph-name="V" unicode="V" horiz-adv-x="874" 
d="M723 1130c0 -6 -7.66895 -20.999 -23.002 -44.999l-67 -106l-111 -180c-33.333 -57.333 -77 -138.666 -131 -243.999c-98 -192.667 -147 -323 -147 -391c0 -32.667 17.667 -62 53 -88c88.667 72 172.334 163.167 251.001 273.5s171.667 261.5 279 453.5
c-2.66699 5.33301 -5 11 -7 17s-3 11.333 -3 16c0 50.667 22.667 106.667 68 168l84 110c10 12.667 22.333 19 37 19c24 0 36 -15.333 36 -46c0 -72 -49 -197.333 -147 -376c-105.333 -192 -248 -405.667 -428 -641c-92 -120.667 -158.333 -181 -199 -181
c-58 0 -108.333 46.667 -151 140c-20.667 43.333 -31 89.666 -31 138.999c0 60 26 152.667 78 278s112 243.666 180 354.999l88 145c34 54 51 82.667 51 86c0 10 -6.66699 15 -20 15c-65.333 0 -200.666 -79.333 -405.999 -238c-60 -46 -90 -73.333 -90 -82
c0 -8 6.33301 -12 19 -12c14 0 35.167 2 63.5 6s49.5 6 63.5 6c30 0 45 -5.33301 45 -16c0 -13.333 -23.333 -25.666 -70 -36.999c-83.333 -20 -155 -43.333 -215 -70c-44 -19.333 -70 -29 -78 -29c-12 0 -19.333 5 -22 15c-4 8 -6 23 -6 45c0 92.667 16.667 166.667 50 222
c29.333 50 84.333 103 165 159c176.667 122 337.667 206.667 483 254c57.333 18.667 101.666 28 132.999 28c32.667 0 62.334 -20.333 89.001 -61c24 -36.667 36 -72.334 36 -107.001z" />
    <glyph glyph-name="W" unicode="W" horiz-adv-x="840" 
d="M401 199l31.001 12.001c-62.667 75.333 -123.334 130 -182.001 164c-40.667 23.333 -72 35 -94 35c-7.33301 0 -16.333 -1.33301 -27 -4c-18 -8 -27 -19.667 -27 -35c0 -4.66699 1.33301 -12.334 4 -23.001c23.333 -68 80 -117 170 -147c26 -8.66699 48.667 -13 68 -13
s38.333 3.66699 57 11zM795.001 -126.999c-72.667 44 -143.665 108.336 -212.998 193.003c-64.667 -84 -154.334 -182.333 -269.001 -295c-212 -208 -353.333 -312 -424 -312c-31.333 0 -47 15 -47 45c0 24 23 63.667 69 119c38.667 46 71.667 79.667 99 101
c51.333 39.333 111.333 61.666 180 66.999l72 76l82 98c18.667 27.333 48 67.666 88 120.999c-32.667 -16.667 -64 -25 -94 -25c-33.333 0 -77.666 12.333 -132.999 37c-25.333 11.333 -48 30.666 -68 57.999l-39 53c-26.667 37.333 -45.667 80.333 -57 129
c-8 34 -12 60.667 -12 80c0 68 24.333 111.667 73 131c20 8 42 12 66 12c19.333 0 37.666 -3.33301 54.999 -10c41.333 -16 79 -38.667 113 -68c29.333 -26 69.666 -66.333 120.999 -121c41.333 -44 69.333 -72.667 84 -86l178 318c41.333 75.333 78 139.333 110 192
c-87.333 -34.667 -170.333 -76 -249 -124v81c57.333 49.333 109 91.666 155 126.999c40 30.667 71 53.167 93 67.5s59.333 36.5 112 66.5c36.667 -53.333 55 -104.666 55 -153.999c0 -24 -6 -53.333 -18 -88c-15.333 -44.667 -30.5 -82.5 -45.5 -113.5l-73.5 -156.5
c-88.667 -148.667 -159 -260.667 -211 -336c18.667 -20 47.667 -42.333 87 -67l42 -26z" />
    <glyph glyph-name="X" unicode="X" horiz-adv-x="1237" 
d="M725 610l9.99902 448.996c-66.667 -10.667 -128 -27 -184 -49c-111.333 -44 -204.333 -96 -279 -156c-30 -24 -45 -39 -45 -45c0 -6.66699 9 -10 27 -10c10 0 23.667 1 41 3c20 2 33.667 3 41 3c12 0.666992 18 -1.33301 18 -6
c-0.666992 -2 -2.83398 -4.66699 -6.50098 -8s-6.16699 -5 -7.5 -5c-76.667 -29.333 -132.667 -49.666 -168 -60.999c-48 -15.333 -76.667 -23 -86 -23c-12 0 -18 7.66699 -18 23c0 40.667 11.333 88.334 34 143.001c22 52 54.333 100 97 144
c64.667 65.333 161.334 125.333 290.001 180c136 57.333 254.333 86 355 86c32.667 0 56.834 -5.66699 72.501 -17s23.5 -37.666 23.5 -78.999c0 -27.333 -2 -72.333 -6 -135c-5.33301 -87.333 -8.66602 -160.666 -9.99902 -219.999l186 203c38.667 46 90 100.667 154 164
c12 8 22.667 12 32 12c23.333 0 35 -10 35 -30c0 -27.333 -27.333 -89.666 -82 -186.999c-20 -10.667 -44.333 -18.667 -73 -24l-267 -303l-32 -543v-8c0 -14 3.33301 -24.333 10 -31c6.66699 -9.33301 17.667 -14 33 -14c31.333 0 103 38 215 114
c2.66699 1.33301 6.66699 2 12 2c12 0 18 -5.33301 18 -16c0 -26 -29.667 -68.667 -89 -128c-46.667 -46.667 -88 -82.667 -124 -108c-55.333 -39.333 -106.333 -59 -153 -59c-38.667 0 -64 20 -76 60c-6.66699 20.667 -10 56.667 -10 108c0 -1.33301 0.666992 17.667 2 57
v84c1.33301 25.333 2.66602 63.666 3.99902 114.999c0 29.333 0.666992 78.333 2 147c-90 -96 -155.667 -168 -197 -216s-96.666 -117.333 -165.999 -208c-24 -29.333 -57 -59.666 -99 -90.999c-50 -38.667 -88.667 -58 -116 -58c-21.333 0 -32 16.333 -32 49
c0 37.333 19.333 84.166 58 140.499s84.667 102.5 138 138.5c9.33301 6 38.666 21.667 87.999 47z" />
    <glyph glyph-name="Z" unicode="Z" horiz-adv-x="799" 
d="M518 465c11.333 19.333 20.332 44.666 26.999 75.999c-45.333 -16 -107 -44 -185 -84c-87.333 -44.667 -144 -79.667 -170 -105c-14 -13.333 -26.667 -37.666 -38 -72.999c-6 -18.667 -9 -38.667 -9 -60c0 -58.667 20.667 -90.667 62 -96c38 0 95.667 47.667 173 143
c56.667 70 103.334 136.333 140.001 199zM749.999 647c-62.667 -136.667 -135.669 -270.003 -219.002 -400.003c-44.667 -70.667 -92 -136.667 -142 -198c-32 -39.333 -81 -59 -147 -59c-30.667 0 -58 4.66699 -82 14c-50 20 -93 58.333 -129 115
c-18 28.667 -27 78.334 -27 149.001c0 68.667 36 139.334 108 212.001c55.333 56.667 121.666 105.667 198.999 147c70.667 38 131 59.667 181 65c44 0 76.333 -16.667 97 -50c7.33301 -12 11 -20 11 -24c45.333 106 118.333 261.667 219 467c42 76 81 137.667 117 185
c30.667 40.667 52.334 61 65.001 61c16.667 0 30.834 -7.16699 42.501 -21.5s17.5 -30.166 17.5 -47.499c0 -34 -25.333 -93.667 -76 -179c-101.333 -170.667 -179.666 -316 -234.999 -436z" />
    <glyph glyph-name="bracketleft" unicode="[" horiz-adv-x="598" 
d="M776 1360c50.667 -6.66699 109.335 -10 176.002 -10c45.333 0 107 3.33301 185 10l-52 -111c-8.66699 -18.667 -21.334 -43 -38.001 -73c-25.333 -34.667 -59 -52 -101 -52c-27.333 0 -76.333 9 -147 27l-250 -436l-125 -211l-102 -172l-86 -144
c-75.333 -134 -130 -261 -164 -381c68 24.667 126 37 174 37c60 0 114.667 -14.333 164 -43c-81.333 -122 -134 -227 -158 -315c-20.667 13.333 -41.334 24.333 -62.001 33c-21.333 6.66699 -48.333 10 -81 10c-46 0 -99.333 -8.33301 -160 -25c-29.333 -8 -47 -12 -53 -12
c-38.667 0 -58 42.333 -58 127c0 83.333 45 207 135 371c63.333 114.667 200 342 410 682l135 225l86 147z" />
    <glyph glyph-name="backslash" unicode="\" horiz-adv-x="575" 
d="M573 -135h-145l-424 1515h146z" />
    <glyph glyph-name="bracketright" unicode="]" horiz-adv-x="748" 
d="M545 1372c48.667 -28.667 95 -42.998 139 -42.998c30 0 73 7 129 21c48 12 76 18 84 18c40.667 0 61 -36 61 -108c0 -116 -69.333 -291.667 -208 -527l-293 -483l-172 -289l-262 -459c-22.667 1.33301 -55.667 2.66602 -99 3.99902c-48 1.33301 -82 2 -102 2
c-52 0 -106 -3.33301 -162 -10c23.333 56.667 45.333 104.667 66 144c16 31.333 33.667 53.666 53 66.999c18.667 16.667 41.667 25 69 25c19.333 0 46.333 -4.16699 81 -12.5s58.334 -12.5 71.001 -12.5l610 1049c50 90 83 160.333 99 211c7.33301 22 14 50 20 84
c-32 -12 -64 -21.667 -96 -29c-28 -6.66699 -54.667 -10 -80 -10c-50.667 0 -105.334 15 -164.001 45c28 44 67 112.333 117 205c14.667 32 27.667 68 39 108z" />
    <glyph glyph-name="asciicircum" unicode="^" horiz-adv-x="961" 
d="M477 1128l-239 -598h-185l355 801h143l356 -801h-182z" />
    <glyph glyph-name="underscore" unicode="_" horiz-adv-x="1024" 
d="M-12 -256v102h1048v-102h-1048z" />
    <glyph glyph-name="grave" unicode="`" horiz-adv-x="961" 
d="M440 -23c0 4.66699 -2.00098 7 -6.00098 7c-27.333 0 -41 13.667 -41 41c0 52 30 103 90 153c24.667 20.667 47.334 31 68.001 31c27.333 0 41 -17.667 41 -53c0 -36.667 -13 -75 -39 -115c-30 -46 -59.333 -82.333 -88 -109c-32 -30 -53.333 -45 -64 -45
c-4 0 -6 2.33301 -6 7c0 6 7.5 19.167 22.5 39.5s22.5 34.833 22.5 43.5zM196.999 -23c0 4.66699 -3 7.00098 -9 7.00098c-27.333 0 -41 13.667 -41 41c0 50.667 30.333 101.667 91 153c24 20.667 46.333 31 67 31c27.333 0 41 -17.667 41 -53
c0 -70 -42.333 -144.667 -127 -224c-32 -30 -52.333 -45 -61 -45c-4 0 -6 2.33301 -6 7c0 9.33301 6.66699 22.666 20 39.999c16.667 22 25 36.333 25 43z" />
    <glyph glyph-name="a" unicode="a" horiz-adv-x="870" 
d="M184 197c-2.66699 -7.33301 -12.668 -13.6709 -30.001 -19.0039c-5.33301 -1.33301 -10.5 -3.33301 -15.5 -6s-7.5 -6 -7.5 -10c0 -10 47.667 -15 143 -15c156.667 0 273.667 14.333 351 43c52.667 19.333 89.334 41.333 110.001 66c2.66699 5.33301 4 8.66602 4 9.99902
c0 14.667 -18.333 30.334 -55 47.001c-43.333 20 -79 34.667 -107 44c-14.667 4.66699 -35.667 12 -63 22c-135.333 58 -203 121.333 -203 190c7.33301 52.667 44.333 96.334 111 131.001c75.333 39.333 160.666 64.666 255.999 75.999
c13.333 1.33301 38.666 2.66602 75.999 3.99902c70 2 107.333 -13 112 -45c2.66699 -19.333 4 -33.666 4 -42.999c0 -12.667 -2 -25.667 -6 -39c-6.66699 -21.333 -13.5 -35 -20.5 -41s-21.833 -16.667 -44.5 -32c-20 -10 -40.667 -23 -62 -39
c-11.333 -8.66699 -27 -21.667 -47 -39c-11.333 -12.667 -18.666 -19 -21.999 -19c-2.66699 0.666992 -4 2.66699 -4 6v5c0 6.66699 4.66699 18 14 34c12 16.667 27.667 33.334 47 50.001c22 14.667 33 24 33 28c-1.33301 4 -8.33301 6 -21 6
c-0.666992 0 -7.33398 -0.666992 -20.001 -2c-65.333 -6.66699 -100.666 -10.667 -105.999 -12c-46 -7.33301 -77.667 -19.666 -95 -36.999c-9.33301 -9.33301 -14 -19 -14 -29c0 -26.667 41.667 -56.667 125 -90c64.667 -26 114.334 -56 149.001 -90
c32.667 -32 49 -66.667 49 -104c0 -30 -6 -57.333 -18 -82c-28 -57.333 -75 -100.333 -141 -129c-62.667 -27.333 -142.667 -46.666 -240 -57.999c-49.333 -5.33301 -96.333 -8 -141 -8c-180.667 0 -271 31.667 -271 95c0 14.667 8.33301 36.334 25 65.001
c27.333 47.333 66.333 72 117 74c18.667 0.666992 28 -2 28 -8z" />
    <glyph glyph-name="b" unicode="b" horiz-adv-x="604" 
d="M213 133c53.333 8.66699 112.001 58.666 176.001 149.999c49.333 70 74 135.333 74 196c0 56 -21.333 84 -64 84c-39.333 0 -85 -26 -137 -78c-38.667 -39.333 -71.834 -82.166 -99.501 -128.499s-41.5 -98.833 -41.5 -157.5c11.333 -44 42 -66 92 -66zM84.001 24.999
c-68 32.667 -102.003 90.6689 -102.003 174.002c0 20 2.66699 43 8 69c13.333 64.667 29.666 116.667 48.999 156c18 36.667 53.333 88 106 154c77.333 97.333 159 228.666 245 393.999c34.667 67.333 53.334 112.666 56.001 135.999c0 26 -13.333 39 -40 39
c-43.333 0 -90.666 -21.333 -141.999 -64c-14.667 -13.333 -37.334 -32.333 -68.001 -57c-5.33301 -4 -10 -6 -14 -6c-19.333 1.33301 -28.666 14.333 -27.999 39c0 18 1.33301 40 4 66c2.66699 10 9.33398 28.333 20.001 55c12 30.667 31 66.667 57 108
c16.667 28 38 67.667 64 119c8 8 13.333 12.667 16 14c3.33301 0 6.33301 -1.33301 9 -4v-2c0 -5.33301 -1.66699 -15.666 -5 -30.999c-2 -6 -4.66699 -23.667 -8 -53c-1.33301 -12.667 -2 -30.334 -2 -53.001c66 28.667 122 43 168 43c87.333 0 131 -32.667 131 -98
c0 -29.333 -11 -70.333 -33 -123c-8.66699 -20.667 -23.667 -52 -45 -94l-53 -101c-18 -36 -41.333 -79.667 -70 -131l-61 -110c5.33301 6.66699 27.333 10 66 10c66 0 117.333 -19.833 154 -59.5s55 -92.834 55 -159.501c0 -85.333 -26.667 -169.333 -80 -252
c-47.333 -73.333 -117.666 -130.666 -210.999 -171.999c-46 -20.667 -89.667 -31 -131 -31c-42 0 -80.333 8.33301 -115 25z" />
    <glyph glyph-name="c" unicode="c" horiz-adv-x="983" 
d="M242 -537c102.667 16 186.001 53.001 250.001 111.001s129.333 138 196 240c70 107.333 115 199.333 135 276c4 15.333 6 29.666 6 42.999c0 60.667 -25.667 103 -77 127c-66 31.333 -99 55.333 -99 72c0 8 3.66699 15.333 11 22c21.333 23.333 74.333 37 159 41
c20 0.666992 31 -0.666016 33 -3.99902c0 -4 -9 -11.333 -27 -22c-32.667 -31.333 -49 -54 -49 -68v-4c0.666992 -2.66699 2 -4 4 -4c4 1.33301 10.333 6 19 14c8.66699 10.667 21 21 37 31c12 10 28.333 20.333 49 31c16 10.667 28.333 19.334 37 26.001
c4.66699 4.66699 10 15.667 16 33c2.66699 8 4 17 4 27c0 10.667 -1.33301 23.667 -4 39c-2 24 -31.333 36 -88 36c-19.333 0 -39.666 -1.33301 -60.999 -4c-72.667 -9.33301 -130 -29 -172 -59c-48.667 -34.667 -75.334 -74.334 -80.001 -119.001
c0 -22.667 16.333 -50 49 -82c37.333 -36.667 59.5 -62.834 66.5 -78.501s10.167 -34.5 9.5 -56.5c-0.666992 -30.667 -8.33398 -64.667 -23.001 -102c-46 -116.667 -121 -223.334 -225 -320.001c-19.333 -19.333 -50 -46.333 -92 -81c-32.667 -20.667 -82 -31 -148 -31
c-25.333 0 -44.333 0.666992 -57 2c-37.333 4 -66.666 18.333 -87.999 43c-23.333 26 -34.333 55.333 -33 88c4 90.667 43.667 180.667 119 270c1.33301 1.33301 29.333 39 84 113c20 27.333 35 47 45 59l68 82c23.333 28.667 41 51.334 53 68.001
c27.333 33.333 67.333 85 120 155c102.667 150.667 154 238 154 262c0 23.333 -26 36.333 -78 39v0c-18.667 0 -55.334 -28 -110.001 -84l-101 -106c-24 -27.333 -56 -67.666 -96 -120.999l-98 -131c-75.333 -102.667 -143 -201.667 -203 -297
c-46.667 -74 -79.334 -141 -98.001 -201c-14 -44.667 -20.333 -91.667 -19 -141c2.66699 -106.667 46.334 -180.334 131.001 -221.001c26 -12.667 78.667 -19 158 -19c49.333 0 87 2 113 6z" />
    <glyph glyph-name="d" unicode="d" horiz-adv-x="1352" 
d="M1182 637c-58 -34.667 -99.999 -61 -125.999 -79c-46.667 -31.333 -85.334 -62.333 -116.001 -93c-27.333 -27.333 -45.666 -55.333 -54.999 -84c-16.667 -74 -25 -114.333 -25 -121c0 -43.333 30.667 -65 92 -65c28.667 0 76.667 24.333 144 73
c-11.333 31.333 -17 61.333 -17 90c0 40 9 83 27 129c19.333 48.667 44.666 98.667 75.999 150zM774.001 498c0 22 -5.6709 43 -17.0039 63c-13.333 23.333 -30 35 -50 35c-106.667 0 -200.334 -55.333 -281.001 -166c-70 -96 -120 -199 -150 -309
c-8 -29.333 -16.167 -75.833 -24.5 -139.5s-12.166 -108.834 -11.499 -135.501c1.33301 -47.333 12 -95 32 -143c6 -10.667 13 -16 21 -16c3.33301 0 6 0.666992 8 2c10.667 4 22.334 13.333 35.001 28l20 -10c-32 -60.667 -64 -113.334 -96 -158.001
c-43.333 -60 -83.666 -90 -120.999 -90c-34 0 -60 20 -78 60c-9.33301 20 -15.333 49 -18 87c-3.33301 40.667 -4.66602 94.334 -3.99902 161.001c0.666992 76 15 168.667 43 278c44.667 173.333 113.167 323.333 205.5 450s195.833 210 310.5 250
c58.667 20.667 102.334 31 131.001 31c50 0 87.667 -17.667 113 -53c5.33301 -7.33301 13.166 -34.833 23.499 -82.5s16.166 -71.5 17.499 -71.5c80 138 177.667 207 293 207c66.667 0 100 -18.333 100 -55c0 -14 -7.66699 -29 -23 -45c44 -9.33301 66 -40.666 66 -93.999
c0 -81.333 -28 -167.333 -84 -258l18 -19h15c10.667 0 22.334 2.66699 35.001 8l86 62v-68c-46 -40.667 -81.667 -67.334 -107 -80.001c-22 -10.667 -52 -16 -90 -16h-25c-87.333 -102.667 -163.666 -154 -228.999 -154c-76.667 0 -134.667 46 -174 138
c-14 32.667 -21 80.334 -21 143.001c0 21.333 6 55.333 18 102z" />
    <glyph glyph-name="e" unicode="e" horiz-adv-x="840" 
d="M324 -377c79.333 132 131.002 220.001 155.002 264.001c68.667 126 128 245.667 178 359c64.667 146.667 97 240.667 97 282c0 48 -18.667 72 -56 72c-27.333 0 -66.666 -14.333 -117.999 -43c-57.333 -32 -111.333 -69 -162 -111s-96.334 -90.333 -137.001 -145
c-37.333 -50.667 -56 -94.334 -56 -131.001c0 -12 7.66699 -18 23 -18c16.667 0 42.667 9.33301 78 28c7.33301 4 12.666 6 15.999 6c5.33301 0 8 -3.33301 8 -10c0 -13.333 -26.167 -41.5 -78.5 -84.5s-88.833 -64.5 -109.5 -64.5c-18.667 0 -47 18 -85 54
s-57 68.333 -57 97c0 37.333 38.333 112.333 115 225c74 108.667 165 196.334 273 263.001c123.333 76 223.666 114 300.999 114c102 0 153 -69 153 -207c0 -110.667 -48 -267.334 -144 -470.001c-69.333 -147.333 -150.333 -293 -243 -437
c6.66699 -33.333 10 -47.666 10 -42.999c0 -2 -0.666992 -4 -2 -6l-8 -12c-2.66699 -4 -4 -6.66699 -4 -8l-74 -121c-8.66699 -14 -16.667 -21 -24 -21c-8.66699 0 -15.667 2.66699 -21 8l-61 45c-10 7.33301 -15 15.666 -15 24.999c0 6.66699 16 36.667 48 90z" />
    <glyph glyph-name="f" unicode="f" horiz-adv-x="1106" 
d="M506 580c-58 -35.333 -100 -62 -126 -80c-50 -33.333 -88.667 -64 -116 -92c-53.333 -54 -80 -122.333 -80 -205c10 -44 40.667 -66 92 -66c28.667 0 76.667 24.667 144 74c-11.333 31.333 -17 61.333 -17 90c0 62 25 139 75 231c8.66699 16 18 32 28 48zM928 586
c-8.66699 6.66699 -18.332 10.001 -28.999 10.001c-28.667 0 -68.334 -14.333 -119.001 -43c-66 -37.333 -119 -88.666 -159 -153.999l-81 -168c-13.333 -26 -29.333 -51.667 -48 -77c-76 -102.667 -152.667 -154 -230 -154c-84.667 0 -145.667 53.667 -183 161
c-13.333 37.333 -20 77.333 -20 120c0 90 51.333 186 154 288c48 47.333 95.667 83.666 143 108.999c52 27.333 100 41 144 41c66.667 0 100 -18.333 100 -55c0 -14 -7.33301 -29.333 -22 -46c17.333 -4 34.333 -15.333 51 -34c35.333 59.333 89.333 110.333 162 153
c44.667 26 88.334 39 131.001 39c49.333 0 95.666 -4.66699 138.999 -14c33.333 -7.33301 51.666 -25 54.999 -53c2.66699 -24 4 -51.333 4 -82c0 -47.333 -28 -104 -84 -170c-25.333 -25.333 -60.666 -65 -105.999 -119c-8.66699 -12.667 -12.667 -25.667 -12 -39
c1.33301 -24.667 17 -44.334 47 -59.001c44.667 -21.333 67 -56.333 67 -105c0 -19.333 -4.66699 -39.666 -14 -60.999c-24 -55.333 -60 -117.333 -108 -186l-160 -222c0 -2.66699 1.66699 -9 5 -19s5 -18 5 -24c0 -2 -0.666992 -4 -2 -6l-13 -20l-73 -121
c-8.66699 -14 -17 -21 -25 -21s-14.667 2.66699 -20 8l-62 45c-9.33301 8.66699 -14 17 -14 25c0 8.66699 15.667 38.667 47 90l82 134c35.333 59.333 60 102.666 74 129.999c7.33301 14 16.333 29.333 27 46l25 41l23 42c32 58.667 48 97.667 48 117
c0 13.333 -2.5 24.833 -7.5 34.5s-21.5 31.167 -49.5 64.5c-22.667 27.333 -34 49.666 -34 66.999c6 26.667 25.333 59.334 58 98.001c61.333 72 92 128 92 168c0 10.667 -2.66699 17.667 -8 21z" />
    <glyph glyph-name="g" unicode="g" horiz-adv-x="870" 
d="M103 -125c-23.333 -49.333 -37.334 -97.666 -42.001 -144.999c0 -66.667 40.333 -110.334 121 -131.001c23.333 -6 46 -9 68 -9c56 0 109 19 159 57c22.667 17.333 46 38 70 62c84.667 84.667 146.334 169.334 185.001 254.001c8 17.333 12 37.333 12 60
c0 39.333 -13.667 70 -41 92c-24 16 -61.667 24 -113 24c-61.333 0 -124.333 -11.333 -189 -34c-97.333 -34.667 -174 -111.334 -230 -230.001zM163.999 -555c-108 0 -184 42.002 -228 126.002c-22 43.333 -33.333 85.333 -34 126c-1.33301 96 16 178.333 52 247
c21.333 40 42.666 71.667 63.999 95c68 73.333 160.333 130.333 277 171c47.333 16 94.333 30 141 42c30.667 74 84 156.667 160 248c-58.667 -12 -104.334 -21 -137.001 -27l-60 -10c-30.667 -62 -79.667 -122 -147 -180v65c11.333 13.333 27.666 34.666 48.999 63.999
c-40.667 14.667 -61 39.667 -61 75c0 54.667 34.667 119.667 104 195c28.667 31.333 55.334 51.666 80.001 60.999c9.33301 4.66699 18.333 7 27 7c13.333 0 20 -6.33301 20 -19c0 -10.667 -10.333 -33.667 -31 -69c136.667 21.333 223.334 32 260.001 32
c14 0 23.667 -1.33301 29 -4c11.333 -6 21 -20.333 29 -43c6.66699 -20 10 -41.667 10 -65c0 -20 -27.333 -59 -82 -117c-24.667 -26 -41.667 -45 -51 -57c-18.667 -24 -31 -46 -37 -66c-2.66699 -9.33301 -4 -18.333 -4 -27c0 -43.333 59.333 -83.333 178 -120
c52 -16 78 -55.667 78 -119c0 -18.667 -2 -35.667 -6 -51c-29.333 -113.333 -90.666 -227 -183.999 -341c-39.333 -47.333 -75 -84 -107 -110c-23.333 -19.333 -59.333 -40.333 -108 -63c-95.333 -44 -189 -66 -281 -66z" />
    <glyph glyph-name="h" unicode="h" horiz-adv-x="870" 
d="M625 864c6.66699 0 12.6641 0.65918 17.9971 1.99219c17.333 2 28.666 13.333 33.999 34c2.66699 9.33301 5 18 7 26c0 34 -23.333 59 -70 75c-16 5.33301 -39.667 14.333 -71 27c-108 48.667 -162 102.667 -162 162c9.33301 91.333 107 150.666 293 177.999
c18 2.66699 38.333 4 61 4c56.667 0 86.667 -13 90 -39c1.33301 -10.667 2 -23 2 -37c0 -13.333 -1.33301 -24.666 -4 -33.999c-20 -12.667 -48.667 -32.667 -86 -60c-16.667 -14 -29.167 -26 -37.5 -36s-14.166 -15 -17.499 -15c-1.33301 0.666992 -2 2.66699 -2 6v4
c0 6.66699 3.33301 16.334 10 29.001c10 14.667 23 29 39 43c16.667 12 25 20 25 24c0 3.33301 -4.33301 5 -13 5c-4 0 -10.667 -0.666992 -20 -2c-79.333 -11.333 -138 -36.666 -176 -75.999c-6.66699 -6.66699 -10 -15 -10 -25c0 -19.333 20.333 -39 61 -59
c12.667 -6 25 -12.333 37 -19c39.333 -18.667 93.333 -46.667 162 -84c43.333 -29.333 65 -69.333 65 -120c0 -28.667 -7.33301 -48.667 -22 -60c-16.667 -17.333 -40.667 -28.333 -72 -33h-182l116 -79c51.333 -34.667 85 -58.667 101 -72
c26.667 -19.333 46.667 -36.666 60 -51.999s21.333 -33.666 24 -54.999v-4c0 -22 -13.333 -48 -40 -78c-22 -24 -45 -43 -69 -57c-8 0 -12 -3.33301 -12 -10c0 -8 10.167 -28.667 30.5 -62s30.5 -55.666 30.5 -66.999c0 -30 -6 -57.333 -18 -82
c-28 -57.333 -75 -100.333 -141 -129c-62.667 -27.333 -142.667 -46.666 -240 -57.999c-49.333 -5.33301 -96.333 -8 -141 -8c-180.667 0 -271 31.667 -271 95c0 14.667 8.33301 36.334 25 65.001c27.333 47.333 66.333 72 117 74c18.667 0.666992 28 -2 28 -8
c-2.66699 -7.33301 -12.667 -13.666 -30 -18.999c-5.33301 -1.33301 -10.5 -3.33301 -15.5 -6s-7.5 -6 -7.5 -10c0 -10 47.667 -15 143 -15c156.667 0 273.667 14.333 351 43c52.667 19.333 89.334 41.333 110.001 66c2.66699 5.33301 4 8.66602 4 9.99902
c0 15.333 -18.333 31 -55 47c-22 0 -49.667 6.33301 -83 19l-52 18c-41.333 13.333 -100.666 36 -177.999 68c-81.333 42 -127.333 79.333 -138 112c-1.33301 10 -2.66602 22.333 -3.99902 37c1.33301 15.333 5 29.666 11 42.999c2.66699 14 8 21 16 21
c18.667 0 52 -13 100 -39l224 -100c18 -9.33301 39 -13.666 63 -12.999c4.66699 0 12.834 0.333008 24.501 1s20.5 1 26.5 1c10 1.33301 17.667 5.66602 23 12.999c8 4.66699 12 10 12 16v4c-2.66699 26.667 -51.667 73.667 -147 141l-126 96
c-51.333 37.333 -104.333 73 -159 107c-7.33301 4.66699 -12 14.334 -14 29.001v8c0 26.667 4.33301 42.334 13 47.001c4 0.666992 10.333 2 19 4c3.33301 0 28 -6.66699 74 -20l118 -38c51.333 -16 90.666 -24 117.999 -24z" />
    <glyph glyph-name="i" unicode="i" horiz-adv-x="901" 
d="M618 748c50 18.667 94.001 28 132.001 28c52.667 0 94.334 -23.333 125.001 -70c26 -40.667 39.333 -89 40 -145c1.33301 -143.333 -27.334 -267.666 -86.001 -372.999l31 -30c-104.667 -131.333 -182.334 -197 -233.001 -197c-16.667 0 -25 14.333 -25 43
c0 59.333 32 138.666 96 237.999c19.333 29.333 40 75.333 62 138c23.333 65.333 35 113.333 35 144c0 48 -22.667 72 -68 72c-63.333 0 -157 -51.333 -281 -154c-48.667 -40.667 -99.667 -97.334 -153 -170.001c-36.667 -50.667 -55 -94.334 -55 -131.001
c0 2.66699 5.33301 -1.33301 16 -12c4 -4 10 -6 18 -6c15.333 0 41.333 9.66699 78 29c36 13.333 49.667 20 41 20c0 -16.667 -30.667 -52 -92 -106c-52 -45.333 -89.667 -68 -113 -68c-18.667 0 -46.834 18 -84.501 54s-56.5 68.667 -56.5 98c0 8.66699 10.333 35 31 79
c24 50.667 52 99.334 84 146.001c48.667 70.667 92.334 125.334 131.001 164.001c92 92 201 161.667 327 209z" />
    <glyph glyph-name="j" unicode="j" horiz-adv-x="614" 
d="M258 332l-0.00195312 235c-23.333 -5.33301 -46.666 -16 -69.999 -32c-28.667 -20 -52.334 -38.667 -71.001 -56c-25.333 -23.333 -41 -35 -47 -35c-7.33301 0 -11 9.66699 -11 29c0 18.667 20 52.667 60 102c44 54.667 87.667 100.667 131 138
c46.667 40.667 81.334 61 104.001 61c31.333 0 47 -27.333 47 -82c0 -12.667 -0.666992 -29.667 -2 -51c-1.33301 -26 -2 -43 -2 -51c0 -18.667 -0.666992 -52.334 -2 -101.001c147.333 157.333 234.666 236 261.999 236c8.66699 0 15.334 -3 20.001 -9s7 -14 7 -24
c0 -21.333 -17.833 -55 -53.5 -101s-59.5 -69 -71.5 -69c-16 0 -29 2.66699 -39 8l-127 -161c2 -75.333 10.667 -125.666 26 -150.999c8.66699 -15.333 21.334 -23 38.001 -23c18.667 0 41.667 10 69 30c32 23.333 75.667 60.333 131 111v-70
c-136 -188 -232.667 -282 -290 -282c-34.667 0 -59.334 18.333 -74.001 55c-16.667 42 -27 100.667 -31 176l-115 -139c-6.66699 -8 -10 -17.667 -10 -29c0 -28 33 -58 99 -90c50.667 -24.667 90.667 -54.667 120 -90c26 -31.333 39 -66.333 39 -105
c0 -29.333 -4.5 -55.833 -13.5 -79.5s-24.333 -48.334 -46 -74.001s-44.834 -44.834 -69.501 -57.501c-51.333 -27.333 -114.666 -46.333 -189.999 -57c-36.667 -5.33301 -63.334 -8 -80.001 -8c-144.667 0 -217 31.333 -217 94c0 14.667 6.5 36.334 19.5 65.001
s28.833 48.667 47.5 60c16.667 8 31.667 12.667 45 14c15.333 0 23 -2.66699 23 -8c-1.33301 -8 -9.66602 -14 -24.999 -18l-12 -6c-2.66699 -2.66699 -4 -6.33398 -4 -11.001c0 -4 6.83301 -6.66699 20.5 -8s45.167 -3.33301 94.5 -6
c58.667 -1.33301 102.334 1.33398 131.001 8.00098c50.667 12 88.667 23.667 114 35c42 18.667 72.333 40.667 91 66c0 22 -13.5 41 -40.5 57s-48.833 27.333 -65.5 34s-41 17.334 -73 32.001c-74.667 39.333 -112 94.333 -112 165c7.33301 48 52.333 113 135 195
c32 31.333 62 57.333 90 78z" />
    <glyph glyph-name="k" unicode="k" horiz-adv-x="430" 
d="M442 373c-11.333 -93.333 -87.0029 -262.001 -227.003 -506.001c-52 -90 -92.333 -157 -121 -201c6.66699 -33.333 10 -47.666 10 -42.999c0 -2 -0.666992 -4 -2 -6l-8 -12c-2.66699 -4 -4 -6.66699 -4 -8l-74 -121c-8.66699 -14 -16.667 -21 -24 -21
c-8 0 -15 2.66699 -21 8l-61 45c-9.33301 8.66699 -14 17 -14 25s15.667 38 47 90c74 122.667 125.667 210.667 155 264l79 150l85 164c4 8 6 16 6 24c0 14 -6.66699 21 -20 21c-15.333 0 -35.666 -12.667 -60.999 -38c-21.333 -21.333 -36.666 -40.666 -45.999 -57.999
c-7.33301 -14 -19 -21 -35 -21c-31.333 0 -56.666 29 -75.999 87c-14.667 44.667 -22 86.667 -22 126c0 40.667 7 76.334 21 107.001c16.667 37.333 37.667 74.666 63 111.999c40 58.667 77 105 111 139c27.333 27.333 56.666 41 87.999 41
c18.667 0 34.834 -3.66699 48.501 -11s20.5 -18 20.5 -32c0 -14.667 -12 -37.667 -36 -69c-21.333 -28.667 -52.333 -61.667 -93 -99c-16 -14.667 -33 -35.334 -51 -62.001c-22 -32 -33 -55.667 -33 -71c0 -17.333 7 -26 21 -26c87.333 78.667 153 118 197 118
c51.333 0 77 -38.667 77 -116z" />
    <glyph glyph-name="l" unicode="l" horiz-adv-x="1782" 
d="M1167 776c50 0 87.667 -17.667 113 -53c7.33301 -8.66699 15.333 -37.334 24 -86.001c7.33301 -45.333 13 -68 17 -68c50 86.667 101.333 145.334 154 176.001c35.333 20.667 79 31 131 31c47.333 0 84.666 -17.667 111.999 -53c36 -46.667 54 -100.667 54 -162
c0 -144.667 -28.667 -269 -86 -373l30 -30c-104.667 -131.333 -182.334 -197 -233.001 -197c-16.667 0 -25 14.333 -25 43c0 59.333 32 138.666 96 237.999c19.333 29.333 40 75.333 62 138c23.333 65.333 35 113.333 35 144c0 48 -22.667 72 -68 72
c-96 0 -186.667 -70.333 -272 -211c0.666992 -3.33301 2.66699 -10 6 -20c2.66699 -12 4 -19.667 4 -23c-2.66699 -7.33301 -7.33398 -16.333 -14.001 -27l-74 -120c-8.66699 -14 -17 -21 -25 -21c-6 0 -12.667 2.66699 -20 8l-62 45c-9.33301 8.66699 -14 17 -14 25
c0 8.66699 15.667 38.667 47 90c36 59.333 53.667 120 53 182c-0.666992 48 -23 72 -67 72c-94.667 0 -185.667 -70.333 -273 -211c0 -2 2.33301 -8.66699 7 -20c2.66699 -12 4 -19.667 4 -23c-2 -4.66699 -7 -13.667 -15 -27l-73 -120c-8.66699 -14 -17 -21 -25 -21
c-6 0 -12.667 2.66699 -20 8l-62 45c-9.33301 8.66699 -14 17 -14 25c0 7.33301 15.667 37.333 47 90c36 60.667 53.667 121.334 53 182.001c-0.666992 48 -23 72 -67 72c-106.667 0 -200.334 -55.333 -281.001 -166c-70 -96 -120 -199 -150 -309
c-8 -29.333 -16.167 -75.833 -24.5 -139.5s-12.166 -108.834 -11.499 -135.501c1.33301 -47.333 12 -95 32 -143c6 -10.667 13 -16 21 -16c3.33301 0 6 0.666992 8 2c10.667 4 22.334 13.333 35.001 28l20 -10c-32 -60.667 -64 -113.334 -96 -158.001
c-43.333 -60 -83.666 -90 -120.999 -90c-34 0 -60 20 -78 60c-9.33301 20 -15.333 49 -18 87c-3.33301 40.667 -4.66602 94.334 -3.99902 161.001c0.666992 76 15 168.667 43 278c44.667 173.333 113.167 323.333 205.5 450s195.833 210 310.5 250
c58.667 20.667 102.334 31 131.001 31c50 0 87.667 -17.667 113 -53c5.33301 -7.33301 13.166 -34.833 23.499 -82.5s16.166 -71.5 17.499 -71.5c53.333 88.667 104.333 147.334 153 176.001c34.667 20.667 78.334 31 131.001 31z" />
    <glyph glyph-name="m" unicode="m" horiz-adv-x="696" 
d="M528 465c11.333 19.333 20.332 44.666 26.999 75.999c-44 -15.333 -106 -43.666 -186 -84.999c-89.333 -46 -145.333 -80.667 -168 -104c-15.333 -13.333 -28.333 -37.666 -39 -72.999c-5.33301 -17.333 -8 -37.333 -8 -60c0 -58.667 20.333 -90.667 61 -96
c38 0 95.667 47.667 173 143c54.667 67.333 101.334 133.666 140.001 198.999zM597.999 338c-58 -98 -124.334 -194.334 -199.001 -289.001c-31.333 -39.333 -80.333 -59 -147 -59c-86.667 0 -157 43 -211 129c-18 28.667 -27 78.334 -27 149.001
c0 68.667 36.333 139.334 109 212.001c55.333 56 121.666 105 198.999 147c70.667 38 130.667 59.667 180 65c44 0 76.333 -16.667 97 -50c7.33301 -12 11 -20 11 -24c32.667 56.667 62.667 114.334 90 173.001c64.667 140 97 234 97 282s-18.667 72 -56 72
c-22 0 -66.333 -20.667 -133 -62c-87.333 -54 -137.666 -94.667 -150.999 -122c-1.33301 -2.66699 -2 -5 -2 -7c0 -2.66699 0.666992 -4.66699 2 -6c4 -12.667 19.667 -18 47 -16c12.667 -1.33301 29.667 0 51 4h10c8.66699 0 13 -2 13 -6v-4
c-3.33301 -12 -35.666 -30 -96.999 -54c-47.333 -18.667 -84.666 -28 -111.999 -28c-8 0 -14.333 0.666992 -19 2c-18.667 5.33301 -40.334 32.666 -65.001 81.999c-15.333 30.667 -23 57.334 -23 80.001c0 27.333 20.667 58.666 62 93.999
c55.333 47.333 102.333 81.333 141 102c34 21.333 86 51.333 156 90c41.333 20.667 85 31 131 31c102 0 153 -69 153 -207c0 -58 -24.333 -156.333 -73 -295c-51.333 -144.667 -129.333 -306.334 -234 -485.001z" />
    <glyph glyph-name="n" unicode="n" horiz-adv-x="717" 
d="M223 133c53.333 8.66699 112.001 58.6689 176.001 150.002c49.333 70 74 135.333 74 196c0 56 -21 84 -63 84c-40 0 -86 -26 -138 -78c-38.667 -38.667 -71.834 -81.334 -99.501 -128.001s-41.5 -99.334 -41.5 -158.001c11.333 -44 42 -66 92 -66zM664.001 1307
c46.667 12 103.335 18.001 170.002 18.001c52.667 0 90 -3.33301 112 -10c41.333 -12.667 62 -31 62 -55c0 -58.667 -17.333 -97 -52 -115c-35.333 -14 -86.333 -36.667 -153 -68l-64 -35c-18 -12 -28.667 -18 -32 -18c-6 0 -9 2 -9 6c0 9.33301 9.66699 23.666 29 42.999
c15.333 15.333 38.666 31 69.999 47c28.667 14.667 43 24.334 43 29.001c0 6 -33.667 8 -101 6c-33.333 -0.666992 -79.666 -20.334 -138.999 -59.001c-31.333 -20 -69.333 -72 -114 -156l-48 -86l-98 -195c31.333 10 58.666 15 81.999 15c66 0 117.333 -19.833 154 -59.5
s55 -92.834 55 -159.501c0 -83.333 -26.667 -167.333 -80 -252c-45.333 -72 -115.333 -129.333 -210 -172c-46 -20.667 -90 -31 -132 -31s-80.333 8.33301 -115 25c-68 32.667 -102 93.334 -102 182.001c0 28.667 2.66699 53.334 8 74.001
c30.667 119.333 97 266.666 199 441.999c50.667 86.667 90 161 118 223c42 92 89.333 165.667 142 221c73.333 77.333 141.666 124 204.999 140z" />
    <glyph glyph-name="o" unicode="o" horiz-adv-x="1352" 
d="M1354 561c1.33301 -142 -27.3271 -266.332 -85.9941 -372.999l30 -30c-103.333 -131.333 -181 -197 -233 -197c-16.667 0 -25 14.333 -25 43c0 58.667 32.333 138 97 238c30.667 47.333 58 116.333 82 207c9.33301 34.667 14 59.667 14 75c0 48 -22.667 72 -68 72
c-95.333 0 -186 -70.333 -272 -211c0.666992 -3.33301 2.66699 -10 6 -20c2.66699 -12 4 -19.667 4 -23c-2.66699 -7.33301 -7.33398 -16.333 -14.001 -27l-74 -120c-8.66699 -14 -16.667 -21 -24 -21c-6.66699 0 -13.667 2.66699 -21 8l-61 45
c-10 7.33301 -15 15.666 -15 24.999c0 8.66699 15.667 38.667 47 90c19.333 32 34.666 70.333 45.999 115c5.33301 24 8 46.333 8 67c-0.666992 48 -23.334 72 -68.001 72c-28 0 -67.667 -14.333 -119 -43c-58 -32 -111.833 -68.667 -161.5 -110
s-100.834 -98.333 -153.501 -171c-36.667 -50.667 -55 -94.334 -55 -131.001c0 -12 11.333 -18 34 -18c15.333 0 41.333 9.66699 78 29c36 13.333 49.667 20 41 20c0 -16.667 -30.667 -52 -92 -106c-52 -45.333 -89.667 -68 -113 -68c-18.667 0 -46.834 18 -84.501 54
s-56.5 68.667 -56.5 98c0 8.66699 10.333 35 31 79c24 51.333 52 100 84 146c91.333 132.667 187.666 228.334 288.999 287.001c67.333 39.333 123.666 67 168.999 83c58 20.667 102 31 132 31c46.667 0 84 -17.667 112 -53c8 -10 15.833 -38.167 23.5 -84.5
s13.5 -69.5 17.5 -69.5c52.667 87.333 104 146 154 176c34.667 20.667 78.334 31 131.001 31c48.667 0 86 -17.667 112 -53c35.333 -48 53.333 -102 54 -162z" />
    <glyph glyph-name="p" unicode="p" horiz-adv-x="870" 
d="M492 532c-29.333 4.66699 -66.335 7 -111.002 7c-68.667 0 -121.334 6.66699 -158.001 20c-39.333 14 -59 36.667 -59 68c0 14 8 33.5 24 58.5s30.333 40.833 43 47.5c15.333 8 30.333 13 45 15c15.333 0 23 -3 23 -9c-1.33301 -6 -9.66602 -11.333 -24.999 -16l-12 -6
c-2.66699 -2.66699 -4 -6 -4 -10c0 -10 38.333 -15 115 -15c73.333 0 128 2.66699 164 8c40 6 78 17 114 33c44 20 70 50 78 90c2.66699 13.333 4 23.666 4 30.999c0 23.333 -11 43.666 -33 60.999c-16.667 13.333 -38.334 25 -65.001 35l-72 29c-108 56 -162 116 -162 180
c12 102 109.667 167.667 293 197c9.33301 1.33301 30 2.66602 62 3.99902c56.667 2 86.667 -12.333 90 -43c1.33301 -12 2 -25.667 2 -41c0 -13.333 -1.33301 -25.666 -4 -36.999c-5.33301 -22.667 -23 -46 -53 -70c-40 -24.667 -68.667 -49 -86 -73
c-9.33301 -12.667 -15.666 -19 -18.999 -19c-1.33301 0.666992 -2 2.66699 -2 6v4c0 24.667 16.333 51.334 49 80.001c16.667 14.667 25 23.667 25 27c0 4 -5 6 -15 6c8.66699 0 -15.666 -3 -72.999 -9c-50.667 -5.33301 -85.667 -18.666 -105 -39.999
c-6.66699 -7.33301 -10 -16.333 -10 -27c0 -24.667 32.667 -53.334 98 -86.001c52.667 -26 93 -54.667 121 -86c18.667 -20.667 35 -50 49 -88c5.33301 -14.667 8 -33.667 8 -57c0 -26.667 -4.16699 -48.834 -12.5 -66.501s-17 -32.667 -26 -45s-22.5 -26.5 -40.5 -42.5
c-15.333 -14 -38 -31.667 -68 -53c70 -4.66699 123.333 -31.334 160 -80.001c34.667 -46 52.334 -89.667 53.001 -131c1.33301 -74 -12.334 -138 -41.001 -192c-18 -34 -48 -67.667 -90 -101c-29.333 -23.333 -62.666 -43 -99.999 -59
c-63.333 -27.333 -143.333 -46.666 -240 -57.999c-49.333 -5.33301 -96.333 -8 -141 -8c-180.667 0 -271 31.667 -271 95c0 14.667 8.33301 36.334 25 65.001c27.333 47.333 66.333 72 117 74c18.667 0.666992 28 -2 28 -8c-2.66699 -7.33301 -12.667 -13.666 -30 -18.999
c-5.33301 -1.33301 -10.5 -3.33301 -15.5 -6s-7.5 -6 -7.5 -10c0 -10 47.667 -15 143 -15c157.333 0 274.333 14.333 351 43c36 13.333 74.667 47 116 101c14 18.667 21 39.667 21 63c0 90 -90 149.333 -270 178z" />
    <glyph glyph-name="q" unicode="q" horiz-adv-x="840" 
d="M541 268l60.001 108.003l57 106l61 112l110 192c-87.333 -34.667 -170.333 -76 -249 -124v81c57.333 49.333 109 91.666 155 126.999c40 30.667 71 53.167 93 67.5s59.333 36.5 112 66.5c36.667 -53.333 55 -104.666 55 -153.999c0 -24 -6 -53.333 -18 -88
c-15.333 -44.667 -30.5 -82.5 -45.5 -113.5l-73.5 -156.5c-42 -71.333 -89.667 -146 -143 -224h153l-112 -174c-13.333 -1.33301 -35.333 -2.66602 -66 -3.99902c-19.333 0 -49.333 -0.666992 -90 -2c-75.333 -96.667 -171 -202.334 -287 -317.001
c-210.667 -208 -352 -312 -424 -312c-31.333 0 -47 15 -47 45c0 24 23 63.667 69 119c38.667 46 71.667 79.667 99 101c51.333 39.333 111.333 61.666 180 66.999l72 76l82 98c18.667 27.333 48 67.666 88 120.999l-285 -2c-12.667 0 -29.834 -5.5 -51.501 -16.5
s-33.834 -16.5 -36.501 -16.5c-12 4 -18 15 -18 33c8 19.333 18.333 42.666 31 69.999c10.667 18.667 19.334 30 26.001 34c4 3.33301 22 9 54 17l184 45c49.333 12 83.333 18 102 18h103z" />
    <glyph glyph-name="r" unicode="r" horiz-adv-x="1331" 
d="M1333 561c1.33301 -143.333 -27.335 -267.669 -86.002 -373.002l31 -30c-104.667 -131.333 -182.667 -197 -234 -197c-16 0 -24 14.333 -24 43c0 58.667 32 138 96 238c30.667 48 58 117 82 207c9.33301 34.667 14 59.667 14 75c0 48 -22.333 72 -67 72
c-94.667 0 -185.667 -70.333 -273 -211c0 -2 2.33301 -8.66699 7 -20c2.66699 -12 4 -19.667 4 -23c-2 -4.66699 -7 -13.667 -15 -27l-73 -120c-8.66699 -14 -17 -21 -25 -21c-6 0 -12.667 2.66699 -20 8l-62 45c-9.33301 8.66699 -14 17 -14 25
c0 7.33301 15.667 37.333 47 90c36 60.667 53.667 121.334 53 182.001c-0.666992 48 -23 72 -67 72c-28 0 -67.667 -14.333 -119 -43c-58 -32.667 -112.167 -69.834 -162.5 -111.501s-101.5 -98.167 -153.5 -169.5c-36.667 -50 -55 -93.667 -55 -131
c0 -12 11.667 -18 35 -18c16.667 0 42.667 9.66699 78 29c24.667 13.333 38.334 20 41.001 20c0 -16.667 -30.667 -52 -92 -106c-52 -45.333 -89.667 -68 -113 -68c-19.333 0 -47.666 18 -84.999 54s-56 68.667 -56 98c0 38.667 38 113.667 114 225
c36 52.667 81 107.334 135 164.001c48 50 99.333 91 154 123c65.333 38 122 65.667 170 83c57.333 20.667 101 31 131 31c48.667 0 86.667 -18 114 -54s41.666 -72.333 42.999 -109c1.33301 -29.333 0.333008 -44 -3 -44c53.333 88.667 104.333 147.334 153 176.001
c34.667 20.667 78.334 31 131.001 31c53.333 0 95.333 -23.333 126 -70c26 -40 39.333 -88.333 40 -145zM1407 1098c0 -57.333 -36.3311 -125.001 -108.998 -203.001c-28 -30 -49.667 -45 -65 -45c-18 0 -27 9.66699 -27 29c1.33301 5.33301 2 10 2 14v14
c0 8.66699 -2.66699 13.667 -8 15c-5.33301 0 -12 -3 -20 -9c58.667 88.667 88 147.667 88 177c0 18 -6.83301 34.167 -20.5 48.5s-29.5 22.5 -47.5 24.5c-182 0 -365.667 -49 -551 -147c-88 -46.667 -178.667 -100.667 -272 -162c36.667 -6.66699 81 -16.334 133 -29.001
c17.333 -2.66699 40.666 -7.33398 69.999 -14.001c4 -2 6 -6 6 -12c0 -7.33301 -7 -13.666 -21 -18.999c-23.333 -6 -48 -11.333 -74 -16s-46.333 -10 -61 -16c-30 -14.667 -75.667 -35.334 -137 -62.001c-16.667 -6.66699 -29.667 -10 -39 -10c-36.667 0 -55 22.333 -55 67
v88c0 43.333 9.33301 82.333 28 117c26.667 49.333 73 93.333 139 132c27.333 16 86.333 44.333 177 85c87.333 38.667 176.666 74.334 267.999 107.001c106 37.333 215.333 55 328 53c86.667 -1.33301 153 -21.166 199 -59.499s69 -94.166 69 -167.499z" />
    <glyph glyph-name="s" unicode="s" horiz-adv-x="748" 
d="M164 250c3.33301 88 43.0029 178.002 119.003 270.002l137 172c33.333 42 70.666 92 111.999 150l130 180c102 148 153 235.333 153 262c0 23.333 -26 36.333 -78 39v0c-41.333 0 -146.333 -112 -315 -336c-126.667 -168.667 -227 -311.334 -301 -428.001
c-46.667 -74 -79.334 -141 -98.001 -201c-14 -44.667 -20.333 -91.667 -19 -141c2.66699 -106.667 46.334 -180.334 131.001 -221.001c26 -12.667 78.667 -19 158 -19c78 0 151.667 9 221 27c20.667 5.33301 48.667 13.666 84 24.999c48.667 21.333 86.334 56 113.001 104
c9.33301 22 14 44 14 66c0 58 -52.667 109.667 -158 155c-65.333 28 -98 52 -98 72c0 8.66699 3.33301 16.334 10 23.001c22 22.667 75.333 36 160 40c20 0.666992 31 -0.666016 33 -3.99902c0 -4 -9 -11.333 -27 -22c-32.667 -31.333 -49 -54 -49 -68v-4
c0.666992 -2.66699 2 -4 4 -4c1.33301 0 10.166 7.16699 26.499 21.5s25.833 22.166 28.5 23.499c12.667 10.667 29.334 21 50.001 31c16 10.667 28 19.334 36 26.001c5.33301 5.33301 11 16.333 17 33c2.66699 7.33301 4 16.333 4 27s-1.33301 23.667 -4 39
c-2 24.667 -31.333 37 -88 37c-18.667 0 -39.334 -1.33301 -62.001 -4c-70.667 -8.66699 -128 -28.667 -172 -60c-48.667 -34.667 -75.334 -74.334 -80.001 -119.001c0 -54 40.333 -100.333 121 -139c16.667 -6 38 -15.667 64 -29c27.333 -10 41 -25 41 -45
c-4.66699 -26.667 -21.334 -50 -50.001 -70c-24.667 -18 -51.667 -29.333 -81 -34c-34.667 -5.33301 -72.334 -8 -113.001 -8c-23.333 0 -41 0.666992 -53 2c-37.333 4 -66.666 18.333 -87.999 43c-23.333 26 -34.333 55.333 -33 88z" />
    <glyph glyph-name="t" unicode="t" horiz-adv-x="1126" 
d="M709 82c5.33301 -24 8 -49.998 8 -77.998c0 -150 -75 -293.333 -225 -430c-64 -58 -147.333 -95 -250 -111c-43.333 -6.66699 -81 -10 -113 -10c-73.333 0 -126 7.66699 -158 23c-84.667 40.667 -128.334 114.334 -131.001 221.001c-1.33301 49.333 5 96.333 19 141
c18.667 60 51.334 127 98.001 201c72 114 172.333 256.667 301 428c40 53.333 72 93.666 96 120.999l101 106c54.667 56 91.334 84 110.001 84v0c52 -2.66699 78 -15.667 78 -39c0 -24 -51.333 -111.333 -154 -262c-18.667 -27.333 -42.667 -59 -72 -95l-48 -60
c-12 -16.667 -29.667 -39.334 -53 -68.001l-68 -82c-18.667 -22.667 -50 -64.667 -94 -126c-15.333 -21.333 -27 -36.666 -35 -45.999c-75.333 -89.333 -115 -179.333 -119 -270c-1.33301 -32.667 9.66699 -62 33 -88c21.333 -24.667 50.666 -39 87.999 -43
c12.667 -1.33301 31.667 -2 57 -2c66 0 115.333 10.333 148 31c8.66699 6 39.334 33 92.001 81c91.333 82.667 137 181 137 295c0 33.333 -3.33301 62.666 -10 87.999s-10 54.666 -10 87.999c0 133.333 51 247.333 153 342c92.667 86 189 129 289 129
c48.667 0 89 -10.333 121 -31c38 -24.667 57 -60 57 -106c0 -96 -49 -182.667 -147 -260c-38.667 -30 -92 -66.333 -160 -109c-24.667 -15.333 -57.334 -30 -98.001 -44c-16 -6 -29.667 -12.333 -41 -19zM713 260.002l-0.000976562 -41.001c64.667 36 126 80 184 132
c79.333 70.667 119 131 119 181c0 30.667 -15 46 -45 46c-28 0 -63 -16 -105 -48c-39.333 -30 -74.666 -70.667 -105.999 -122s-47 -100.666 -47 -147.999z" />
    <glyph glyph-name="u" unicode="u" horiz-adv-x="963" 
d="M219 301c-48 -66.667 -80.002 -100.002 -96.002 -100.002c-25.333 0 -48 21 -68 63s-30 92 -30 150c0 68.667 23.667 136.667 71 204c56.667 82 108 123 154 123s69 -14.333 69 -43c0 -14.667 -12 -37.667 -36 -69c-22 -28.667 -53 -61.667 -93 -99
c-17.333 -28.667 -26 -49 -26 -61c0 -18 6.66699 -27 20 -27c16 0 44.667 23.333 86 70c34.667 39.333 92.667 92.666 174 159.999c33.333 27.333 58 47 74 59c46.667 35.333 86.334 53 119.001 53c46.667 0 70 -25.667 70 -77c0 -14 -10.333 -40.667 -31 -80
c-26 -49.333 -54.667 -96.666 -86 -141.999c-26 -37.333 -76 -105.333 -150 -204l238 213l156 141c90.667 83.333 141.667 125 153 125c16.667 0 32.334 -17 47.001 -51c12.667 -29.333 19 -54 19 -74c0 -13.333 -14.333 -43.333 -43 -90
c-26 -42.667 -61.667 -105.667 -107 -189l-136 -253c-52.667 -100 -135 -245.667 -247 -437c6.66699 -33.333 10 -47.666 10 -42.999c0 -2 -0.666992 -4 -2 -6l-8 -12c-2.66699 -4 -4 -6.66699 -4 -8l-74 -121c-8.66699 -14 -16.667 -21 -24 -21c-8 0 -15 2.66699 -21 8
l-61 45c-9.33301 8.66699 -14 17 -14 25s15.667 38 47 90c78.667 130 130.334 218 155.001 264l86 162l57 111l72 142l129 261c-62.667 -50 -122.667 -103.333 -180 -160c-60.667 -59.333 -103.667 -103.666 -129 -132.999l-80 -92
c-36.667 -40.667 -71.334 -61 -104.001 -61c-34 0 -51 24.333 -51 73c0 37.333 49.667 139.333 149 306c4 5.33301 6 13.333 6 24c0 14 -6.66699 21 -20 21c-16 0 -51.667 -25.667 -107 -77c-24 -22 -44 -44 -60 -66z" />
    <glyph glyph-name="v" unicode="v" horiz-adv-x="717" 
d="M422 16c31.333 58.667 46.999 97.667 46.999 117c0 14.667 -2.66699 26.334 -8 35.001l-70 89c-8 11.333 -12 25.333 -12 42c4.66699 27.333 23.667 60 57 98c58.667 66.667 88 124 88 172c0 26.667 -15 43 -45 49c-51.333 0 -119 -15 -203 -45
c-44 -15.333 -87.667 -37.666 -131 -66.999c26.667 -8 60.334 -21.667 101.001 -41c16 -8 24 -17.667 24 -29c0 -3.33301 -0.666992 -6 -2 -8c-2 -8 -4.66699 -12.667 -8 -14h-18c-0.666992 0 -37.667 -1.33301 -111 -4l-61 -2c-12.667 2.66699 -19 12 -19 28
c0 24 13 63 39 117c44.667 92 85 148 121 168c28 15.333 82.333 28.666 163 39.999c31.333 4.66699 78 9.66699 140 15c46 0.666992 92.333 -4 139 -14c34 -7.33301 52.667 -25 56 -53c2.66699 -24 4 -51.333 4 -82c0 -48 -28 -104.667 -84 -170l-81 -88
c-14 -16 -22.667 -26.333 -26 -31c-8.66699 -12 -12.667 -25 -12 -39c1.33301 -25.333 17 -45 47 -59c45.333 -21.333 68 -56.333 68 -105c0 -18 -5 -38.333 -15 -61c-34 -76.667 -80.333 -154 -139 -232l-129 -176c0 -2.66699 1.66699 -9 5 -19s5 -18 5 -24
c0 -2 -0.666992 -4 -2 -6l-8 -12c-2.66699 -4 -4 -6.66699 -4 -8l-74 -121c-8.66699 -14 -16.667 -21 -24 -21c-8.66699 0 -15.667 2.66699 -21 8l-61 45c-10 7.33301 -15 15.666 -15 24.999c0 8 15.667 38 47 90c88 144.667 140 232.667 156 264z" />
    <glyph glyph-name="w" unicode="w" horiz-adv-x="1024" 
d="M223 133c53.333 8.66699 112.001 58.6689 176.001 150.002c49.333 70 74 135.333 74 196c0 56 -21 84 -63 84c-40 0 -86 -26 -138 -78c-38.667 -38.667 -71.834 -81.334 -99.501 -128.001s-41.5 -99.334 -41.5 -158.001c11.333 -44 42 -66 92 -66zM1186 918.002
c-4 -7.33301 -24.0029 -47.999 -60.0029 -121.999c-54 -111.333 -88.667 -167 -104 -167c-46.667 0 -70 26 -70 78c0 13.333 10.333 39.666 31 78.999c24.667 47.333 53.334 94.666 86.001 141.999c31.333 45.333 81.333 113.666 150 204.999
c-19.333 -16.667 -49.333 -41 -90 -73l-119 -94c-42.667 -34 -72.667 -59 -90 -75c-89.333 -83.333 -140.666 -125 -153.999 -125c-16.667 0 -32.334 17 -47.001 51c-12.667 29.333 -19 54 -19 74c0 11.333 21.333 41.333 64 90c22 25.333 33 54.666 33 87.999
c0 39.333 -20.667 59 -62 59c-16.667 0 -39.167 -9.66699 -67.5 -29s-61.166 -52 -98.499 -98c-99.333 -124 -175.666 -238 -228.999 -342c31.333 10 58.666 15 81.999 15c66 0 117.333 -19.833 154 -59.5s55 -92.834 55 -159.501c0 -83.333 -26.667 -167.333 -80 -252
c-45.333 -72 -115.333 -129.333 -210 -172c-46 -20.667 -90 -31 -132 -31s-80.333 8.33301 -115 25c-68 32.667 -102 94 -102 184c0 21.333 2.66699 45.333 8 72c29.333 146.667 104 315.334 224 506.001c52 82.667 96.667 149.334 134 200.001
c61.333 83.333 108.666 143.333 141.999 180c99.333 108 214 162 344 162c59.333 0 98.333 -10.333 117 -31c13.333 -14.667 20 -33.667 20 -57c0 -36 -16.333 -86.333 -49 -151c-13.333 -29.333 -34.666 -71.666 -63.999 -126.999
c48.667 32.667 115.667 88.334 201 167.001l50 46c16 14 36.333 33.667 61 59c36.667 40.667 71.334 61 104.001 61c34 0 51 -24.333 51 -73c0 -20.667 -13 -57 -39 -109c-5.33301 -10.667 -42 -76 -110 -196z" />
    <glyph glyph-name="x" unicode="x" horiz-adv-x="635" 
d="M436 580c-60 -36.667 -102 -63 -126 -79c-46.667 -32 -85 -63 -115 -93c-57.333 -57.333 -86 -114 -86 -170c0 -15.333 2 -27 6 -35c17.333 -44 48 -66 92 -66c28 0 75.667 24.667 143 74c-10.667 31.333 -16 61.333 -16 90c0 74 34 167 102 279zM10 338
c22 113.333 72.999 235.667 152.999 367c30.667 50 95.667 144 195 282c53.333 74 104.666 139 153.999 195l53 57c54 56 91 84 111 84v0c52 -2.66699 78 -15.667 78 -39c0 -24.667 -51.333 -112 -154 -262c-12 -18 -46 -64.333 -102 -139l-31 -41l-184 -215l99 60
c32.667 18.667 61.667 28 87 28c13.333 0 25 -3.33301 35 -10c17.333 -11.333 26 -25 26 -41c0 -14 -7.33301 -29.333 -22 -46c43.333 -9.33301 65 -40.666 65 -93.999c0 -80 -28 -166 -84 -258l19 -18h14c22 0 43.333 8.66699 64 26c12.667 10.667 31.667 25 57 43v-67
c-44 -40.667 -79.333 -67.334 -106 -80.001c-22.667 -10.667 -53 -16 -91 -16h-24c-87.333 -102.667 -163.666 -154 -228.999 -154c-39.333 0 -75.333 13.667 -108 41c-31.333 25.333 -53.666 57.333 -66.999 96c-12 34 -18 69.667 -18 107c-0 28.667 3.33301 60 10 94z" />
    <glyph glyph-name="y" unicode="y" horiz-adv-x="645" 
d="M504 496c4 8.66699 5.99902 16.667 5.99902 24c0 14 -7 21 -21 21c-18.667 0 -93 -71.667 -223 -215c-15.333 -17.333 -39.666 -49.666 -72.999 -96.999c-24 -34.667 -44.667 -61 -62 -79c-10.667 -14 -22.334 -21 -35.001 -21c-31.333 0 -56.666 29 -75.999 87
c-14.667 44.667 -22 86.667 -22 126c0 42 6.66699 77.667 20 107c16 35.333 37.333 72.666 64 111.999c38.667 57.333 75.667 103.666 111 138.999c27.333 27.333 56.666 41 87.999 41c18.667 0 34.834 -3.66699 48.501 -11s20.5 -18 20.5 -32c0 -32 -43 -88 -129 -168
c-56 -52 -84 -96.333 -84 -133c0 -17.333 7 -26 21 -26c11.333 0 40 23 86 69l151 154c125.333 126.667 216.333 190 273 190c32.667 0 56.334 -7.33301 71.001 -22c12.667 -15.333 19 -33.666 19 -54.999c0 -18 -10.333 -44.667 -31 -80
c-48.667 -83.333 -132.334 -243.666 -251.001 -480.999l-124 -244c-48.667 -92 -94.334 -170.667 -137.001 -236c0 -2 -2.33301 -5.33301 -7 -10s-7 -8 -7 -10c2.66699 -8.66699 4 -16.334 4 -23.001c0 -2 -0.666992 -4 -2 -6l-13 -20l-73 -121
c-8.66699 -14 -17 -21 -25 -21s-14.667 2.66699 -20 8l-62 45c-9.33301 8.66699 -14 17 -14 25s15.667 38 47 90c86.667 143.333 138.667 231.333 156 264c2.66699 5.33301 12.667 24.333 30 57l19 35c16.667 31.333 64.334 126 143.001 284z" />
    <glyph glyph-name="z" unicode="z" horiz-adv-x="696" 
d="M219 125c53.333 8.66699 112.001 58.334 176.001 149.001c49.333 70 74 135.667 74 197c0 56 -21 84 -63 84c-40 0 -86 -26 -138 -78c-38.667 -38.667 -71.834 -81.334 -99.501 -128.001s-41.5 -99.667 -41.5 -159c11.333 -43.333 42 -65 92 -65zM467.001 821
c-30.667 -36.667 -74.333 -93.332 -131 -169.999c36.667 10 64 15 82 15c66 0 117.333 -20 154 -60s55 -93.333 55 -160c0 -81.333 -26.667 -165 -80 -251c-19.333 -31.333 -47 -62.333 -83 -93c-87.333 -73.333 -173.666 -110 -258.999 -110
c-41.333 0 -79.666 8 -114.999 24c-34 27.333 -58 61 -72 101c-12 34.667 -18 70 -18 106c0 29.333 3.33301 60.666 10 93.999c23.333 115.333 74.333 238 153 368c42 69.333 107 163.333 195 282c50.667 68.667 95.334 123 134.001 163c-10 12.667 -23.667 21 -41 25
c-42.667 -4.66699 -89.5 -15.5 -140.5 -32.5s-95.167 -38.167 -132.5 -63.5c83.333 -24.667 125 -46.667 125 -66c0 -3.33301 -0.666992 -6 -2 -8c-2 -8 -4.66699 -12.667 -8 -14h-19c-0.666992 0 -37.334 -1.33301 -110.001 -4l-62 -2c-12 2.66699 -18 12 -18 28
c0 24 13 63 39 117c12 25.333 31.667 61 59 107c21.333 30 42 50.333 62 61c49.333 27.333 129.666 41.666 240.999 42.999c49.333 0.666992 96 -4 140 -14c36.667 -8.66699 55 -26.667 55 -54c2.66699 -13.333 4 -40.666 4 -81.999c0 -35.333 -28 -92 -84 -170l-68 -94
c-22.667 -32 -44.334 -60.667 -65.001 -86z" />
    <glyph glyph-name="braceleft" unicode="{" horiz-adv-x="854" 
d="M797 -573l-56 -0.00292969c-76 0 -131.333 8 -166 24c-32 15.333 -59.667 38.666 -83 69.999c-44 60.667 -66 150.667 -66 270c0 147.333 -2 247 -6 299c-10.667 138.667 -78.334 210.334 -203.001 215.001v164c124.667 4.66699 192.334 76.334 203.001 215.001
c4 52.667 6 153 6 301c0 123.333 21 213.333 63 270c31.333 42.667 78.666 71.334 141.999 86.001c11.333 2.66699 28.333 5.66699 51 9h59h56v-158h-31c-50 0 -85.667 -4.66699 -107 -14c-43.333 -18.667 -65 -83 -65 -193v-145c0 -89.333 -5.33301 -160.333 -16 -213
c-12.667 -62.667 -36.667 -114.334 -72 -155.001c-28.667 -33.333 -69.667 -61.666 -123 -84.999c104.667 -49.333 168.667 -125.666 192 -228.999c12.667 -55.333 19 -129 19 -221v-148c0 -108 21.667 -171.333 65 -190c22.667 -10 58.334 -15 107.001 -15h31v-157z" />
    <glyph glyph-name="bar" unicode="|" horiz-adv-x="1110" 
d="M530 -514v1894h160v-1894h-160z" />
    <glyph glyph-name="braceright" unicode="}" horiz-adv-x="854" 
d="M168 1350l55.001 -0.000976562c44 0 75.333 -1.33301 94 -4c42.667 -6 82 -22.667 118 -50c44 -33.333 73.667 -84.333 89 -153c10 -44 15 -96.667 15 -158c0 -137.333 0.666992 -215 2 -233c6.66699 -102.667 25.667 -176 57 -220
c28.667 -40.667 78.667 -61.667 150 -63v-164c-122 -4.66699 -189 -77 -201 -217c-5.33301 -62 -8 -161 -8 -297c0 -62 -4.83301 -114.167 -14.5 -156.5s-26.667 -80 -51 -113s-52.5 -56.5 -84.5 -70.5c-36 -16 -91.333 -24 -166 -24h-55v157h31c48.667 0 84.667 5 108 15
c42.667 18.667 64 82 64 190v148c0 118 10.333 206.333 31 265c30.667 86.667 90 148.334 178 185.001c-77.333 37.333 -131.333 88 -162 152c-16.667 35.333 -28.334 77 -35.001 125c-8 58 -12 116.667 -12 176v145c0 108 -21.333 171.667 -64 191
c-23.333 10.667 -59.333 16 -108 16h-31v158z" />
    <glyph glyph-name="asciitilde" unicode="~" horiz-adv-x="961" 
d="M764 1116c0 4 -2.00098 6 -6.00098 6c-27.333 0 -41 13.667 -41 41c0 20.667 8.66699 46 26 76c18.667 32.667 40.334 59 65.001 79s46.667 30 66 30c27.333 0 41 -18 41 -54c0 -70.667 -43 -145 -129 -223c-32.667 -30 -53 -45 -61 -45c-4 0 -6 2 -6 6
c0 9.33301 7.5 23.333 22.5 42s22.5 32.667 22.5 42zM519.999 1116c0 4 -2.66797 6.00098 -8.00098 6.00098c-27.333 0 -41 13.667 -41 41c0 19.333 9.16699 45 27.5 77s39.5 58 63.5 78s46.333 30 67 30c27.333 0 41 -18 41 -54c0 -35.333 -13 -73.333 -39 -114
c-15.333 -24.667 -38 -54 -68 -88c-39.333 -44 -66.666 -66 -81.999 -66c-4 0 -6 2 -6 6c0 10 7.5 24.167 22.5 42.5s22.5 32.166 22.5 41.499z" />
    <glyph glyph-name="Agrave" unicode="&#xc0;" horiz-adv-x="1237" 
d="M395 244l330 366.006l6 502c-110.667 -16.667 -226 -59 -346 -127c-15.333 -8.66699 -54.333 -38 -117 -88c-27.333 -22 -41 -37.667 -41 -47c0 -6.66699 9 -10 27 -10c10 0 23.667 1 41 3c20 2 33.667 3 41 3c12 0.666992 18 -1.33301 18 -6
c-0.666992 -2 -2.83398 -4.66699 -6.50098 -8s-6.16699 -5 -7.5 -5c-76.667 -29.333 -132.667 -49.666 -168 -60.999c-48 -15.333 -76.667 -23 -86 -23c-12 0 -18 7.66699 -18 23c0 40.667 11.333 88.334 34 143.001c22 52 54.333 100 97 144
c64.667 65.333 161.5 125.333 290.5 180s241.5 82 337.5 82c18.667 0 42.667 -9.66699 72 -29c16.667 -11.333 25 -38 25 -80c0 -38 -2 -83.333 -6 -136s-9 -129.334 -15 -230.001l207 190c12.667 12 42.667 45.333 90 100c28 32.667 49.333 54 64 64c12 8 22.667 12 32 12
c23.333 0 35 -10 35 -30c0 -27.333 -27.333 -89.666 -82 -186.999c-20 -10.667 -44.333 -18.667 -73 -24l-283 -320l-33 -543c0 -5.33301 3.66699 -10 11 -14c10 -4.66699 15.333 -7.33398 16 -8.00098c6.66699 -9.33301 17.667 -14 33 -14c31.333 0 103 38 215 114
c2.66699 1.33301 6.66699 2 12 2c12 0 18 -5.33301 18 -16c0 -26 -29.667 -68.667 -89 -128c-46.667 -46.667 -88 -82.667 -124 -108c-55.333 -39.333 -106.333 -59 -153 -59c-38.667 0 -64 20 -76 60c-6.66699 20.667 -10 56.667 -10 108c0 -1.33301 0.666992 17.667 2 57
v84c1.33301 25.333 2.66602 63.666 3.99902 114.999c0 29.333 0.666992 78.333 2 147c-90 -96 -155.667 -168.333 -197 -217l-102 -124l-12 -15c-7.33301 -8.66699 -11 -18.334 -11 -29.001c0 -26.667 33 -56.667 99 -90c52.667 -26.667 92.334 -56.334 119.001 -89.001
s40 -67.667 40 -105c0 -30 -4.5 -56.833 -13.5 -80.5s-24.833 -48.834 -47.5 -75.501c-31.333 -36.667 -81.166 -66 -149.499 -88s-142.166 -33 -221.499 -33c-144.667 0 -217 31.333 -217 94c0 18 7.5 41.167 22.5 69.5s30.167 46.833 45.5 55.5s30.333 13.667 45 15
c14.667 0 22 -3 22 -9c-1.33301 -7.33301 -9.33301 -13.333 -24 -18c-3.33301 -1.33301 -7.66602 -3.33301 -12.999 -6c-2.66699 -2.66699 -4 -6 -4 -10c0 -10 38.333 -15 115 -15c124.667 0 217.667 14.333 279 43c42.667 20 72.667 42 90 66c0 21.333 -16.667 42 -50 62
c-28.667 17.333 -59.667 32.333 -93 45c-12.667 4.66699 -24.334 10 -35.001 16c-42 23.333 -74.333 47.666 -97 72.999s-33.334 57.666 -32.001 96.999c0.666992 26 14.667 57.333 42 94c23.333 31.333 48 56.666 74 75.999z" />
    <glyph glyph-name="Ecircumflex" unicode="&#xca;" 
 />
    <glyph glyph-name=".null" 
 />
    <glyph glyph-name="nonmarkingreturn" horiz-adv-x="575" 
 />
    <glyph glyph-name="glyph4" 
 />
    <glyph glyph-name="glyph5" 
 />
  </font>
</defs>
</svg>
